<?xml version="1.0" encoding="utf-8" standalone="no"?>
<!DOCTYPE svg PUBLIC "-//W3C//DTD SVG 1.1//EN"
  "http://www.w3.org/Graphics/SVG/1.1/DTD/svg11.dtd">
<svg xmlns:xlink="http://www.w3.org/1999/xlink" width="803.52pt" height="123.12pt" viewBox="0 0 803.52 123.12" xmlns="http://www.w3.org/2000/svg" version="1.1">
 <metadata>
  <rdf:RDF xmlns:dc="http://purl.org/dc/elements/1.1/" xmlns:cc="http://creativecommons.org/ns#" xmlns:rdf="http://www.w3.org/1999/02/22-rdf-syntax-ns#">
   <cc:Work>
    <dc:type rdf:resource="http://purl.org/dc/dcmitype/StillImage"/>
    <dc:date>2026-05-18T16:36:20.338784</dc:date>
    <dc:format>image/svg+xml</dc:format>
    <dc:creator>
     <cc:Agent>
      <dc:title>Matplotlib v3.7.3, https://matplotlib.org/</dc:title>
     </cc:Agent>
    </dc:creator>
   </cc:Work>
  </rdf:RDF>
 </metadata>
 <defs>
  <style type="text/css">*{stroke-linejoin: round; stroke-linecap: butt}</style>
 </defs>
 <g id="figure_1">
  <g id="patch_1">
   <path d="M 0 123.12
L 803.52 123.12
L 803.52 0
L 0 0
L 0 123.12
z
" style="fill: none; opacity: 0"/>
  </g>
  <g id="axes_1">
   <g id="text_1">
    <!-- $\mathrm{SNR}_{\mathrm{mean}}=\frac{\delta\sqrt{n}}{\sigma}$ -->
    <g style="fill: #111111" transform="translate(316.08 76.12) scale(0.28 -0.28)">
     <defs>
      <path id="STIXGeneral-Regular-53" d="M 3002 2963
L 2842 2963
Q 2733 3360 2579 3565
Q 2189 4064 1651 4064
Q 1357 4064 1181 3894
Q 1005 3725 1005 3456
Q 1005 3328 1069 3206
Q 1133 3085 1206 2998
Q 1280 2912 1465 2784
Q 1651 2656 1766 2589
Q 1882 2522 2150 2362
Q 2669 2061 2905 1763
Q 3142 1466 3142 1107
Q 3142 576 2771 243
Q 2400 -90 1837 -90
Q 1421 -90 1082 58
Q 915 128 781 128
Q 704 128 653 70
Q 602 13 602 -83
L 461 -83
L 275 1274
L 416 1274
Q 845 141 1734 141
Q 2074 141 2285 342
Q 2496 544 2496 858
Q 2496 1158 2310 1363
Q 2003 1696 1235 2106
Q 454 2522 454 3206
Q 454 3718 768 4022
Q 1082 4326 1568 4326
Q 1907 4326 2240 4186
Q 2413 4109 2522 4109
Q 2688 4109 2726 4326
L 2861 4326
L 3002 2963
z
" transform="scale(0.015625)"/>
      <path id="STIXGeneral-Regular-4e" d="M 4525 4237
L 4525 4115
Q 4198 4083 4102 4000
Q 4000 3910 3958 3756
Q 3917 3603 3917 3245
L 3917 -70
L 3802 -70
L 979 3443
L 979 960
Q 979 474 1088 323
Q 1197 173 1574 122
L 1574 0
L 77 0
L 77 122
Q 474 166 586 310
Q 698 454 698 960
L 698 3776
Q 531 3981 416 4048
Q 301 4115 77 4115
L 77 4237
L 1165 4237
L 3635 1146
L 3635 3322
Q 3635 3808 3514 3949
Q 3437 4032 3344 4061
Q 3251 4090 3008 4115
L 3008 4237
L 4525 4237
z
" transform="scale(0.015625)"/>
      <path id="STIXGeneral-Regular-52" d="M 4224 0
L 3187 0
L 1664 1971
L 1306 1958
L 1306 717
Q 1306 352 1405 249
Q 1504 147 1875 122
L 1875 0
L 109 0
L 109 122
Q 474 154 563 262
Q 653 371 653 794
L 653 3526
Q 653 3885 563 3987
Q 474 4090 109 4115
L 109 4237
L 1850 4237
Q 2726 4237 3187 3859
Q 3501 3603 3501 3091
Q 3501 2221 2342 2042
L 3622 422
Q 3757 256 3878 198
Q 4000 141 4224 122
L 4224 0
z
M 1306 3731
L 1306 2195
Q 1766 2202 1990 2246
Q 2214 2291 2438 2413
Q 2803 2618 2803 3142
Q 2803 4000 1632 4000
Q 1459 4000 1382 3945
Q 1306 3891 1306 3731
z
" transform="scale(0.015625)"/>
      <path id="STIXGeneral-Regular-6d" d="M 4960 0
L 3565 0
L 3565 96
Q 3834 122 3907 208
Q 3981 294 3981 576
L 3981 1894
Q 3981 2278 3869 2444
Q 3757 2611 3488 2611
Q 3264 2611 3107 2521
Q 2950 2432 2803 2221
L 2803 608
Q 2803 301 2896 201
Q 2989 102 3264 96
L 3264 0
L 1830 0
L 1830 96
Q 2112 115 2189 188
Q 2266 262 2266 550
L 2266 1901
Q 2266 2611 1850 2611
Q 1670 2611 1468 2531
Q 1267 2451 1171 2336
Q 1088 2240 1088 2227
L 1088 448
Q 1088 243 1177 176
Q 1267 109 1523 96
L 1523 0
L 102 0
L 102 96
Q 371 102 460 195
Q 550 288 550 563
L 550 2150
Q 550 2387 499 2480
Q 448 2573 326 2573
Q 230 2573 122 2547
L 122 2656
Q 557 2778 1011 2944
L 1062 2925
L 1062 2451
L 1075 2451
Q 1363 2752 1584 2848
Q 1805 2944 2054 2944
Q 2560 2944 2733 2406
Q 3232 2944 3776 2944
Q 4518 2944 4518 1792
L 4518 493
Q 4518 282 4582 202
Q 4646 122 4794 109
L 4960 96
L 4960 0
z
" transform="scale(0.015625)"/>
      <path id="STIXGeneral-Regular-65" d="M 2611 1050
L 2714 1005
Q 2330 -64 1376 -64
Q 813 -64 486 329
Q 160 723 160 1389
Q 160 2074 525 2509
Q 890 2944 1485 2944
Q 2061 2944 2374 2502
Q 2560 2246 2592 1773
L 621 1773
Q 646 1370 700 1158
Q 755 947 915 730
Q 1184 378 1626 378
Q 1939 378 2153 531
Q 2368 685 2611 1050
z
M 634 1978
L 1939 1978
Q 1882 2381 1750 2547
Q 1619 2714 1312 2714
Q 1043 2714 864 2525
Q 685 2336 634 1978
z
" transform="scale(0.015625)"/>
      <path id="STIXGeneral-Regular-61" d="M 2829 422
L 2829 243
Q 2586 -64 2253 -64
Q 1888 -64 1843 403
L 1837 403
Q 1427 -64 909 -64
Q 608 -64 422 112
Q 237 288 237 602
Q 237 1050 685 1350
Q 992 1555 1837 1869
L 1837 2214
Q 1837 2502 1699 2646
Q 1562 2790 1338 2790
Q 1146 2790 1018 2697
Q 890 2605 890 2477
Q 890 2419 909 2348
Q 928 2278 928 2208
Q 928 2112 841 2029
Q 755 1946 634 1946
Q 525 1946 441 2029
Q 358 2112 358 2240
Q 358 2547 685 2752
Q 986 2944 1421 2944
Q 1939 2944 2176 2656
Q 2291 2522 2323 2384
Q 2355 2246 2355 1946
L 2355 723
Q 2355 301 2554 301
Q 2682 301 2829 422
z
M 1837 813
L 1837 1715
Q 1248 1510 1018 1293
Q 800 1094 800 800
Q 800 557 921 432
Q 1043 307 1242 307
Q 1453 307 1613 410
Q 1747 506 1792 589
Q 1837 672 1837 813
z
" transform="scale(0.015625)"/>
      <path id="STIXGeneral-Regular-6e" d="M 3104 0
L 1773 0
L 1779 96
Q 2016 115 2096 233
Q 2176 352 2176 672
L 2176 1946
Q 2176 2592 1709 2592
Q 1549 2592 1408 2515
Q 1267 2438 1050 2227
L 1050 461
Q 1050 269 1136 192
Q 1222 115 1466 96
L 1466 0
L 115 0
L 115 96
Q 358 115 435 214
Q 512 314 512 602
L 512 2157
Q 512 2394 467 2483
Q 422 2573 288 2573
Q 160 2573 102 2547
L 102 2656
Q 550 2784 979 2944
L 1030 2925
L 1030 2426
L 1037 2426
Q 1491 2944 1958 2944
Q 2323 2944 2518 2688
Q 2714 2432 2714 1958
L 2714 544
Q 2714 288 2790 205
Q 2867 122 3104 96
L 3104 0
z
" transform="scale(0.015625)"/>
      <path id="STIXGeneral-Regular-3d" d="M 4077 2048
L 307 2048
L 307 2470
L 4077 2470
L 4077 2048
z
M 4077 768
L 307 768
L 307 1190
L 4077 1190
L 4077 768
z
" transform="scale(0.015625)"/>
      <path id="STIXGeneral-Italic-3b4" d="M 2944 3866
Q 2944 3744 2883 3651
Q 2822 3558 2694 3558
Q 2579 3558 2508 3606
Q 2438 3654 2403 3721
Q 2368 3789 2323 3856
Q 2278 3923 2179 3971
Q 2080 4019 1920 4019
Q 1715 4019 1516 3916
Q 1318 3814 1318 3648
Q 1318 3482 1484 3328
Q 1651 3174 1942 2985
Q 2234 2797 2381 2656
Q 2605 2445 2701 2249
Q 2797 2054 2797 1709
Q 2797 1037 2313 483
Q 1830 -70 1101 -70
Q 646 -70 400 166
Q 154 403 154 838
Q 154 1453 640 1981
Q 1126 2509 1741 2566
Q 1690 2618 1526 2771
Q 1363 2925 1299 2998
Q 1235 3072 1164 3203
Q 1094 3334 1094 3456
Q 1094 3744 1286 3939
Q 1478 4134 1712 4204
Q 1946 4275 2176 4275
Q 2458 4275 2701 4169
Q 2944 4064 2944 3866
z
M 2278 1702
Q 2278 2086 2156 2259
Q 2035 2432 1850 2432
Q 1427 2432 1059 1869
Q 691 1306 691 646
Q 691 384 828 224
Q 966 64 1190 64
Q 1466 64 1728 371
Q 1990 678 2134 1056
Q 2278 1434 2278 1702
z
" transform="scale(0.015625)"/>
      <path id="STIXGeneral-Regular-221a" d="M 6163 6227
L 3104 -1658
L 2899 -1658
L 1606 1734
Q 1466 2112 1210 2112
Q 1011 2112 794 1914
L 717 2042
L 1715 2835
L 1837 2835
L 3142 -595
L 3168 -595
L 5818 6227
L 6163 6227
z
" transform="scale(0.015625)"/>
      <path id="STIXGeneral-Italic-6e" d="M 2944 749
L 3034 666
Q 2707 218 2534 80
Q 2362 -58 2138 -58
Q 2010 -58 1923 28
Q 1837 115 1837 288
Q 1837 390 1939 768
L 2221 1805
Q 2310 2150 2310 2310
Q 2310 2496 2157 2496
Q 1971 2496 1750 2275
Q 1530 2054 1210 1587
Q 998 1274 899 1024
Q 800 774 570 0
L 90 0
L 704 2240
Q 717 2304 717 2349
Q 717 2445 630 2480
Q 544 2515 301 2522
L 301 2624
Q 550 2675 857 2729
Q 1165 2784 1338 2822
L 1363 2810
L 934 1414
Q 1408 2170 1753 2496
Q 2099 2822 2413 2822
Q 2611 2822 2720 2716
Q 2829 2611 2829 2432
Q 2829 2272 2765 2048
L 2406 749
Q 2317 429 2317 358
Q 2317 243 2419 243
Q 2541 243 2810 582
Q 2854 634 2944 749
z
" transform="scale(0.015625)"/>
      <path id="STIXGeneral-Italic-3c3" d="M 3398 2739
L 3283 2266
L 2195 2266
Q 2291 2112 2457 1981
Q 2624 1850 2717 1725
Q 2810 1600 2810 1389
Q 2810 851 2288 390
Q 1766 -70 1107 -70
Q 659 -70 416 170
Q 173 410 173 832
Q 173 1274 409 1706
Q 646 2138 1113 2438
Q 1581 2739 2157 2739
L 3398 2739
z
M 2272 1414
Q 2272 1709 2166 1939
Q 2061 2170 1901 2266
Q 1530 2266 1120 1770
Q 710 1274 710 640
Q 710 358 844 211
Q 979 64 1210 64
Q 1638 64 1955 525
Q 2272 986 2272 1414
z
" transform="scale(0.015625)"/>
     </defs>
     <use xlink:href="#STIXGeneral-Regular-53" transform="translate(0 0.760938)"/>
     <use xlink:href="#STIXGeneral-Regular-4e" transform="translate(55.599991 0.760938)"/>
     <use xlink:href="#STIXGeneral-Regular-52" transform="translate(127.799973 0.760938)"/>
     <use xlink:href="#STIXGeneral-Regular-6d" transform="translate(196.043251 -12.467187) scale(0.7)"/>
     <use xlink:href="#STIXGeneral-Regular-65" transform="translate(250.503242 -12.467187) scale(0.7)"/>
     <use xlink:href="#STIXGeneral-Regular-61" transform="translate(281.583238 -12.467187) scale(0.7)"/>
     <use xlink:href="#STIXGeneral-Regular-6e" transform="translate(312.663234 -12.467187) scale(0.7)"/>
     <use xlink:href="#STIXGeneral-Regular-3d" transform="translate(366.512594 0.760938)"/>
     <use xlink:href="#STIXGeneral-Italic-3b4" transform="translate(449.452575 56.692188) scale(0.7)"/>
     <use xlink:href="#STIXGeneral-Regular-221a" transform="translate(481.652565 56.692188) scale(0.7)"/>
     <use xlink:href="#STIXGeneral-Italic-6e" transform="translate(555.362556 56.759375) scale(0.7)"/>
     <use xlink:href="#STIXGeneral-Italic-3c3" transform="translate(506.452575 -22.65) scale(0.7)"/>
     <path d="M 546.612556 120.25
L 546.612556 124.625
L 599.112545 124.625
L 599.112545 120.25
L 546.612556 120.25
z
"/>
     <path d="M 449.452575 13.557813
L 449.452575 19.807813
L 599.112545 19.807813
L 599.112545 13.557813
L 449.452575 13.557813
z
"/>
    </g>
   </g>
  </g>
 </g>
</svg>
