<?xml version="1.0" encoding="utf-8" standalone="no"?>
<!DOCTYPE svg PUBLIC "-//W3C//DTD SVG 1.1//EN"
  "http://www.w3.org/Graphics/SVG/1.1/DTD/svg11.dtd">
<svg xmlns:xlink="http://www.w3.org/1999/xlink" width="1091.52pt" height="123.12pt" viewBox="0 0 1091.52 123.12" xmlns="http://www.w3.org/2000/svg" version="1.1">
 <metadata>
  <rdf:RDF xmlns:dc="http://purl.org/dc/elements/1.1/" xmlns:cc="http://creativecommons.org/ns#" xmlns:rdf="http://www.w3.org/1999/02/22-rdf-syntax-ns#">
   <cc:Work>
    <dc:type rdf:resource="http://purl.org/dc/dcmitype/StillImage"/>
    <dc:date>2026-05-18T16:36:20.084267</dc:date>
    <dc:format>image/svg+xml</dc:format>
    <dc:creator>
     <cc:Agent>
      <dc:title>Matplotlib v3.7.3, https://matplotlib.org/</dc:title>
     </cc:Agent>
    </dc:creator>
   </cc:Work>
  </rdf:RDF>
 </metadata>
 <defs>
  <style type="text/css">*{stroke-linejoin: round; stroke-linecap: butt}</style>
 </defs>
 <g id="figure_1">
  <g id="patch_1">
   <path d="M 0 123.12
L 1091.52 123.12
L 1091.52 0
L 0 0
L 0 123.12
z
" style="fill: none; opacity: 0"/>
  </g>
  <g id="axes_1">
   <g id="text_1">
    <!-- $\mathrm{Consistency}=\frac{1}{|\mathcal{G}|}\sum_{(c_x,c_y)\in\mathcal{G}}\mathbf{1}[\widehat{y}_\theta(c_x,c_y)=y]$ -->
    <g style="fill: #111111" transform="translate(325.82 57.92) scale(0.28 -0.28)">
     <defs>
      <path id="STIXGeneral-Regular-43" d="M 3930 838
L 4051 723
Q 3482 -90 2304 -90
Q 1376 -90 794 480
Q 179 1082 179 2080
Q 179 3014 755 3661
Q 1357 4326 2310 4326
Q 2720 4326 3072 4230
Q 3475 4115 3514 4115
Q 3725 4115 3782 4326
L 3910 4326
L 3968 2874
L 3821 2874
Q 3718 3334 3488 3584
Q 3034 4070 2458 4070
Q 1747 4070 1334 3548
Q 922 3027 922 2182
Q 922 1152 1382 653
Q 1811 192 2522 192
Q 2944 192 3251 339
Q 3558 486 3930 838
z
" transform="scale(0.015625)"/>
      <path id="STIXGeneral-Regular-6f" d="M 3008 1478
Q 3008 806 2608 371
Q 2208 -64 1568 -64
Q 979 -64 582 368
Q 186 800 186 1459
Q 186 2125 582 2534
Q 979 2944 1626 2944
Q 2221 2944 2614 2537
Q 3008 2131 3008 1478
z
M 2432 1306
Q 2432 2035 2112 2445
Q 1856 2765 1504 2765
Q 1171 2765 966 2493
Q 762 2221 762 1747
Q 762 928 1101 435
Q 1318 115 1677 115
Q 2029 115 2230 432
Q 2432 749 2432 1306
z
" transform="scale(0.015625)"/>
      <path id="STIXGeneral-Regular-6e" d="M 3104 0
L 1773 0
L 1779 96
Q 2016 115 2096 233
Q 2176 352 2176 672
L 2176 1946
Q 2176 2592 1709 2592
Q 1549 2592 1408 2515
Q 1267 2438 1050 2227
L 1050 461
Q 1050 269 1136 192
Q 1222 115 1466 96
L 1466 0
L 115 0
L 115 96
Q 358 115 435 214
Q 512 314 512 602
L 512 2157
Q 512 2394 467 2483
Q 422 2573 288 2573
Q 160 2573 102 2547
L 102 2656
Q 550 2784 979 2944
L 1030 2925
L 1030 2426
L 1037 2426
Q 1491 2944 1958 2944
Q 2323 2944 2518 2688
Q 2714 2432 2714 1958
L 2714 544
Q 2714 288 2790 205
Q 2867 122 3104 96
L 3104 0
z
" transform="scale(0.015625)"/>
      <path id="STIXGeneral-Regular-73" d="M 998 1926
L 1664 1523
Q 1984 1331 2105 1164
Q 2227 998 2227 736
Q 2227 416 1961 176
Q 1696 -64 1331 -64
Q 1030 -64 864 -6
Q 691 51 570 51
Q 461 51 416 -26
L 333 -26
L 333 979
L 435 979
Q 538 512 730 294
Q 922 77 1248 77
Q 1485 77 1632 211
Q 1779 346 1779 550
Q 1779 845 1440 1030
L 1094 1222
Q 326 1651 326 2150
Q 326 2522 566 2730
Q 806 2938 1210 2938
Q 1491 2938 1638 2867
Q 1754 2816 1818 2816
Q 1862 2816 1920 2880
L 1990 2880
L 2022 2010
L 1926 2010
Q 1818 2445 1654 2621
Q 1491 2797 1203 2797
Q 986 2797 854 2688
Q 723 2579 723 2362
Q 723 2253 796 2128
Q 870 2003 998 1926
z
" transform="scale(0.015625)"/>
      <path id="STIXGeneral-Regular-69" d="M 1152 4045
Q 1152 3904 1056 3811
Q 960 3718 819 3718
Q 685 3718 592 3811
Q 499 3904 499 4045
Q 499 4179 595 4275
Q 691 4371 826 4371
Q 966 4371 1059 4275
Q 1152 4179 1152 4045
z
M 1619 0
L 102 0
L 102 96
Q 435 115 521 211
Q 608 307 608 666
L 608 2118
Q 608 2342 563 2432
Q 518 2522 397 2522
Q 243 2522 128 2490
L 128 2592
L 1120 2944
L 1146 2918
L 1146 672
Q 1146 314 1226 218
Q 1306 122 1619 96
L 1619 0
z
" transform="scale(0.015625)"/>
      <path id="STIXGeneral-Regular-74" d="M 1702 493
L 1786 422
Q 1478 -64 1011 -64
Q 448 -64 448 749
L 448 2675
L 109 2675
Q 83 2694 83 2720
Q 83 2771 192 2842
Q 435 2982 813 3526
Q 826 3546 874 3606
Q 922 3667 941 3706
Q 986 3706 986 3622
L 986 2880
L 1632 2880
L 1632 2675
L 986 2675
L 986 845
Q 986 538 1062 403
Q 1139 269 1318 269
Q 1510 269 1702 493
z
" transform="scale(0.015625)"/>
      <path id="STIXGeneral-Regular-65" d="M 2611 1050
L 2714 1005
Q 2330 -64 1376 -64
Q 813 -64 486 329
Q 160 723 160 1389
Q 160 2074 525 2509
Q 890 2944 1485 2944
Q 2061 2944 2374 2502
Q 2560 2246 2592 1773
L 621 1773
Q 646 1370 700 1158
Q 755 947 915 730
Q 1184 378 1626 378
Q 1939 378 2153 531
Q 2368 685 2611 1050
z
M 634 1978
L 1939 1978
Q 1882 2381 1750 2547
Q 1619 2714 1312 2714
Q 1043 2714 864 2525
Q 685 2336 634 1978
z
" transform="scale(0.015625)"/>
      <path id="STIXGeneral-Regular-63" d="M 2547 998
L 2637 941
Q 2362 403 2112 205
Q 1786 -64 1376 -64
Q 845 -64 502 336
Q 160 736 160 1357
Q 160 2170 698 2618
Q 1094 2944 1562 2944
Q 1965 2944 2256 2749
Q 2547 2554 2547 2285
Q 2547 2176 2457 2096
Q 2368 2016 2246 2016
Q 2022 2016 1939 2310
L 1901 2451
Q 1850 2630 1773 2694
Q 1696 2758 1523 2758
Q 1133 2758 893 2451
Q 653 2144 653 1645
Q 653 1094 928 745
Q 1203 397 1645 397
Q 1920 397 2118 528
Q 2317 659 2547 998
z
" transform="scale(0.015625)"/>
      <path id="STIXGeneral-Regular-79" d="M 3040 2880
L 3040 2784
Q 2925 2771 2854 2700
Q 2784 2630 2720 2458
L 1760 -160
Q 1510 -838 1257 -1116
Q 1005 -1395 640 -1395
Q 435 -1395 313 -1289
Q 192 -1184 192 -1024
Q 192 -902 272 -816
Q 352 -730 467 -730
Q 653 -730 800 -813
Q 883 -858 966 -858
Q 1101 -858 1286 -576
Q 1376 -448 1459 -211
Q 1542 26 1542 115
Q 1542 198 1274 762
L 429 2566
Q 346 2752 90 2790
L 90 2880
L 1402 2880
L 1402 2784
Q 1197 2778 1117 2739
Q 1037 2701 1037 2611
Q 1037 2541 1120 2349
L 1837 749
L 2458 2515
Q 2483 2573 2483 2630
Q 2483 2784 2189 2784
L 2189 2880
L 3040 2880
z
" transform="scale(0.015625)"/>
      <path id="STIXGeneral-Regular-3d" d="M 4077 2048
L 307 2048
L 307 2470
L 4077 2470
L 4077 2048
z
M 4077 768
L 307 768
L 307 1190
L 4077 1190
L 4077 768
z
" transform="scale(0.015625)"/>
      <path id="STIXGeneral-Regular-31" d="M 2522 0
L 755 0
L 755 96
Q 1107 115 1235 227
Q 1363 339 1363 608
L 1363 3482
Q 1363 3795 1171 3795
Q 1082 3795 883 3718
L 710 3654
L 710 3744
L 1856 4326
L 1914 4307
L 1914 486
Q 1914 275 2042 185
Q 2170 96 2522 96
L 2522 0
z
" transform="scale(0.015625)"/>
      <path id="STIXGeneral-Regular-7c" d="M 851 -90
L 429 -90
L 429 4326
L 851 4326
L 851 -90
z
" transform="scale(0.015625)"/>
      <path id="STIXNonUnicode-Italic-e233" d="M 2720 582
L 2688 595
Q 2246 243 1626 243
Q 1056 243 656 579
Q 256 915 256 1549
Q 256 2272 665 2915
Q 1075 3558 1699 3926
Q 2323 4294 2950 4294
Q 3296 4294 3504 4134
Q 3712 3974 3712 3693
Q 3712 3520 3561 3341
Q 3411 3162 3213 3162
Q 3072 3162 2973 3258
Q 2874 3354 2874 3482
Q 2874 3590 2925 3660
Q 2976 3731 3033 3760
Q 3091 3789 3142 3824
Q 3194 3859 3194 3904
Q 3194 3981 3101 4025
Q 3008 4070 2886 4070
Q 2381 4070 1913 3702
Q 1446 3334 1171 2707
Q 941 2182 941 1517
Q 941 1011 1171 764
Q 1402 518 1773 518
Q 2349 518 2829 928
Q 3309 1338 3424 2003
L 3571 2029
Q 3584 1965 3584 1811
Q 3584 1216 3305 547
Q 3027 -122 2541 -474
Q 2035 -838 1350 -838
Q 678 -838 365 -493
L 461 -371
Q 563 -486 816 -550
Q 1069 -614 1299 -614
Q 1734 -614 2134 -256
Q 2534 102 2720 582
z
" transform="scale(0.015625)"/>
      <path id="STIXGeneral-Regular-2211" d="M 5478 256
L 5139 -1658
L 371 -1658
L 2880 1606
L 531 4883
L 5312 4883
L 5312 3277
L 5120 3277
Q 5018 3949 4765 4205
Q 4512 4461 3891 4461
L 1843 4461
L 3699 1958
L 1549 -819
L 4198 -819
Q 4698 -819 4934 -550
Q 5171 -282 5286 256
L 5478 256
z
" transform="scale(0.015625)"/>
      <path id="STIXGeneral-Regular-28" d="M 1946 -1030
L 1869 -1133
Q 1126 -710 716 32
Q 307 774 307 1613
Q 307 3386 1888 4326
L 1946 4224
Q 1293 3667 1075 3126
Q 858 2586 858 1632
Q 858 685 1082 96
Q 1306 -493 1946 -1030
z
" transform="scale(0.015625)"/>
      <path id="STIXGeneral-Italic-63" d="M 2240 685
L 2342 621
Q 2048 250 1769 90
Q 1491 -70 1133 -70
Q 678 -70 435 179
Q 192 429 192 915
Q 192 1344 409 1744
Q 627 2144 979 2432
Q 1472 2822 2048 2822
Q 2342 2822 2531 2675
Q 2720 2528 2720 2304
Q 2720 2176 2630 2086
Q 2541 1997 2413 1997
Q 2285 1997 2224 2070
Q 2163 2144 2163 2253
Q 2163 2310 2211 2403
Q 2259 2496 2259 2560
Q 2259 2688 2022 2688
Q 1619 2688 1325 2381
Q 742 1766 742 890
Q 742 544 889 352
Q 1037 160 1312 160
Q 1562 160 1766 281
Q 1971 403 2240 685
z
" transform="scale(0.015625)"/>
      <path id="STIXGeneral-Italic-78" d="M 1555 2272
L 1632 1907
Q 1971 2426 2179 2624
Q 2387 2822 2598 2822
Q 2714 2822 2787 2755
Q 2861 2688 2861 2585
Q 2861 2483 2800 2419
Q 2739 2355 2643 2355
Q 2586 2355 2490 2409
Q 2394 2464 2310 2464
Q 2125 2464 1683 1690
Q 1683 1606 1734 1402
L 1939 544
Q 2003 282 2131 282
Q 2234 282 2432 538
Q 2451 563 2476 598
Q 2502 634 2521 662
Q 2541 691 2566 717
L 2662 659
Q 2387 230 2227 80
Q 2067 -70 1882 -70
Q 1728 -70 1645 26
Q 1562 122 1504 365
L 1318 1126
L 755 365
Q 557 96 432 13
Q 307 -70 147 -70
Q 0 -70 -86 0
Q -173 70 -173 198
Q -173 294 -112 361
Q -51 429 45 429
Q 122 429 250 358
Q 346 301 416 301
Q 525 301 742 614
L 1267 1357
L 1088 2150
Q 1024 2432 969 2509
Q 915 2586 794 2586
Q 717 2586 544 2541
L 429 2509
L 410 2611
L 480 2637
Q 992 2822 1229 2822
Q 1350 2822 1420 2707
Q 1491 2592 1555 2272
z
" transform="scale(0.015625)"/>
      <path id="STIXGeneral-Regular-2c" d="M 531 -902
L 467 -781
Q 998 -422 998 -96
Q 998 -13 909 -13
Q 883 -13 822 -25
Q 762 -38 723 -38
Q 352 -38 352 288
Q 352 454 457 553
Q 563 653 736 653
Q 954 653 1101 496
Q 1248 339 1248 96
Q 1248 -198 1053 -473
Q 858 -749 531 -902
z
" transform="scale(0.015625)"/>
      <path id="STIXGeneral-Italic-79" d="M 1555 1190
L 1690 486
Q 2118 1190 2294 1558
Q 2470 1926 2470 2131
Q 2470 2234 2304 2336
Q 2138 2445 2138 2586
Q 2138 2688 2211 2755
Q 2285 2822 2394 2822
Q 2534 2822 2630 2720
Q 2726 2618 2726 2470
Q 2726 1914 1888 518
Q 1389 -307 918 -812
Q 448 -1318 173 -1318
Q 26 -1318 -64 -1241
Q -154 -1165 -154 -1043
Q -154 -934 -80 -860
Q -6 -787 96 -787
Q 218 -787 314 -876
Q 410 -966 486 -966
Q 602 -966 794 -755
Q 877 -672 1040 -457
Q 1203 -243 1248 -173
Q 1312 -45 1312 51
Q 1312 243 1113 1046
Q 915 1850 787 2176
Q 698 2413 592 2499
Q 486 2586 294 2586
Q 192 2586 96 2560
L 96 2669
Q 237 2694 301 2707
Q 563 2758 986 2822
L 1011 2822
Q 1082 2822 1277 2227
Q 1472 1632 1555 1190
z
" transform="scale(0.015625)"/>
      <path id="STIXGeneral-Regular-29" d="M 186 4224
L 262 4326
Q 992 3891 1408 3148
Q 1824 2406 1824 1581
Q 1824 -166 243 -1133
L 186 -1030
Q 845 -486 1059 54
Q 1274 595 1274 1562
Q 1274 2534 1059 3120
Q 845 3706 186 4224
z
" transform="scale(0.015625)"/>
      <path id="STIXGeneral-Regular-2208" d="M 4000 -173
L 2138 -173
Q 1382 -173 883 355
Q 384 883 384 1612
Q 384 2342 877 2870
Q 1370 3398 2118 3398
L 4000 3398
L 4000 2976
L 2144 2976
Q 1664 2976 1286 2633
Q 909 2291 826 1824
L 4000 1824
L 4000 1402
L 819 1402
Q 902 934 1280 592
Q 1658 250 2138 250
L 4000 250
L 4000 -173
z
" transform="scale(0.015625)"/>
      <path id="STIXGeneral-Bold-31" d="M 2822 0
L 435 0
L 435 154
Q 909 160 1049 285
Q 1190 410 1190 826
L 1190 3245
Q 1190 3693 960 3693
Q 806 3693 544 3590
L 416 3539
L 416 3706
L 2022 4403
L 2138 4403
L 2138 755
Q 2138 390 2262 275
Q 2387 160 2822 154
L 2822 0
z
" transform="scale(0.015625)"/>
      <path id="STIXGeneral-Regular-5b" d="M 1914 -998
L 563 -998
L 563 4237
L 1914 4237
L 1914 4077
L 1382 4077
Q 1216 4077 1133 4006
Q 1050 3936 1050 3770
L 1050 -493
Q 1050 -838 1382 -838
L 1914 -838
L 1914 -998
z
" transform="scale(0.015625)"/>
      <path id="STIXSizeOneSym-Regular-302" d="M -1024 3546
L -1434 3546
L -2816 4480
L -4198 3546
L -4608 3546
L -2970 4909
L -2662 4909
L -1024 3546
z
" transform="scale(0.015625)"/>
      <path id="STIXGeneral-Italic-3b8" d="M 3162 3270
Q 3162 2534 2925 1862
Q 2688 1190 2304 678
Q 1741 -70 992 -70
Q 608 -70 390 224
Q 173 518 173 1030
Q 173 1997 592 2813
Q 1011 3629 1594 4070
Q 1952 4339 2374 4339
Q 2733 4339 2947 4076
Q 3162 3814 3162 3270
z
M 941 2221
L 2432 2221
Q 2624 2874 2624 3533
Q 2624 4205 2285 4205
Q 2029 4205 1728 3814
Q 1427 3424 1232 2992
Q 1037 2560 941 2221
z
M 2387 2016
L 896 2016
Q 710 1530 710 960
Q 710 64 1069 64
Q 1286 64 1510 275
Q 1734 486 1904 806
Q 2074 1126 2198 1440
Q 2323 1754 2387 2016
z
" transform="scale(0.015625)"/>
      <path id="STIXGeneral-Regular-5d" d="M 1568 -998
L 218 -998
L 218 -838
L 781 -838
Q 947 -838 1014 -768
Q 1082 -698 1082 -544
L 1082 3731
Q 1082 4077 755 4077
L 218 4077
L 218 4237
L 1568 4237
L 1568 -998
z
" transform="scale(0.015625)"/>
     </defs>
     <use xlink:href="#STIXGeneral-Regular-43" transform="translate(0 0.8875)"/>
     <use xlink:href="#STIXGeneral-Regular-6f" transform="translate(66.699997 0.8875)"/>
     <use xlink:href="#STIXGeneral-Regular-6e" transform="translate(116.699982 0.8875)"/>
     <use xlink:href="#STIXGeneral-Regular-73" transform="translate(166.699966 0.8875)"/>
     <use xlink:href="#STIXGeneral-Regular-69" transform="translate(205.59996 0.8875)"/>
     <use xlink:href="#STIXGeneral-Regular-73" transform="translate(233.399948 0.8875)"/>
     <use xlink:href="#STIXGeneral-Regular-74" transform="translate(272.299942 0.8875)"/>
     <use xlink:href="#STIXGeneral-Regular-65" transform="translate(300.09993 0.8875)"/>
     <use xlink:href="#STIXGeneral-Regular-6e" transform="translate(344.499924 0.8875)"/>
     <use xlink:href="#STIXGeneral-Regular-63" transform="translate(394.499908 0.8875)"/>
     <use xlink:href="#STIXGeneral-Regular-79" transform="translate(438.899902 0.8875)"/>
     <use xlink:href="#STIXGeneral-Regular-3d" transform="translate(503.339883 0.8875)"/>
     <use xlink:href="#STIXGeneral-Regular-31" transform="translate(603.279865 38.684375) scale(0.7)"/>
     <use xlink:href="#STIXGeneral-Regular-7c" transform="translate(586.279865 -39.88125) scale(0.7)"/>
     <use xlink:href="#STIXNonUnicode-Italic-e233" transform="translate(600.279854 -39.88125) scale(0.7)"/>
     <use xlink:href="#STIXGeneral-Regular-7c" transform="translate(640.879843 -39.88125) scale(0.7)"/>
     <use xlink:href="#STIXGeneral-Regular-2211" transform="translate(775.379832 0.8875)"/>
     <use xlink:href="#STIXGeneral-Regular-28" transform="translate(667.379832 -91.084375) scale(0.7)"/>
     <use xlink:href="#STIXGeneral-Italic-63" transform="translate(690.689824 -91.084375) scale(0.7)"/>
     <use xlink:href="#STIXGeneral-Italic-78" transform="translate(721.76982 -100.344062) scale(0.49)"/>
     <use xlink:href="#STIXGeneral-Regular-2c" transform="translate(746.612379 -91.084375) scale(0.7)"/>
     <use xlink:href="#STIXGeneral-Italic-63" transform="translate(774.220366 -91.084375) scale(0.7)"/>
     <use xlink:href="#STIXGeneral-Italic-79" transform="translate(805.300362 -100.344062) scale(0.49)"/>
     <use xlink:href="#STIXGeneral-Regular-29" transform="translate(830.142921 -91.084375) scale(0.7)"/>
     <use xlink:href="#STIXGeneral-Regular-2208" transform="translate(863.56091 -91.084375) scale(0.7)"/>
     <use xlink:href="#STIXNonUnicode-Italic-e233" transform="translate(921.618897 -91.084375) scale(0.7)"/>
     <use xlink:href="#STIXGeneral-Bold-31" transform="translate(962.218886 0.8875)"/>
     <use xlink:href="#STIXGeneral-Regular-5b" transform="translate(1012.218871 0.8875)"/>
     <use xlink:href="#STIXSizeOneSym-Regular-302" transform="translate(1107.681357 13.715625) scale(0.792857)"/>
     <use xlink:href="#STIXGeneral-Italic-79" transform="translate(1045.518859 0.8875)"/>
     <use xlink:href="#STIXGeneral-Italic-3b8" transform="translate(1091.462134 -12.340625) scale(0.7)"/>
     <use xlink:href="#STIXGeneral-Regular-28" transform="translate(1129.471498 0.8875)"/>
     <use xlink:href="#STIXGeneral-Italic-63" transform="translate(1162.771486 0.8875)"/>
     <use xlink:href="#STIXGeneral-Italic-78" transform="translate(1207.17148 -12.340625) scale(0.7)"/>
     <use xlink:href="#STIXGeneral-Regular-2c" transform="translate(1242.660851 0.8875)"/>
     <use xlink:href="#STIXGeneral-Italic-63" transform="translate(1282.100832 0.8875)"/>
     <use xlink:href="#STIXGeneral-Italic-79" transform="translate(1326.500826 -12.340625) scale(0.7)"/>
     <use xlink:href="#STIXGeneral-Regular-29" transform="translate(1361.990196 0.8875)"/>
     <use xlink:href="#STIXGeneral-Regular-3d" transform="translate(1409.73018 0.8875)"/>
     <use xlink:href="#STIXGeneral-Italic-79" transform="translate(1492.670161 0.8875)"/>
     <use xlink:href="#STIXGeneral-Regular-5d" transform="translate(1537.070155 0.8875)"/>
     <path d="M 586.279865 13.684375
L 586.279865 19.934375
L 654.879832 19.934375
L 654.879832 13.684375
L 586.279865 13.684375
z
"/>
    </g>
   </g>
  </g>
 </g>
</svg>
