<?xml version="1.0" encoding="utf-8" standalone="no"?>
<!DOCTYPE svg PUBLIC "-//W3C//DTD SVG 1.1//EN"
  "http://www.w3.org/Graphics/SVG/1.1/DTD/svg11.dtd">
<svg xmlns:xlink="http://www.w3.org/1999/xlink" width="803.52pt" height="123.12pt" viewBox="0 0 803.52 123.12" xmlns="http://www.w3.org/2000/svg" version="1.1">
 <metadata>
  <rdf:RDF xmlns:dc="http://purl.org/dc/elements/1.1/" xmlns:cc="http://creativecommons.org/ns#" xmlns:rdf="http://www.w3.org/1999/02/22-rdf-syntax-ns#">
   <cc:Work>
    <dc:type rdf:resource="http://purl.org/dc/dcmitype/StillImage"/>
    <dc:date>2026-05-18T16:36:19.134101</dc:date>
    <dc:format>image/svg+xml</dc:format>
    <dc:creator>
     <cc:Agent>
      <dc:title>Matplotlib v3.7.3, https://matplotlib.org/</dc:title>
     </cc:Agent>
    </dc:creator>
   </cc:Work>
  </rdf:RDF>
 </metadata>
 <defs>
  <style type="text/css">*{stroke-linejoin: round; stroke-linecap: butt}</style>
 </defs>
 <g id="figure_1">
  <g id="patch_1">
   <path d="M 0 123.12
L 803.52 123.12
L 803.52 0
L 0 0
L 0 123.12
z
" style="fill: none; opacity: 0"/>
  </g>
  <g id="axes_1">
   <g id="text_1">
    <!-- $\widehat{R}_n(f)=\frac{1}{n}\sum_{i=1}^{n}\ell(f(x_i),y_i)$ -->
    <g style="fill: #111111" transform="translate(281.5 66.32) scale(0.28 -0.28)">
     <defs>
      <path id="STIXSizeTwoSym-Regular-302" d="M -1094 3610
L -1728 3610
L -4224 4538
L -6726 3610
L -7360 3610
L -4378 4973
L -4070 4973
L -1094 3610
z
" transform="scale(0.015625)"/>
      <path id="STIXGeneral-Italic-52" d="M 845 4179
L 2458 4179
Q 3078 4179 3420 3936
Q 3763 3693 3763 3277
Q 3763 2778 3341 2458
Q 3091 2266 2502 2131
L 3072 627
Q 3181 333 3299 217
Q 3418 102 3629 102
L 3629 0
L 2688 0
L 1901 2074
L 1478 2106
L 1126 806
Q 1043 512 1043 403
Q 1043 256 1126 192
Q 1210 128 1472 102
L 1472 0
L -83 0
L -83 102
Q 173 134 278 243
Q 384 352 461 646
L 1222 3405
Q 1299 3699 1299 3808
Q 1299 3923 1210 3987
Q 1133 4038 845 4077
L 845 4179
z
M 1958 3795
L 1555 2342
Q 1754 2310 1882 2310
Q 2451 2310 2771 2566
Q 3091 2822 3091 3270
Q 3091 3603 2892 3795
Q 2694 3987 2323 3987
Q 2010 3987 1958 3795
z
" transform="scale(0.015625)"/>
      <path id="STIXGeneral-Italic-6e" d="M 2944 749
L 3034 666
Q 2707 218 2534 80
Q 2362 -58 2138 -58
Q 2010 -58 1923 28
Q 1837 115 1837 288
Q 1837 390 1939 768
L 2221 1805
Q 2310 2150 2310 2310
Q 2310 2496 2157 2496
Q 1971 2496 1750 2275
Q 1530 2054 1210 1587
Q 998 1274 899 1024
Q 800 774 570 0
L 90 0
L 704 2240
Q 717 2304 717 2349
Q 717 2445 630 2480
Q 544 2515 301 2522
L 301 2624
Q 550 2675 857 2729
Q 1165 2784 1338 2822
L 1363 2810
L 934 1414
Q 1408 2170 1753 2496
Q 2099 2822 2413 2822
Q 2611 2822 2720 2716
Q 2829 2611 2829 2432
Q 2829 2272 2765 2048
L 2406 749
Q 2317 429 2317 358
Q 2317 243 2419 243
Q 2541 243 2810 582
Q 2854 634 2944 749
z
" transform="scale(0.015625)"/>
      <path id="STIXGeneral-Regular-28" d="M 1946 -1030
L 1869 -1133
Q 1126 -710 716 32
Q 307 774 307 1613
Q 307 3386 1888 4326
L 1946 4224
Q 1293 3667 1075 3126
Q 858 2586 858 1632
Q 858 685 1082 96
Q 1306 -493 1946 -1030
z
" transform="scale(0.015625)"/>
      <path id="STIXGeneral-Italic-66" d="M 262 2739
L 858 2739
Q 1107 3546 1318 3846
Q 1664 4339 2163 4339
Q 2400 4339 2557 4227
Q 2714 4115 2714 3942
Q 2714 3834 2634 3750
Q 2554 3667 2445 3667
Q 2355 3667 2281 3737
Q 2208 3808 2208 3917
Q 2208 3981 2240 4038
Q 2272 4096 2272 4115
Q 2272 4198 2131 4198
Q 1862 4198 1676 3849
Q 1491 3501 1350 2739
L 2035 2739
L 1997 2534
L 1306 2534
L 845 486
Q 435 -1325 -435 -1325
Q -653 -1325 -797 -1213
Q -941 -1101 -941 -934
Q -941 -826 -870 -746
Q -800 -666 -698 -666
Q -589 -666 -521 -733
Q -454 -800 -454 -902
Q -454 -947 -483 -1001
Q -512 -1056 -512 -1088
Q -512 -1190 -384 -1190
Q 13 -1190 237 -154
L 800 2534
L 218 2534
L 262 2739
z
" transform="scale(0.015625)"/>
      <path id="STIXGeneral-Regular-29" d="M 186 4224
L 262 4326
Q 992 3891 1408 3148
Q 1824 2406 1824 1581
Q 1824 -166 243 -1133
L 186 -1030
Q 845 -486 1059 54
Q 1274 595 1274 1562
Q 1274 2534 1059 3120
Q 845 3706 186 4224
z
" transform="scale(0.015625)"/>
      <path id="STIXGeneral-Regular-3d" d="M 4077 2048
L 307 2048
L 307 2470
L 4077 2470
L 4077 2048
z
M 4077 768
L 307 768
L 307 1190
L 4077 1190
L 4077 768
z
" transform="scale(0.015625)"/>
      <path id="STIXGeneral-Regular-31" d="M 2522 0
L 755 0
L 755 96
Q 1107 115 1235 227
Q 1363 339 1363 608
L 1363 3482
Q 1363 3795 1171 3795
Q 1082 3795 883 3718
L 710 3654
L 710 3744
L 1856 4326
L 1914 4307
L 1914 486
Q 1914 275 2042 185
Q 2170 96 2522 96
L 2522 0
z
" transform="scale(0.015625)"/>
      <path id="STIXGeneral-Regular-2211" d="M 5478 256
L 5139 -1658
L 371 -1658
L 2880 1606
L 531 4883
L 5312 4883
L 5312 3277
L 5120 3277
Q 5018 3949 4765 4205
Q 4512 4461 3891 4461
L 1843 4461
L 3699 1958
L 1549 -819
L 4198 -819
Q 4698 -819 4934 -550
Q 5171 -282 5286 256
L 5478 256
z
" transform="scale(0.015625)"/>
      <path id="STIXGeneral-Italic-69" d="M 1690 3834
Q 1690 3699 1597 3603
Q 1504 3507 1376 3507
Q 1235 3507 1152 3600
Q 1069 3693 1069 3846
Q 1069 3994 1155 4090
Q 1242 4186 1370 4186
Q 1498 4186 1594 4080
Q 1690 3974 1690 3834
z
M 1421 730
L 1504 659
Q 1235 243 1049 86
Q 864 -70 627 -70
Q 314 -70 314 282
Q 314 467 454 992
L 762 2125
Q 819 2330 819 2406
Q 819 2502 745 2528
Q 672 2554 410 2560
L 410 2662
Q 704 2688 1434 2822
L 1459 2803
L 858 608
Q 794 390 794 326
Q 794 230 883 230
Q 1043 230 1421 730
z
" transform="scale(0.015625)"/>
      <path id="STIXGeneral-Italic-2113" d="M 493 2490
L 582 2656
Q 813 2496 1184 2496
Q 1728 3296 2301 3846
Q 2874 4397 3245 4397
Q 3654 4397 3654 3968
Q 3654 3450 3036 2938
Q 2419 2426 1594 2304
Q 678 826 678 397
Q 678 122 909 122
Q 1120 122 1398 365
Q 1677 608 2182 1190
L 2317 1082
Q 1773 448 1462 189
Q 1152 -70 864 -70
Q 627 -70 467 74
Q 307 218 307 486
Q 307 1024 800 1882
Q 877 2022 1056 2304
Q 742 2317 493 2490
z
M 1715 2534
L 1722 2528
Q 2470 2694 2966 3113
Q 3462 3533 3462 3994
Q 3462 4192 3238 4192
Q 3002 4192 2714 3891
Q 2342 3514 1715 2534
z
" transform="scale(0.015625)"/>
      <path id="STIXGeneral-Italic-78" d="M 1555 2272
L 1632 1907
Q 1971 2426 2179 2624
Q 2387 2822 2598 2822
Q 2714 2822 2787 2755
Q 2861 2688 2861 2585
Q 2861 2483 2800 2419
Q 2739 2355 2643 2355
Q 2586 2355 2490 2409
Q 2394 2464 2310 2464
Q 2125 2464 1683 1690
Q 1683 1606 1734 1402
L 1939 544
Q 2003 282 2131 282
Q 2234 282 2432 538
Q 2451 563 2476 598
Q 2502 634 2521 662
Q 2541 691 2566 717
L 2662 659
Q 2387 230 2227 80
Q 2067 -70 1882 -70
Q 1728 -70 1645 26
Q 1562 122 1504 365
L 1318 1126
L 755 365
Q 557 96 432 13
Q 307 -70 147 -70
Q 0 -70 -86 0
Q -173 70 -173 198
Q -173 294 -112 361
Q -51 429 45 429
Q 122 429 250 358
Q 346 301 416 301
Q 525 301 742 614
L 1267 1357
L 1088 2150
Q 1024 2432 969 2509
Q 915 2586 794 2586
Q 717 2586 544 2541
L 429 2509
L 410 2611
L 480 2637
Q 992 2822 1229 2822
Q 1350 2822 1420 2707
Q 1491 2592 1555 2272
z
" transform="scale(0.015625)"/>
      <path id="STIXGeneral-Regular-2c" d="M 531 -902
L 467 -781
Q 998 -422 998 -96
Q 998 -13 909 -13
Q 883 -13 822 -25
Q 762 -38 723 -38
Q 352 -38 352 288
Q 352 454 457 553
Q 563 653 736 653
Q 954 653 1101 496
Q 1248 339 1248 96
Q 1248 -198 1053 -473
Q 858 -749 531 -902
z
" transform="scale(0.015625)"/>
      <path id="STIXGeneral-Italic-79" d="M 1555 1190
L 1690 486
Q 2118 1190 2294 1558
Q 2470 1926 2470 2131
Q 2470 2234 2304 2336
Q 2138 2445 2138 2586
Q 2138 2688 2211 2755
Q 2285 2822 2394 2822
Q 2534 2822 2630 2720
Q 2726 2618 2726 2470
Q 2726 1914 1888 518
Q 1389 -307 918 -812
Q 448 -1318 173 -1318
Q 26 -1318 -64 -1241
Q -154 -1165 -154 -1043
Q -154 -934 -80 -860
Q -6 -787 96 -787
Q 218 -787 314 -876
Q 410 -966 486 -966
Q 602 -966 794 -755
Q 877 -672 1040 -457
Q 1203 -243 1248 -173
Q 1312 -45 1312 51
Q 1312 243 1113 1046
Q 915 1850 787 2176
Q 698 2413 592 2499
Q 486 2586 294 2586
Q 192 2586 96 2560
L 96 2669
Q 237 2694 301 2707
Q 563 2758 986 2822
L 1011 2822
Q 1082 2822 1277 2227
Q 1472 1632 1555 1190
z
" transform="scale(0.015625)"/>
     </defs>
     <use xlink:href="#STIXSizeTwoSym-Regular-302" transform="translate(79.009373 43.28125) scale(0.624066)"/>
     <use xlink:href="#STIXGeneral-Italic-52" transform="translate(0 0.453125)"/>
     <use xlink:href="#STIXGeneral-Italic-6e" transform="translate(62.643272 -12.775) scale(0.7)"/>
     <use xlink:href="#STIXGeneral-Regular-28" transform="translate(102.052636 0.453125)"/>
     <use xlink:href="#STIXGeneral-Italic-66" transform="translate(135.352624 0.453125)"/>
     <use xlink:href="#STIXGeneral-Regular-29" transform="translate(163.152612 0.453125)"/>
     <use xlink:href="#STIXGeneral-Regular-3d" transform="translate(210.892596 0.453125)"/>
     <use xlink:href="#STIXGeneral-Regular-31" transform="translate(293.832577 38.25) scale(0.7)"/>
     <use xlink:href="#STIXGeneral-Italic-6e" transform="translate(293.832577 -23.865625) scale(0.7)"/>
     <use xlink:href="#STIXGeneral-Italic-6e" transform="translate(385.332567 96.134375) scale(0.7)"/>
     <use xlink:href="#STIXGeneral-Regular-2211" transform="translate(362.332567 0.453125)"/>
     <use xlink:href="#STIXGeneral-Italic-69" transform="translate(341.332567 -91.51875) scale(0.7)"/>
     <use xlink:href="#STIXGeneral-Regular-3d" transform="translate(370.900555 -91.51875) scale(0.7)"/>
     <use xlink:href="#STIXGeneral-Regular-31" transform="translate(428.958542 -91.51875) scale(0.7)"/>
     <use xlink:href="#STIXGeneral-Italic-2113" transform="translate(463.958531 0.453125)"/>
     <use xlink:href="#STIXGeneral-Regular-28" transform="translate(521.858525 0.453125)"/>
     <use xlink:href="#STIXGeneral-Italic-66" transform="translate(555.158513 0.453125)"/>
     <use xlink:href="#STIXGeneral-Regular-28" transform="translate(582.958501 0.453125)"/>
     <use xlink:href="#STIXGeneral-Italic-78" transform="translate(616.258489 0.453125)"/>
     <use xlink:href="#STIXGeneral-Italic-69" transform="translate(660.658483 -12.775) scale(0.7)"/>
     <use xlink:href="#STIXGeneral-Regular-29" transform="translate(684.527849 0.453125)"/>
     <use xlink:href="#STIXGeneral-Regular-2c" transform="translate(717.827837 0.453125)"/>
     <use xlink:href="#STIXGeneral-Italic-79" transform="translate(757.267818 0.453125)"/>
     <use xlink:href="#STIXGeneral-Italic-69" transform="translate(801.667812 -12.775) scale(0.7)"/>
     <use xlink:href="#STIXGeneral-Regular-29" transform="translate(825.537178 0.453125)"/>
     <path d="M 293.832577 13.25
L 293.832577 19.5
L 328.832567 19.5
L 328.832567 13.25
L 293.832577 13.25
z
"/>
    </g>
   </g>
  </g>
 </g>
</svg>
