<?xml version="1.0" encoding="utf-8" standalone="no"?>
<!DOCTYPE svg PUBLIC "-//W3C//DTD SVG 1.1//EN"
  "http://www.w3.org/Graphics/SVG/1.1/DTD/svg11.dtd">
<svg xmlns:xlink="http://www.w3.org/1999/xlink" width="803.52pt" height="123.12pt" viewBox="0 0 803.52 123.12" xmlns="http://www.w3.org/2000/svg" version="1.1">
 <metadata>
  <rdf:RDF xmlns:dc="http://purl.org/dc/elements/1.1/" xmlns:cc="http://creativecommons.org/ns#" xmlns:rdf="http://www.w3.org/1999/02/22-rdf-syntax-ns#">
   <cc:Work>
    <dc:type rdf:resource="http://purl.org/dc/dcmitype/StillImage"/>
    <dc:date>2026-05-18T16:36:19.444190</dc:date>
    <dc:format>image/svg+xml</dc:format>
    <dc:creator>
     <cc:Agent>
      <dc:title>Matplotlib v3.7.3, https://matplotlib.org/</dc:title>
     </cc:Agent>
    </dc:creator>
   </cc:Work>
  </rdf:RDF>
 </metadata>
 <defs>
  <style type="text/css">*{stroke-linejoin: round; stroke-linecap: butt}</style>
 </defs>
 <g id="figure_1">
  <g id="patch_1">
   <path d="M 0 123.12
L 803.52 123.12
L 803.52 0
L 0 0
L 0 123.12
z
" style="fill: none; opacity: 0"/>
  </g>
  <g id="axes_1">
   <g id="text_1">
    <!-- $X=R(Y,A,N,\varepsilon)$ -->
    <g style="fill: #111111" transform="translate(313.14 68.083125) scale(0.28 -0.28)">
     <defs>
      <path id="STIXGeneral-Italic-58" d="M 4192 4179
L 4192 4077
Q 3981 4006 3805 3875
Q 3629 3744 3392 3469
L 2310 2227
L 2957 595
Q 3072 307 3187 224
Q 3302 141 3629 102
L 3629 0
L 1894 0
L 1894 102
Q 2170 109 2278 163
Q 2387 218 2387 339
Q 2387 442 2298 666
L 1869 1722
L 902 621
Q 755 454 755 314
Q 755 102 1178 102
L 1178 0
L -186 0
L -186 102
Q 70 147 300 361
Q 531 576 1222 1382
L 1754 2003
L 1094 3635
Q 998 3872 880 3961
Q 762 4051 486 4077
L 486 4179
L 2170 4179
L 2170 4077
Q 1907 4045 1811 3990
Q 1715 3936 1715 3814
Q 1715 3706 1818 3456
L 2195 2515
L 3123 3584
Q 3258 3738 3258 3859
Q 3258 4058 2867 4077
L 2867 4179
L 4192 4179
z
" transform="scale(0.015625)"/>
      <path id="STIXGeneral-Regular-3d" d="M 4077 2048
L 307 2048
L 307 2470
L 4077 2470
L 4077 2048
z
M 4077 768
L 307 768
L 307 1190
L 4077 1190
L 4077 768
z
" transform="scale(0.015625)"/>
      <path id="STIXGeneral-Italic-52" d="M 845 4179
L 2458 4179
Q 3078 4179 3420 3936
Q 3763 3693 3763 3277
Q 3763 2778 3341 2458
Q 3091 2266 2502 2131
L 3072 627
Q 3181 333 3299 217
Q 3418 102 3629 102
L 3629 0
L 2688 0
L 1901 2074
L 1478 2106
L 1126 806
Q 1043 512 1043 403
Q 1043 256 1126 192
Q 1210 128 1472 102
L 1472 0
L -83 0
L -83 102
Q 173 134 278 243
Q 384 352 461 646
L 1222 3405
Q 1299 3699 1299 3808
Q 1299 3923 1210 3987
Q 1133 4038 845 4077
L 845 4179
z
M 1958 3795
L 1555 2342
Q 1754 2310 1882 2310
Q 2451 2310 2771 2566
Q 3091 2822 3091 3270
Q 3091 3603 2892 3795
Q 2694 3987 2323 3987
Q 2010 3987 1958 3795
z
" transform="scale(0.015625)"/>
      <path id="STIXGeneral-Regular-28" d="M 1946 -1030
L 1869 -1133
Q 1126 -710 716 32
Q 307 774 307 1613
Q 307 3386 1888 4326
L 1946 4224
Q 1293 3667 1075 3126
Q 858 2586 858 1632
Q 858 685 1082 96
Q 1306 -493 1946 -1030
z
" transform="scale(0.015625)"/>
      <path id="STIXGeneral-Italic-59" d="M 4051 4179
L 4051 4077
Q 3917 4032 3846 3965
Q 3776 3898 3603 3686
L 2202 1958
L 1971 1171
Q 1779 512 1779 358
Q 1779 237 1852 185
Q 1926 134 2118 122
L 2349 102
L 2349 0
L 499 0
L 499 102
Q 826 122 963 221
Q 1101 320 1184 621
L 1562 1933
L 1075 3642
Q 1005 3898 925 3968
Q 845 4038 582 4077
L 582 4179
L 2112 4179
L 2112 4077
Q 1830 4051 1740 4003
Q 1651 3955 1651 3846
Q 1651 3738 1882 2925
L 2080 2221
L 2330 2515
Q 3283 3642 3283 3878
Q 3283 4032 3027 4058
L 2842 4077
L 2842 4179
L 4051 4179
z
" transform="scale(0.015625)"/>
      <path id="STIXGeneral-Regular-2c" d="M 531 -902
L 467 -781
Q 998 -422 998 -96
Q 998 -13 909 -13
Q 883 -13 822 -25
Q 762 -38 723 -38
Q 352 -38 352 288
Q 352 454 457 553
Q 563 653 736 653
Q 954 653 1101 496
Q 1248 339 1248 96
Q 1248 -198 1053 -473
Q 858 -749 531 -902
z
" transform="scale(0.015625)"/>
      <path id="STIXGeneral-Italic-41" d="M 3610 0
L 2042 0
L 2042 102
Q 2330 115 2432 192
Q 2534 269 2534 442
Q 2534 493 2522 608
L 2394 1446
L 986 1446
L 608 736
Q 467 474 467 314
Q 467 122 864 102
L 864 0
L -326 0
L -326 102
Q -109 147 28 307
Q 166 467 531 1101
L 2355 4275
L 2522 4275
L 3110 736
Q 3174 339 3264 230
Q 3354 122 3610 102
L 3610 0
z
M 2362 1677
L 2074 3360
L 1120 1677
L 2362 1677
z
" transform="scale(0.015625)"/>
      <path id="STIXGeneral-Italic-4e" d="M 4653 4179
L 4653 4077
Q 4480 4038 4413 4016
Q 4346 3994 4266 3882
Q 4186 3770 4144 3635
Q 4102 3501 4000 3149
L 3066 -96
L 2950 -96
L 1478 3424
L 749 723
Q 691 525 691 378
Q 691 243 790 182
Q 890 122 1139 102
L 1139 0
L -128 0
L -128 102
Q 147 141 262 304
Q 378 467 550 1075
L 1299 3731
Q 1152 4077 749 4077
L 749 4179
L 1773 4179
L 3098 986
L 3776 3469
Q 3827 3648 3827 3750
Q 3827 3923 3740 3987
Q 3654 4051 3386 4077
L 3386 4179
L 4653 4179
z
" transform="scale(0.015625)"/>
      <path id="STIXGeneral-Italic-3b5" d="M 2304 627
L 2406 563
Q 1907 -70 1133 -70
Q 192 -70 192 640
Q 192 928 403 1158
Q 614 1389 934 1472
Q 774 1498 684 1616
Q 595 1734 595 1882
Q 602 2266 995 2544
Q 1389 2822 2029 2822
Q 2336 2822 2528 2672
Q 2720 2522 2720 2291
Q 2720 2163 2617 2080
Q 2515 1997 2413 1997
Q 2298 1997 2230 2067
Q 2163 2138 2163 2253
Q 2163 2317 2211 2409
Q 2259 2502 2259 2560
Q 2259 2688 2022 2688
Q 1683 2688 1401 2496
Q 1120 2304 1120 1907
Q 1120 1741 1251 1654
Q 1382 1568 1594 1568
Q 1613 1568 1728 1590
Q 1843 1613 1932 1613
Q 2022 1613 2086 1574
Q 2150 1536 2150 1478
Q 2150 1306 1862 1306
Q 1805 1306 1721 1334
Q 1638 1363 1568 1363
Q 1286 1363 1014 1184
Q 742 1005 742 678
Q 742 410 908 285
Q 1075 160 1312 160
Q 1869 160 2304 627
z
" transform="scale(0.015625)"/>
      <path id="STIXGeneral-Regular-29" d="M 186 4224
L 262 4326
Q 992 3891 1408 3148
Q 1824 2406 1824 1581
Q 1824 -166 243 -1133
L 186 -1030
Q 845 -486 1059 54
Q 1274 595 1274 1562
Q 1274 2534 1059 3120
Q 845 3706 186 4224
z
" transform="scale(0.015625)"/>
     </defs>
     <use xlink:href="#STIXGeneral-Italic-58" transform="translate(0 0.40625)"/>
     <use xlink:href="#STIXGeneral-Regular-3d" transform="translate(75.539987 0.40625)"/>
     <use xlink:href="#STIXGeneral-Italic-52" transform="translate(158.479968 0.40625)"/>
     <use xlink:href="#STIXGeneral-Regular-28" transform="translate(219.579959 0.40625)"/>
     <use xlink:href="#STIXGeneral-Italic-59" transform="translate(252.879947 0.40625)"/>
     <use xlink:href="#STIXGeneral-Regular-2c" transform="translate(308.479938 0.40625)"/>
     <use xlink:href="#STIXGeneral-Italic-41" transform="translate(347.919919 0.40625)"/>
     <use xlink:href="#STIXGeneral-Regular-2c" transform="translate(409.01991 0.40625)"/>
     <use xlink:href="#STIXGeneral-Italic-4e" transform="translate(448.459891 0.40625)"/>
     <use xlink:href="#STIXGeneral-Regular-2c" transform="translate(515.159888 0.40625)"/>
     <use xlink:href="#STIXGeneral-Italic-3b5" transform="translate(554.599869 0.40625)"/>
     <use xlink:href="#STIXGeneral-Regular-29" transform="translate(598.999863 0.40625)"/>
    </g>
   </g>
  </g>
 </g>
</svg>
