<?xml version="1.0" encoding="utf-8" standalone="no"?>
<!DOCTYPE svg PUBLIC "-//W3C//DTD SVG 1.1//EN"
  "http://www.w3.org/Graphics/SVG/1.1/DTD/svg11.dtd">
<svg xmlns:xlink="http://www.w3.org/1999/xlink" width="803.52pt" height="123.12pt" viewBox="0 0 803.52 123.12" xmlns="http://www.w3.org/2000/svg" version="1.1">
 <metadata>
  <rdf:RDF xmlns:dc="http://purl.org/dc/elements/1.1/" xmlns:cc="http://creativecommons.org/ns#" xmlns:rdf="http://www.w3.org/1999/02/22-rdf-syntax-ns#">
   <cc:Work>
    <dc:type rdf:resource="http://purl.org/dc/dcmitype/StillImage"/>
    <dc:date>2026-05-18T16:36:20.423665</dc:date>
    <dc:format>image/svg+xml</dc:format>
    <dc:creator>
     <cc:Agent>
      <dc:title>Matplotlib v3.7.3, https://matplotlib.org/</dc:title>
     </cc:Agent>
    </dc:creator>
   </cc:Work>
  </rdf:RDF>
 </metadata>
 <defs>
  <style type="text/css">*{stroke-linejoin: round; stroke-linecap: butt}</style>
 </defs>
 <g id="figure_1">
  <g id="patch_1">
   <path d="M 0 123.12
L 803.52 123.12
L 803.52 0
L 0 0
L 0 123.12
z
" style="fill: none; opacity: 0"/>
  </g>
  <g id="axes_1">
   <g id="text_1">
    <!-- $\mathrm{diagnose}\rightarrow\mathrm{intervene}\rightarrow\mathrm{re\!-\!test}$ -->
    <g style="fill: #111111" transform="translate(225.22 68.14) scale(0.28 -0.28)">
     <defs>
      <path id="STIXGeneral-Regular-64" d="M 3142 269
L 2202 -64
L 2176 -45
L 2176 365
Q 1869 -64 1357 -64
Q 826 -64 499 317
Q 173 698 173 1312
Q 173 1990 563 2467
Q 954 2944 1504 2944
Q 1850 2944 2176 2669
L 2176 3667
Q 2176 3866 2118 3930
Q 2061 3994 1882 3994
Q 1792 3994 1741 3987
L 1741 4090
Q 2323 4243 2682 4371
L 2714 4358
L 2714 730
Q 2714 506 2768 435
Q 2822 365 2995 365
Q 3034 365 3142 371
L 3142 269
z
M 2176 653
L 2176 2125
Q 2176 2381 1981 2573
Q 1786 2765 1523 2765
Q 1158 2765 940 2438
Q 723 2112 723 1568
Q 723 979 963 624
Q 1203 269 1606 269
Q 1907 269 2080 474
Q 2176 582 2176 653
z
" transform="scale(0.015625)"/>
      <path id="STIXGeneral-Regular-69" d="M 1152 4045
Q 1152 3904 1056 3811
Q 960 3718 819 3718
Q 685 3718 592 3811
Q 499 3904 499 4045
Q 499 4179 595 4275
Q 691 4371 826 4371
Q 966 4371 1059 4275
Q 1152 4179 1152 4045
z
M 1619 0
L 102 0
L 102 96
Q 435 115 521 211
Q 608 307 608 666
L 608 2118
Q 608 2342 563 2432
Q 518 2522 397 2522
Q 243 2522 128 2490
L 128 2592
L 1120 2944
L 1146 2918
L 1146 672
Q 1146 314 1226 218
Q 1306 122 1619 96
L 1619 0
z
" transform="scale(0.015625)"/>
      <path id="STIXGeneral-Regular-61" d="M 2829 422
L 2829 243
Q 2586 -64 2253 -64
Q 1888 -64 1843 403
L 1837 403
Q 1427 -64 909 -64
Q 608 -64 422 112
Q 237 288 237 602
Q 237 1050 685 1350
Q 992 1555 1837 1869
L 1837 2214
Q 1837 2502 1699 2646
Q 1562 2790 1338 2790
Q 1146 2790 1018 2697
Q 890 2605 890 2477
Q 890 2419 909 2348
Q 928 2278 928 2208
Q 928 2112 841 2029
Q 755 1946 634 1946
Q 525 1946 441 2029
Q 358 2112 358 2240
Q 358 2547 685 2752
Q 986 2944 1421 2944
Q 1939 2944 2176 2656
Q 2291 2522 2323 2384
Q 2355 2246 2355 1946
L 2355 723
Q 2355 301 2554 301
Q 2682 301 2829 422
z
M 1837 813
L 1837 1715
Q 1248 1510 1018 1293
Q 800 1094 800 800
Q 800 557 921 432
Q 1043 307 1242 307
Q 1453 307 1613 410
Q 1747 506 1792 589
Q 1837 672 1837 813
z
" transform="scale(0.015625)"/>
      <path id="STIXGeneral-Regular-67" d="M 3008 2483
L 2477 2483
Q 2598 2208 2598 1946
Q 2598 1453 2265 1203
Q 1933 954 1600 954
Q 1530 954 1357 973
L 1235 986
Q 1107 947 979 812
Q 851 678 851 582
Q 851 435 1350 410
L 2176 371
Q 2528 358 2739 172
Q 2950 -13 2950 -314
Q 2950 -685 2566 -986
Q 2035 -1395 1286 -1395
Q 826 -1395 502 -1212
Q 179 -1030 179 -774
Q 179 -595 320 -419
Q 461 -243 806 6
Q 602 102 534 172
Q 467 243 467 346
Q 467 531 762 787
Q 909 915 1037 1043
Q 717 1203 579 1401
Q 442 1600 442 1901
Q 442 2336 752 2640
Q 1062 2944 1510 2944
Q 1766 2944 2022 2848
L 2163 2797
Q 2349 2733 2515 2733
L 3008 2733
L 3008 2483
z
M 973 2163
L 973 2144
Q 973 1683 1155 1398
Q 1338 1114 1632 1114
Q 1850 1114 1978 1270
Q 2106 1427 2106 1690
Q 2106 2112 1914 2464
Q 1754 2765 1446 2765
Q 1222 2765 1097 2605
Q 973 2445 973 2163
z
M 2771 -410
Q 2771 -230 2595 -163
Q 2419 -96 1978 -96
Q 1344 -96 941 -13
Q 749 -243 688 -348
Q 627 -454 627 -563
Q 627 -774 880 -902
Q 1133 -1030 1555 -1030
Q 2099 -1030 2435 -860
Q 2771 -691 2771 -410
z
" transform="scale(0.015625)"/>
      <path id="STIXGeneral-Regular-6e" d="M 3104 0
L 1773 0
L 1779 96
Q 2016 115 2096 233
Q 2176 352 2176 672
L 2176 1946
Q 2176 2592 1709 2592
Q 1549 2592 1408 2515
Q 1267 2438 1050 2227
L 1050 461
Q 1050 269 1136 192
Q 1222 115 1466 96
L 1466 0
L 115 0
L 115 96
Q 358 115 435 214
Q 512 314 512 602
L 512 2157
Q 512 2394 467 2483
Q 422 2573 288 2573
Q 160 2573 102 2547
L 102 2656
Q 550 2784 979 2944
L 1030 2925
L 1030 2426
L 1037 2426
Q 1491 2944 1958 2944
Q 2323 2944 2518 2688
Q 2714 2432 2714 1958
L 2714 544
Q 2714 288 2790 205
Q 2867 122 3104 96
L 3104 0
z
" transform="scale(0.015625)"/>
      <path id="STIXGeneral-Regular-6f" d="M 3008 1478
Q 3008 806 2608 371
Q 2208 -64 1568 -64
Q 979 -64 582 368
Q 186 800 186 1459
Q 186 2125 582 2534
Q 979 2944 1626 2944
Q 2221 2944 2614 2537
Q 3008 2131 3008 1478
z
M 2432 1306
Q 2432 2035 2112 2445
Q 1856 2765 1504 2765
Q 1171 2765 966 2493
Q 762 2221 762 1747
Q 762 928 1101 435
Q 1318 115 1677 115
Q 2029 115 2230 432
Q 2432 749 2432 1306
z
" transform="scale(0.015625)"/>
      <path id="STIXGeneral-Regular-73" d="M 998 1926
L 1664 1523
Q 1984 1331 2105 1164
Q 2227 998 2227 736
Q 2227 416 1961 176
Q 1696 -64 1331 -64
Q 1030 -64 864 -6
Q 691 51 570 51
Q 461 51 416 -26
L 333 -26
L 333 979
L 435 979
Q 538 512 730 294
Q 922 77 1248 77
Q 1485 77 1632 211
Q 1779 346 1779 550
Q 1779 845 1440 1030
L 1094 1222
Q 326 1651 326 2150
Q 326 2522 566 2730
Q 806 2938 1210 2938
Q 1491 2938 1638 2867
Q 1754 2816 1818 2816
Q 1862 2816 1920 2880
L 1990 2880
L 2022 2010
L 1926 2010
Q 1818 2445 1654 2621
Q 1491 2797 1203 2797
Q 986 2797 854 2688
Q 723 2579 723 2362
Q 723 2253 796 2128
Q 870 2003 998 1926
z
" transform="scale(0.015625)"/>
      <path id="STIXGeneral-Regular-65" d="M 2611 1050
L 2714 1005
Q 2330 -64 1376 -64
Q 813 -64 486 329
Q 160 723 160 1389
Q 160 2074 525 2509
Q 890 2944 1485 2944
Q 2061 2944 2374 2502
Q 2560 2246 2592 1773
L 621 1773
Q 646 1370 700 1158
Q 755 947 915 730
Q 1184 378 1626 378
Q 1939 378 2153 531
Q 2368 685 2611 1050
z
M 634 1978
L 1939 1978
Q 1882 2381 1750 2547
Q 1619 2714 1312 2714
Q 1043 2714 864 2525
Q 685 2336 634 1978
z
" transform="scale(0.015625)"/>
      <path id="STIXGeneral-Regular-2192" d="M 5478 1651
L 5478 1587
Q 4742 1274 3955 365
L 3827 486
Q 4006 742 4352 1101
Q 4442 1190 4442 1280
Q 4442 1408 4275 1408
L 448 1408
L 448 1830
L 4282 1830
Q 4333 1830 4390 1878
Q 4448 1926 4448 1971
Q 4448 2042 4358 2131
Q 4032 2445 3834 2746
L 3962 2867
Q 4755 1952 5478 1651
z
" transform="scale(0.015625)"/>
      <path id="STIXGeneral-Regular-74" d="M 1702 493
L 1786 422
Q 1478 -64 1011 -64
Q 448 -64 448 749
L 448 2675
L 109 2675
Q 83 2694 83 2720
Q 83 2771 192 2842
Q 435 2982 813 3526
Q 826 3546 874 3606
Q 922 3667 941 3706
Q 986 3706 986 3622
L 986 2880
L 1632 2880
L 1632 2675
L 986 2675
L 986 845
Q 986 538 1062 403
Q 1139 269 1318 269
Q 1510 269 1702 493
z
" transform="scale(0.015625)"/>
      <path id="STIXGeneral-Regular-72" d="M 1024 2931
L 1024 2342
Q 1267 2688 1430 2816
Q 1594 2944 1792 2944
Q 1958 2944 2051 2854
Q 2144 2765 2144 2605
Q 2144 2470 2077 2393
Q 2010 2317 1894 2317
Q 1773 2317 1638 2445
Q 1536 2541 1472 2541
Q 1338 2541 1181 2355
Q 1024 2170 1024 2016
L 1024 576
Q 1024 301 1133 205
Q 1242 109 1568 96
L 1568 0
L 32 0
L 32 96
Q 339 154 412 224
Q 486 294 486 538
L 486 2138
Q 486 2349 438 2435
Q 390 2522 269 2522
Q 166 2522 45 2496
L 45 2598
Q 448 2726 992 2944
L 1024 2931
z
" transform="scale(0.015625)"/>
      <path id="STIXGeneral-Regular-76" d="M 3053 2880
L 3053 2784
Q 2906 2771 2835 2688
Q 2765 2605 2637 2285
L 1818 230
Q 1690 -90 1638 -90
Q 1587 -90 1523 77
Q 1510 96 1497 141
Q 1485 186 1472 211
L 704 2048
Q 499 2534 403 2652
Q 307 2771 122 2784
L 122 2880
L 1376 2880
L 1376 2784
Q 1210 2771 1146 2732
Q 1082 2694 1082 2611
Q 1082 2509 1139 2368
L 1792 730
L 2426 2387
Q 2464 2483 2464 2579
Q 2464 2758 2163 2784
L 2163 2880
L 3053 2880
z
" transform="scale(0.015625)"/>
      <path id="STIXGeneral-Regular-2212" d="M 3974 1408
L 410 1408
L 410 1830
L 3974 1830
L 3974 1408
z
" transform="scale(0.015625)"/>
     </defs>
     <use xlink:href="#STIXGeneral-Regular-64" transform="translate(0 0.703125)"/>
     <use xlink:href="#STIXGeneral-Regular-69" transform="translate(49.999985 0.703125)"/>
     <use xlink:href="#STIXGeneral-Regular-61" transform="translate(77.799973 0.703125)"/>
     <use xlink:href="#STIXGeneral-Regular-67" transform="translate(122.199966 0.703125)"/>
     <use xlink:href="#STIXGeneral-Regular-6e" transform="translate(172.199951 0.703125)"/>
     <use xlink:href="#STIXGeneral-Regular-6f" transform="translate(222.199936 0.703125)"/>
     <use xlink:href="#STIXGeneral-Regular-73" transform="translate(272.199921 0.703125)"/>
     <use xlink:href="#STIXGeneral-Regular-65" transform="translate(311.099915 0.703125)"/>
     <use xlink:href="#STIXGeneral-Regular-2192" transform="translate(369.939905 0.703125)"/>
     <use xlink:href="#STIXGeneral-Regular-69" transform="translate(476.979892 0.703125)"/>
     <use xlink:href="#STIXGeneral-Regular-6e" transform="translate(504.77988 0.703125)"/>
     <use xlink:href="#STIXGeneral-Regular-74" transform="translate(554.779865 0.703125)"/>
     <use xlink:href="#STIXGeneral-Regular-65" transform="translate(582.579852 0.703125)"/>
     <use xlink:href="#STIXGeneral-Regular-72" transform="translate(626.979846 0.703125)"/>
     <use xlink:href="#STIXGeneral-Regular-76" transform="translate(660.279834 0.703125)"/>
     <use xlink:href="#STIXGeneral-Regular-65" transform="translate(710.279819 0.703125)"/>
     <use xlink:href="#STIXGeneral-Regular-6e" transform="translate(754.679813 0.703125)"/>
     <use xlink:href="#STIXGeneral-Regular-65" transform="translate(804.679797 0.703125)"/>
     <use xlink:href="#STIXGeneral-Regular-2192" transform="translate(863.519788 0.703125)"/>
     <use xlink:href="#STIXGeneral-Regular-72" transform="translate(970.559775 0.703125)"/>
     <use xlink:href="#STIXGeneral-Regular-65" transform="translate(1003.859763 0.703125)"/>
     <use xlink:href="#STIXGeneral-Regular-2212" transform="translate(1050.666182 0.703125)"/>
     <use xlink:href="#STIXGeneral-Regular-74" transform="translate(1121.572592 0.703125)"/>
     <use xlink:href="#STIXGeneral-Regular-65" transform="translate(1149.37258 0.703125)"/>
     <use xlink:href="#STIXGeneral-Regular-73" transform="translate(1193.772574 0.703125)"/>
     <use xlink:href="#STIXGeneral-Regular-74" transform="translate(1232.672568 0.703125)"/>
    </g>
   </g>
  </g>
 </g>
</svg>
