<?xml version="1.0" encoding="utf-8" standalone="no"?>
<!DOCTYPE svg PUBLIC "-//W3C//DTD SVG 1.1//EN"
  "http://www.w3.org/Graphics/SVG/1.1/DTD/svg11.dtd">
<svg xmlns:xlink="http://www.w3.org/1999/xlink" width="1091.52pt" height="123.12pt" viewBox="0 0 1091.52 123.12" xmlns="http://www.w3.org/2000/svg" version="1.1">
 <metadata>
  <rdf:RDF xmlns:dc="http://purl.org/dc/elements/1.1/" xmlns:cc="http://creativecommons.org/ns#" xmlns:rdf="http://www.w3.org/1999/02/22-rdf-syntax-ns#">
   <cc:Work>
    <dc:type rdf:resource="http://purl.org/dc/dcmitype/StillImage"/>
    <dc:date>2026-05-18T16:36:19.327972</dc:date>
    <dc:format>image/svg+xml</dc:format>
    <dc:creator>
     <cc:Agent>
      <dc:title>Matplotlib v3.7.3, https://matplotlib.org/</dc:title>
     </cc:Agent>
    </dc:creator>
   </cc:Work>
  </rdf:RDF>
 </metadata>
 <defs>
  <style type="text/css">*{stroke-linejoin: round; stroke-linecap: butt}</style>
 </defs>
 <g id="figure_1">
  <g id="patch_1">
   <path d="M 0 123.12
L 1091.52 123.12
L 1091.52 0
L 0 0
L 0 123.12
z
" style="fill: none; opacity: 0"/>
  </g>
  <g id="axes_1">
   <g id="text_1">
    <!-- $\widehat{R}_n(f_{\mathrm{shape}})\approx\widehat{R}_n(f_{\mathrm{position}})\approx\widehat{R}_n(f_{\mathrm{background}})\approx 0$ -->
    <g style="fill: #111111" transform="translate(313.22 70.24) scale(0.28 -0.28)">
     <defs>
      <path id="STIXSizeTwoSym-Regular-302" d="M -1094 3610
L -1728 3610
L -4224 4538
L -6726 3610
L -7360 3610
L -4378 4973
L -4070 4973
L -1094 3610
z
" transform="scale(0.015625)"/>
      <path id="STIXGeneral-Italic-52" d="M 845 4179
L 2458 4179
Q 3078 4179 3420 3936
Q 3763 3693 3763 3277
Q 3763 2778 3341 2458
Q 3091 2266 2502 2131
L 3072 627
Q 3181 333 3299 217
Q 3418 102 3629 102
L 3629 0
L 2688 0
L 1901 2074
L 1478 2106
L 1126 806
Q 1043 512 1043 403
Q 1043 256 1126 192
Q 1210 128 1472 102
L 1472 0
L -83 0
L -83 102
Q 173 134 278 243
Q 384 352 461 646
L 1222 3405
Q 1299 3699 1299 3808
Q 1299 3923 1210 3987
Q 1133 4038 845 4077
L 845 4179
z
M 1958 3795
L 1555 2342
Q 1754 2310 1882 2310
Q 2451 2310 2771 2566
Q 3091 2822 3091 3270
Q 3091 3603 2892 3795
Q 2694 3987 2323 3987
Q 2010 3987 1958 3795
z
" transform="scale(0.015625)"/>
      <path id="STIXGeneral-Italic-6e" d="M 2944 749
L 3034 666
Q 2707 218 2534 80
Q 2362 -58 2138 -58
Q 2010 -58 1923 28
Q 1837 115 1837 288
Q 1837 390 1939 768
L 2221 1805
Q 2310 2150 2310 2310
Q 2310 2496 2157 2496
Q 1971 2496 1750 2275
Q 1530 2054 1210 1587
Q 998 1274 899 1024
Q 800 774 570 0
L 90 0
L 704 2240
Q 717 2304 717 2349
Q 717 2445 630 2480
Q 544 2515 301 2522
L 301 2624
Q 550 2675 857 2729
Q 1165 2784 1338 2822
L 1363 2810
L 934 1414
Q 1408 2170 1753 2496
Q 2099 2822 2413 2822
Q 2611 2822 2720 2716
Q 2829 2611 2829 2432
Q 2829 2272 2765 2048
L 2406 749
Q 2317 429 2317 358
Q 2317 243 2419 243
Q 2541 243 2810 582
Q 2854 634 2944 749
z
" transform="scale(0.015625)"/>
      <path id="STIXGeneral-Regular-28" d="M 1946 -1030
L 1869 -1133
Q 1126 -710 716 32
Q 307 774 307 1613
Q 307 3386 1888 4326
L 1946 4224
Q 1293 3667 1075 3126
Q 858 2586 858 1632
Q 858 685 1082 96
Q 1306 -493 1946 -1030
z
" transform="scale(0.015625)"/>
      <path id="STIXGeneral-Italic-66" d="M 262 2739
L 858 2739
Q 1107 3546 1318 3846
Q 1664 4339 2163 4339
Q 2400 4339 2557 4227
Q 2714 4115 2714 3942
Q 2714 3834 2634 3750
Q 2554 3667 2445 3667
Q 2355 3667 2281 3737
Q 2208 3808 2208 3917
Q 2208 3981 2240 4038
Q 2272 4096 2272 4115
Q 2272 4198 2131 4198
Q 1862 4198 1676 3849
Q 1491 3501 1350 2739
L 2035 2739
L 1997 2534
L 1306 2534
L 845 486
Q 435 -1325 -435 -1325
Q -653 -1325 -797 -1213
Q -941 -1101 -941 -934
Q -941 -826 -870 -746
Q -800 -666 -698 -666
Q -589 -666 -521 -733
Q -454 -800 -454 -902
Q -454 -947 -483 -1001
Q -512 -1056 -512 -1088
Q -512 -1190 -384 -1190
Q 13 -1190 237 -154
L 800 2534
L 218 2534
L 262 2739
z
" transform="scale(0.015625)"/>
      <path id="STIXGeneral-Regular-73" d="M 998 1926
L 1664 1523
Q 1984 1331 2105 1164
Q 2227 998 2227 736
Q 2227 416 1961 176
Q 1696 -64 1331 -64
Q 1030 -64 864 -6
Q 691 51 570 51
Q 461 51 416 -26
L 333 -26
L 333 979
L 435 979
Q 538 512 730 294
Q 922 77 1248 77
Q 1485 77 1632 211
Q 1779 346 1779 550
Q 1779 845 1440 1030
L 1094 1222
Q 326 1651 326 2150
Q 326 2522 566 2730
Q 806 2938 1210 2938
Q 1491 2938 1638 2867
Q 1754 2816 1818 2816
Q 1862 2816 1920 2880
L 1990 2880
L 2022 2010
L 1926 2010
Q 1818 2445 1654 2621
Q 1491 2797 1203 2797
Q 986 2797 854 2688
Q 723 2579 723 2362
Q 723 2253 796 2128
Q 870 2003 998 1926
z
" transform="scale(0.015625)"/>
      <path id="STIXGeneral-Regular-68" d="M 3117 0
L 1760 0
L 1760 96
Q 2042 128 2118 224
Q 2195 320 2195 653
L 2195 1920
Q 2195 2598 1722 2598
Q 1530 2598 1370 2508
Q 1210 2419 1005 2195
L 1005 653
Q 1005 320 1081 224
Q 1158 128 1440 96
L 1440 0
L 58 0
L 58 96
Q 333 134 400 224
Q 467 314 467 653
L 467 3667
Q 467 3872 406 3933
Q 346 3994 141 3994
Q 83 3994 64 3987
L 64 4090
L 237 4141
Q 730 4288 973 4371
L 1005 4352
L 1005 2406
Q 1229 2694 1446 2819
Q 1664 2944 1946 2944
Q 2733 2944 2733 1926
L 2733 653
Q 2733 320 2793 233
Q 2854 147 3117 96
L 3117 0
z
" transform="scale(0.015625)"/>
      <path id="STIXGeneral-Regular-61" d="M 2829 422
L 2829 243
Q 2586 -64 2253 -64
Q 1888 -64 1843 403
L 1837 403
Q 1427 -64 909 -64
Q 608 -64 422 112
Q 237 288 237 602
Q 237 1050 685 1350
Q 992 1555 1837 1869
L 1837 2214
Q 1837 2502 1699 2646
Q 1562 2790 1338 2790
Q 1146 2790 1018 2697
Q 890 2605 890 2477
Q 890 2419 909 2348
Q 928 2278 928 2208
Q 928 2112 841 2029
Q 755 1946 634 1946
Q 525 1946 441 2029
Q 358 2112 358 2240
Q 358 2547 685 2752
Q 986 2944 1421 2944
Q 1939 2944 2176 2656
Q 2291 2522 2323 2384
Q 2355 2246 2355 1946
L 2355 723
Q 2355 301 2554 301
Q 2682 301 2829 422
z
M 1837 813
L 1837 1715
Q 1248 1510 1018 1293
Q 800 1094 800 800
Q 800 557 921 432
Q 1043 307 1242 307
Q 1453 307 1613 410
Q 1747 506 1792 589
Q 1837 672 1837 813
z
" transform="scale(0.015625)"/>
      <path id="STIXGeneral-Regular-70" d="M 1018 2931
L 1018 2438
Q 1421 2944 1939 2944
Q 2406 2944 2707 2560
Q 3008 2176 3008 1581
Q 3008 883 2621 409
Q 2234 -64 1664 -64
Q 1466 -64 1328 -6
Q 1190 51 1018 211
L 1018 -794
Q 1018 -1094 1120 -1180
Q 1222 -1267 1581 -1274
L 1581 -1389
L 32 -1389
L 32 -1280
Q 314 -1254 397 -1171
Q 480 -1088 480 -838
L 480 2157
Q 480 2381 429 2451
Q 378 2522 218 2522
Q 115 2522 58 2515
L 58 2618
Q 506 2752 979 2944
L 1018 2931
z
M 1018 2138
L 1018 563
Q 1018 422 1238 281
Q 1459 141 1683 141
Q 2029 141 2243 467
Q 2458 794 2458 1325
Q 2458 1888 2243 2224
Q 2029 2560 1670 2560
Q 1446 2560 1232 2419
Q 1018 2278 1018 2138
z
" transform="scale(0.015625)"/>
      <path id="STIXGeneral-Regular-65" d="M 2611 1050
L 2714 1005
Q 2330 -64 1376 -64
Q 813 -64 486 329
Q 160 723 160 1389
Q 160 2074 525 2509
Q 890 2944 1485 2944
Q 2061 2944 2374 2502
Q 2560 2246 2592 1773
L 621 1773
Q 646 1370 700 1158
Q 755 947 915 730
Q 1184 378 1626 378
Q 1939 378 2153 531
Q 2368 685 2611 1050
z
M 634 1978
L 1939 1978
Q 1882 2381 1750 2547
Q 1619 2714 1312 2714
Q 1043 2714 864 2525
Q 685 2336 634 1978
z
" transform="scale(0.015625)"/>
      <path id="STIXGeneral-Regular-29" d="M 186 4224
L 262 4326
Q 992 3891 1408 3148
Q 1824 2406 1824 1581
Q 1824 -166 243 -1133
L 186 -1030
Q 845 -486 1059 54
Q 1274 595 1274 1562
Q 1274 2534 1059 3120
Q 845 3706 186 4224
z
" transform="scale(0.015625)"/>
      <path id="STIXGeneral-Regular-2248" d="M 3866 3040
L 4077 3040
Q 4045 2566 3769 2150
Q 3494 1734 3066 1734
Q 2803 1734 2460 1939
Q 2118 2144 1804 2349
Q 1491 2554 1306 2554
Q 992 2554 800 2304
Q 608 2054 518 1670
L 307 1670
Q 333 2189 617 2582
Q 902 2976 1350 2976
Q 1613 2976 1955 2771
Q 2298 2566 2611 2361
Q 2925 2157 3117 2157
Q 3680 2157 3866 3040
z
M 3866 1530
L 4077 1530
Q 4045 1056 3769 640
Q 3494 224 3066 224
Q 2803 224 2460 429
Q 2118 634 1804 838
Q 1491 1043 1306 1043
Q 992 1043 800 793
Q 608 544 518 160
L 307 160
Q 333 678 617 1072
Q 902 1466 1350 1466
Q 1613 1466 1955 1261
Q 2298 1056 2611 851
Q 2925 646 3117 646
Q 3680 646 3866 1530
z
" transform="scale(0.015625)"/>
      <path id="STIXGeneral-Regular-6f" d="M 3008 1478
Q 3008 806 2608 371
Q 2208 -64 1568 -64
Q 979 -64 582 368
Q 186 800 186 1459
Q 186 2125 582 2534
Q 979 2944 1626 2944
Q 2221 2944 2614 2537
Q 3008 2131 3008 1478
z
M 2432 1306
Q 2432 2035 2112 2445
Q 1856 2765 1504 2765
Q 1171 2765 966 2493
Q 762 2221 762 1747
Q 762 928 1101 435
Q 1318 115 1677 115
Q 2029 115 2230 432
Q 2432 749 2432 1306
z
" transform="scale(0.015625)"/>
      <path id="STIXGeneral-Regular-69" d="M 1152 4045
Q 1152 3904 1056 3811
Q 960 3718 819 3718
Q 685 3718 592 3811
Q 499 3904 499 4045
Q 499 4179 595 4275
Q 691 4371 826 4371
Q 966 4371 1059 4275
Q 1152 4179 1152 4045
z
M 1619 0
L 102 0
L 102 96
Q 435 115 521 211
Q 608 307 608 666
L 608 2118
Q 608 2342 563 2432
Q 518 2522 397 2522
Q 243 2522 128 2490
L 128 2592
L 1120 2944
L 1146 2918
L 1146 672
Q 1146 314 1226 218
Q 1306 122 1619 96
L 1619 0
z
" transform="scale(0.015625)"/>
      <path id="STIXGeneral-Regular-74" d="M 1702 493
L 1786 422
Q 1478 -64 1011 -64
Q 448 -64 448 749
L 448 2675
L 109 2675
Q 83 2694 83 2720
Q 83 2771 192 2842
Q 435 2982 813 3526
Q 826 3546 874 3606
Q 922 3667 941 3706
Q 986 3706 986 3622
L 986 2880
L 1632 2880
L 1632 2675
L 986 2675
L 986 845
Q 986 538 1062 403
Q 1139 269 1318 269
Q 1510 269 1702 493
z
" transform="scale(0.015625)"/>
      <path id="STIXGeneral-Regular-6e" d="M 3104 0
L 1773 0
L 1779 96
Q 2016 115 2096 233
Q 2176 352 2176 672
L 2176 1946
Q 2176 2592 1709 2592
Q 1549 2592 1408 2515
Q 1267 2438 1050 2227
L 1050 461
Q 1050 269 1136 192
Q 1222 115 1466 96
L 1466 0
L 115 0
L 115 96
Q 358 115 435 214
Q 512 314 512 602
L 512 2157
Q 512 2394 467 2483
Q 422 2573 288 2573
Q 160 2573 102 2547
L 102 2656
Q 550 2784 979 2944
L 1030 2925
L 1030 2426
L 1037 2426
Q 1491 2944 1958 2944
Q 2323 2944 2518 2688
Q 2714 2432 2714 1958
L 2714 544
Q 2714 288 2790 205
Q 2867 122 3104 96
L 3104 0
z
" transform="scale(0.015625)"/>
      <path id="STIXGeneral-Regular-62" d="M 979 4358
L 979 2406
Q 1082 2650 1315 2797
Q 1549 2944 1843 2944
Q 2349 2944 2672 2541
Q 2995 2138 2995 1536
Q 2995 832 2566 384
Q 2138 -64 1498 -64
Q 1107 -64 774 67
Q 442 198 442 358
L 442 3622
Q 442 3859 384 3926
Q 326 3994 128 3994
Q 83 3994 19 3981
L 19 4090
L 211 4147
Q 864 4346 947 4371
L 979 4358
z
M 979 2035
L 979 474
Q 979 326 1161 233
Q 1344 141 1600 141
Q 1978 141 2195 416
Q 2432 710 2432 1261
Q 2432 1888 2182 2240
Q 1971 2541 1613 2541
Q 1357 2541 1168 2390
Q 979 2240 979 2035
z
" transform="scale(0.015625)"/>
      <path id="STIXGeneral-Regular-63" d="M 2547 998
L 2637 941
Q 2362 403 2112 205
Q 1786 -64 1376 -64
Q 845 -64 502 336
Q 160 736 160 1357
Q 160 2170 698 2618
Q 1094 2944 1562 2944
Q 1965 2944 2256 2749
Q 2547 2554 2547 2285
Q 2547 2176 2457 2096
Q 2368 2016 2246 2016
Q 2022 2016 1939 2310
L 1901 2451
Q 1850 2630 1773 2694
Q 1696 2758 1523 2758
Q 1133 2758 893 2451
Q 653 2144 653 1645
Q 653 1094 928 745
Q 1203 397 1645 397
Q 1920 397 2118 528
Q 2317 659 2547 998
z
" transform="scale(0.015625)"/>
      <path id="STIXGeneral-Regular-6b" d="M 3232 0
L 1837 0
L 1837 96
L 1958 96
Q 2093 96 2093 192
Q 2093 250 2022 339
L 1062 1606
L 1062 429
Q 1062 262 1142 185
Q 1222 109 1414 102
L 1542 96
L 1542 0
L 45 0
L 45 96
Q 390 154 457 214
Q 525 275 525 525
L 525 3610
Q 525 3840 467 3920
Q 410 4000 250 4000
Q 211 4000 45 3987
L 45 4090
L 237 4141
Q 621 4243 1037 4371
L 1062 4358
L 1062 1670
L 1939 2451
Q 2086 2586 2086 2675
Q 2086 2739 2019 2761
Q 1952 2784 1766 2790
L 1766 2880
L 3072 2880
L 3072 2784
Q 2752 2784 2505 2646
Q 2259 2509 1690 1978
L 1504 1805
L 2483 563
Q 2829 122 3232 96
L 3232 0
z
" transform="scale(0.015625)"/>
      <path id="STIXGeneral-Regular-67" d="M 3008 2483
L 2477 2483
Q 2598 2208 2598 1946
Q 2598 1453 2265 1203
Q 1933 954 1600 954
Q 1530 954 1357 973
L 1235 986
Q 1107 947 979 812
Q 851 678 851 582
Q 851 435 1350 410
L 2176 371
Q 2528 358 2739 172
Q 2950 -13 2950 -314
Q 2950 -685 2566 -986
Q 2035 -1395 1286 -1395
Q 826 -1395 502 -1212
Q 179 -1030 179 -774
Q 179 -595 320 -419
Q 461 -243 806 6
Q 602 102 534 172
Q 467 243 467 346
Q 467 531 762 787
Q 909 915 1037 1043
Q 717 1203 579 1401
Q 442 1600 442 1901
Q 442 2336 752 2640
Q 1062 2944 1510 2944
Q 1766 2944 2022 2848
L 2163 2797
Q 2349 2733 2515 2733
L 3008 2733
L 3008 2483
z
M 973 2163
L 973 2144
Q 973 1683 1155 1398
Q 1338 1114 1632 1114
Q 1850 1114 1978 1270
Q 2106 1427 2106 1690
Q 2106 2112 1914 2464
Q 1754 2765 1446 2765
Q 1222 2765 1097 2605
Q 973 2445 973 2163
z
M 2771 -410
Q 2771 -230 2595 -163
Q 2419 -96 1978 -96
Q 1344 -96 941 -13
Q 749 -243 688 -348
Q 627 -454 627 -563
Q 627 -774 880 -902
Q 1133 -1030 1555 -1030
Q 2099 -1030 2435 -860
Q 2771 -691 2771 -410
z
" transform="scale(0.015625)"/>
      <path id="STIXGeneral-Regular-72" d="M 1024 2931
L 1024 2342
Q 1267 2688 1430 2816
Q 1594 2944 1792 2944
Q 1958 2944 2051 2854
Q 2144 2765 2144 2605
Q 2144 2470 2077 2393
Q 2010 2317 1894 2317
Q 1773 2317 1638 2445
Q 1536 2541 1472 2541
Q 1338 2541 1181 2355
Q 1024 2170 1024 2016
L 1024 576
Q 1024 301 1133 205
Q 1242 109 1568 96
L 1568 0
L 32 0
L 32 96
Q 339 154 412 224
Q 486 294 486 538
L 486 2138
Q 486 2349 438 2435
Q 390 2522 269 2522
Q 166 2522 45 2496
L 45 2598
Q 448 2726 992 2944
L 1024 2931
z
" transform="scale(0.015625)"/>
      <path id="STIXGeneral-Regular-75" d="M 3072 320
L 3072 230
Q 2573 96 2195 -58
L 2163 -38
L 2163 486
L 2150 486
Q 1747 -64 1235 -64
Q 870 -64 662 160
Q 454 384 454 755
L 454 2362
Q 454 2598 371 2688
Q 288 2778 58 2790
L 58 2880
L 992 2880
L 992 813
Q 992 595 1123 451
Q 1254 307 1446 307
Q 1760 307 1984 506
Q 2067 582 2099 649
Q 2131 717 2131 877
L 2131 2355
Q 2131 2605 2041 2678
Q 1952 2752 1658 2771
L 1658 2880
L 2669 2880
L 2669 685
Q 2669 461 2742 390
Q 2816 320 3034 320
L 3072 320
z
" transform="scale(0.015625)"/>
      <path id="STIXGeneral-Regular-64" d="M 3142 269
L 2202 -64
L 2176 -45
L 2176 365
Q 1869 -64 1357 -64
Q 826 -64 499 317
Q 173 698 173 1312
Q 173 1990 563 2467
Q 954 2944 1504 2944
Q 1850 2944 2176 2669
L 2176 3667
Q 2176 3866 2118 3930
Q 2061 3994 1882 3994
Q 1792 3994 1741 3987
L 1741 4090
Q 2323 4243 2682 4371
L 2714 4358
L 2714 730
Q 2714 506 2768 435
Q 2822 365 2995 365
Q 3034 365 3142 371
L 3142 269
z
M 2176 653
L 2176 2125
Q 2176 2381 1981 2573
Q 1786 2765 1523 2765
Q 1158 2765 940 2438
Q 723 2112 723 1568
Q 723 979 963 624
Q 1203 269 1606 269
Q 1907 269 2080 474
Q 2176 582 2176 653
z
" transform="scale(0.015625)"/>
      <path id="STIXGeneral-Regular-30" d="M 3046 2112
Q 3046 1683 2963 1302
Q 2880 922 2717 602
Q 2554 282 2266 96
Q 1978 -90 1600 -90
Q 1210 -90 915 108
Q 621 307 461 640
Q 301 973 227 1350
Q 154 1728 154 2150
Q 154 2746 301 3222
Q 448 3699 790 4012
Q 1133 4326 1626 4326
Q 2253 4326 2649 3712
Q 3046 3098 3046 2112
z
M 2432 2080
Q 2432 3091 2217 3625
Q 2003 4160 1587 4160
Q 1190 4160 979 3622
Q 768 3085 768 2106
Q 768 1120 979 598
Q 1190 77 1600 77
Q 2003 77 2217 598
Q 2432 1120 2432 2080
z
" transform="scale(0.015625)"/>
     </defs>
     <use xlink:href="#STIXSizeTwoSym-Regular-302" transform="translate(79.009373 42.828125) scale(0.624066)"/>
     <use xlink:href="#STIXGeneral-Italic-52"/>
     <use xlink:href="#STIXGeneral-Italic-6e" transform="translate(62.643272 -13.228125) scale(0.7)"/>
     <use xlink:href="#STIXGeneral-Regular-28" transform="translate(102.052636 0)"/>
     <use xlink:href="#STIXGeneral-Italic-66" transform="translate(135.352624 0)"/>
     <use xlink:href="#STIXGeneral-Regular-73" transform="translate(163.152612 -13.228125) scale(0.7)"/>
     <use xlink:href="#STIXGeneral-Regular-68" transform="translate(190.382608 -13.228125) scale(0.7)"/>
     <use xlink:href="#STIXGeneral-Regular-61" transform="translate(225.382597 -13.228125) scale(0.7)"/>
     <use xlink:href="#STIXGeneral-Regular-70" transform="translate(256.462593 -13.228125) scale(0.7)"/>
     <use xlink:href="#STIXGeneral-Regular-65" transform="translate(291.462582 -13.228125) scale(0.7)"/>
     <use xlink:href="#STIXGeneral-Regular-29" transform="translate(326.951953 0)"/>
     <use xlink:href="#STIXGeneral-Regular-2248" transform="translate(374.691937 0)"/>
     <use xlink:href="#STIXSizeTwoSym-Regular-302" transform="translate(536.641291 42.828125) scale(0.624066)"/>
     <use xlink:href="#STIXGeneral-Italic-52" transform="translate(457.631918 0)"/>
     <use xlink:href="#STIXGeneral-Italic-6e" transform="translate(520.27519 -13.228125) scale(0.7)"/>
     <use xlink:href="#STIXGeneral-Regular-28" transform="translate(559.684554 0)"/>
     <use xlink:href="#STIXGeneral-Italic-66" transform="translate(592.984542 0)"/>
     <use xlink:href="#STIXGeneral-Regular-70" transform="translate(620.78453 -13.228125) scale(0.7)"/>
     <use xlink:href="#STIXGeneral-Regular-6f" transform="translate(655.784519 -13.228125) scale(0.7)"/>
     <use xlink:href="#STIXGeneral-Regular-73" transform="translate(690.784509 -13.228125) scale(0.7)"/>
     <use xlink:href="#STIXGeneral-Regular-69" transform="translate(718.014504 -13.228125) scale(0.7)"/>
     <use xlink:href="#STIXGeneral-Regular-74" transform="translate(737.474496 -13.228125) scale(0.7)"/>
     <use xlink:href="#STIXGeneral-Regular-69" transform="translate(756.934487 -13.228125) scale(0.7)"/>
     <use xlink:href="#STIXGeneral-Regular-6f" transform="translate(776.394479 -13.228125) scale(0.7)"/>
     <use xlink:href="#STIXGeneral-Regular-6e" transform="translate(811.394468 -13.228125) scale(0.7)"/>
     <use xlink:href="#STIXGeneral-Regular-29" transform="translate(850.803832 0)"/>
     <use xlink:href="#STIXGeneral-Regular-2248" transform="translate(898.543817 0)"/>
     <use xlink:href="#STIXSizeTwoSym-Regular-302" transform="translate(1060.49317 42.828125) scale(0.624066)"/>
     <use xlink:href="#STIXGeneral-Italic-52" transform="translate(981.483798 0)"/>
     <use xlink:href="#STIXGeneral-Italic-6e" transform="translate(1044.12707 -13.228125) scale(0.7)"/>
     <use xlink:href="#STIXGeneral-Regular-28" transform="translate(1083.536434 0)"/>
     <use xlink:href="#STIXGeneral-Italic-66" transform="translate(1116.836422 0)"/>
     <use xlink:href="#STIXGeneral-Regular-62" transform="translate(1144.63641 -13.228125) scale(0.7)"/>
     <use xlink:href="#STIXGeneral-Regular-61" transform="translate(1179.636399 -13.228125) scale(0.7)"/>
     <use xlink:href="#STIXGeneral-Regular-63" transform="translate(1210.716395 -13.228125) scale(0.7)"/>
     <use xlink:href="#STIXGeneral-Regular-6b" transform="translate(1241.79639 -13.228125) scale(0.7)"/>
     <use xlink:href="#STIXGeneral-Regular-67" transform="translate(1276.79638 -13.228125) scale(0.7)"/>
     <use xlink:href="#STIXGeneral-Regular-72" transform="translate(1311.796369 -13.228125) scale(0.7)"/>
     <use xlink:href="#STIXGeneral-Regular-6f" transform="translate(1335.10636 -13.228125) scale(0.7)"/>
     <use xlink:href="#STIXGeneral-Regular-75" transform="translate(1370.10635 -13.228125) scale(0.7)"/>
     <use xlink:href="#STIXGeneral-Regular-6e" transform="translate(1405.106339 -13.228125) scale(0.7)"/>
     <use xlink:href="#STIXGeneral-Regular-64" transform="translate(1440.106328 -13.228125) scale(0.7)"/>
     <use xlink:href="#STIXGeneral-Regular-29" transform="translate(1479.515693 0)"/>
     <use xlink:href="#STIXGeneral-Regular-2248" transform="translate(1527.255677 0)"/>
     <use xlink:href="#STIXGeneral-Regular-30" transform="translate(1610.195658 0)"/>
    </g>
   </g>
  </g>
 </g>
</svg>
