<?xml version="1.0" encoding="utf-8" standalone="no"?>
<!DOCTYPE svg PUBLIC "-//W3C//DTD SVG 1.1//EN"
  "http://www.w3.org/Graphics/SVG/1.1/DTD/svg11.dtd">
<svg xmlns:xlink="http://www.w3.org/1999/xlink" width="803.52pt" height="123.12pt" viewBox="0 0 803.52 123.12" xmlns="http://www.w3.org/2000/svg" version="1.1">
 <metadata>
  <rdf:RDF xmlns:dc="http://purl.org/dc/elements/1.1/" xmlns:cc="http://creativecommons.org/ns#" xmlns:rdf="http://www.w3.org/1999/02/22-rdf-syntax-ns#">
   <cc:Work>
    <dc:type rdf:resource="http://purl.org/dc/dcmitype/StillImage"/>
    <dc:date>2026-05-18T16:36:19.730124</dc:date>
    <dc:format>image/svg+xml</dc:format>
    <dc:creator>
     <cc:Agent>
      <dc:title>Matplotlib v3.7.3, https://matplotlib.org/</dc:title>
     </cc:Agent>
    </dc:creator>
   </cc:Work>
  </rdf:RDF>
 </metadata>
 <defs>
  <style type="text/css">*{stroke-linejoin: round; stroke-linecap: butt}</style>
 </defs>
 <g id="figure_1">
  <g id="patch_1">
   <path d="M 0 123.12
L 803.52 123.12
L 803.52 0
L 0 0
L 0 123.12
z
" style="fill: none; opacity: 0"/>
  </g>
  <g id="axes_1">
   <g id="text_1">
    <!-- $\mathcal{O}_{N}(y,a)=\{R(y,a,n,\varepsilon):n\in\mathcal{N}\}$ -->
    <g style="fill: #111111" transform="translate(226.06 69.623125) scale(0.28 -0.28)">
     <defs>
      <path id="STIXNonUnicode-Italic-e23b" d="M 2304 4237
L 2342 4090
Q 1773 3923 1350 3158
Q 928 2394 928 1472
Q 928 838 1216 515
Q 1504 192 1984 192
Q 2349 192 2739 435
Q 3130 678 3430 1101
Q 3968 1862 3968 2944
Q 3968 3398 3744 3660
Q 3520 3923 3219 3923
Q 2918 3923 2691 3728
Q 2464 3533 2464 3232
Q 2464 2995 2694 2995
Q 2714 2995 2784 3011
Q 2854 3027 2918 3027
Q 3104 3027 3104 2816
Q 3104 2637 2944 2496
Q 2784 2355 2592 2355
Q 2323 2355 2179 2534
Q 2035 2714 2035 2995
Q 2035 3475 2505 3878
Q 2976 4282 3571 4282
Q 4096 4282 4381 3882
Q 4666 3482 4666 2938
Q 4666 2400 4422 1837
Q 4179 1274 3808 877
Q 2931 -64 1754 -64
Q 1101 -64 672 304
Q 243 672 243 1363
Q 243 1933 435 2457
Q 627 2982 931 3347
Q 1235 3712 1596 3949
Q 1958 4186 2304 4237
z
" transform="scale(0.015625)"/>
      <path id="STIXGeneral-Italic-4e" d="M 4653 4179
L 4653 4077
Q 4480 4038 4413 4016
Q 4346 3994 4266 3882
Q 4186 3770 4144 3635
Q 4102 3501 4000 3149
L 3066 -96
L 2950 -96
L 1478 3424
L 749 723
Q 691 525 691 378
Q 691 243 790 182
Q 890 122 1139 102
L 1139 0
L -128 0
L -128 102
Q 147 141 262 304
Q 378 467 550 1075
L 1299 3731
Q 1152 4077 749 4077
L 749 4179
L 1773 4179
L 3098 986
L 3776 3469
Q 3827 3648 3827 3750
Q 3827 3923 3740 3987
Q 3654 4051 3386 4077
L 3386 4179
L 4653 4179
z
" transform="scale(0.015625)"/>
      <path id="STIXGeneral-Regular-28" d="M 1946 -1030
L 1869 -1133
Q 1126 -710 716 32
Q 307 774 307 1613
Q 307 3386 1888 4326
L 1946 4224
Q 1293 3667 1075 3126
Q 858 2586 858 1632
Q 858 685 1082 96
Q 1306 -493 1946 -1030
z
" transform="scale(0.015625)"/>
      <path id="STIXGeneral-Italic-79" d="M 1555 1190
L 1690 486
Q 2118 1190 2294 1558
Q 2470 1926 2470 2131
Q 2470 2234 2304 2336
Q 2138 2445 2138 2586
Q 2138 2688 2211 2755
Q 2285 2822 2394 2822
Q 2534 2822 2630 2720
Q 2726 2618 2726 2470
Q 2726 1914 1888 518
Q 1389 -307 918 -812
Q 448 -1318 173 -1318
Q 26 -1318 -64 -1241
Q -154 -1165 -154 -1043
Q -154 -934 -80 -860
Q -6 -787 96 -787
Q 218 -787 314 -876
Q 410 -966 486 -966
Q 602 -966 794 -755
Q 877 -672 1040 -457
Q 1203 -243 1248 -173
Q 1312 -45 1312 51
Q 1312 243 1113 1046
Q 915 1850 787 2176
Q 698 2413 592 2499
Q 486 2586 294 2586
Q 192 2586 96 2560
L 96 2669
Q 237 2694 301 2707
Q 563 2758 986 2822
L 1011 2822
Q 1082 2822 1277 2227
Q 1472 1632 1555 1190
z
" transform="scale(0.015625)"/>
      <path id="STIXGeneral-Regular-2c" d="M 531 -902
L 467 -781
Q 998 -422 998 -96
Q 998 -13 909 -13
Q 883 -13 822 -25
Q 762 -38 723 -38
Q 352 -38 352 288
Q 352 454 457 553
Q 563 653 736 653
Q 954 653 1101 496
Q 1248 339 1248 96
Q 1248 -198 1053 -473
Q 858 -749 531 -902
z
" transform="scale(0.015625)"/>
      <path id="STIXGeneral-Italic-61" d="M 2963 710
L 3046 640
Q 2688 205 2518 70
Q 2349 -64 2157 -64
Q 1901 -64 1901 198
Q 1901 358 2048 934
Q 1690 397 1389 163
Q 1088 -70 749 -70
Q 467 -70 288 125
Q 109 320 109 672
Q 109 1158 387 1664
Q 666 2170 1094 2496
Q 1523 2822 1939 2822
Q 2368 2822 2451 2451
L 2522 2758
L 2541 2778
L 2931 2822
L 2976 2803
Q 2970 2778 2938 2669
Q 2368 595 2368 346
Q 2368 262 2458 262
Q 2554 262 2790 525
L 2963 710
z
M 2336 2310
Q 2336 2477 2240 2579
Q 2144 2682 1978 2682
Q 1542 2682 1139 2093
Q 928 1779 787 1395
Q 646 1011 646 717
Q 646 243 1030 243
Q 1408 243 1843 870
Q 2336 1581 2336 2310
z
" transform="scale(0.015625)"/>
      <path id="STIXGeneral-Regular-29" d="M 186 4224
L 262 4326
Q 992 3891 1408 3148
Q 1824 2406 1824 1581
Q 1824 -166 243 -1133
L 186 -1030
Q 845 -486 1059 54
Q 1274 595 1274 1562
Q 1274 2534 1059 3120
Q 845 3706 186 4224
z
" transform="scale(0.015625)"/>
      <path id="STIXGeneral-Regular-3d" d="M 4077 2048
L 307 2048
L 307 2470
L 4077 2470
L 4077 2048
z
M 4077 768
L 307 768
L 307 1190
L 4077 1190
L 4077 768
z
" transform="scale(0.015625)"/>
      <path id="STIXGeneral-Regular-7b" d="M 2240 -1088
L 2240 -1158
Q 1702 -1152 1466 -998
Q 1184 -819 1184 -262
L 1184 870
Q 1184 1203 1072 1350
Q 960 1498 640 1600
Q 960 1696 1072 1843
Q 1184 1990 1184 2323
L 1184 3462
Q 1184 4019 1466 4192
Q 1709 4346 2240 4352
L 2240 4282
Q 1907 4198 1782 4025
Q 1658 3853 1658 3494
L 1658 2419
Q 1658 2022 1536 1856
Q 1414 1690 1056 1594
Q 1414 1504 1536 1337
Q 1658 1171 1658 774
L 1658 -301
Q 1658 -659 1782 -832
Q 1907 -1005 2240 -1088
z
" transform="scale(0.015625)"/>
      <path id="STIXGeneral-Italic-52" d="M 845 4179
L 2458 4179
Q 3078 4179 3420 3936
Q 3763 3693 3763 3277
Q 3763 2778 3341 2458
Q 3091 2266 2502 2131
L 3072 627
Q 3181 333 3299 217
Q 3418 102 3629 102
L 3629 0
L 2688 0
L 1901 2074
L 1478 2106
L 1126 806
Q 1043 512 1043 403
Q 1043 256 1126 192
Q 1210 128 1472 102
L 1472 0
L -83 0
L -83 102
Q 173 134 278 243
Q 384 352 461 646
L 1222 3405
Q 1299 3699 1299 3808
Q 1299 3923 1210 3987
Q 1133 4038 845 4077
L 845 4179
z
M 1958 3795
L 1555 2342
Q 1754 2310 1882 2310
Q 2451 2310 2771 2566
Q 3091 2822 3091 3270
Q 3091 3603 2892 3795
Q 2694 3987 2323 3987
Q 2010 3987 1958 3795
z
" transform="scale(0.015625)"/>
      <path id="STIXGeneral-Italic-6e" d="M 2944 749
L 3034 666
Q 2707 218 2534 80
Q 2362 -58 2138 -58
Q 2010 -58 1923 28
Q 1837 115 1837 288
Q 1837 390 1939 768
L 2221 1805
Q 2310 2150 2310 2310
Q 2310 2496 2157 2496
Q 1971 2496 1750 2275
Q 1530 2054 1210 1587
Q 998 1274 899 1024
Q 800 774 570 0
L 90 0
L 704 2240
Q 717 2304 717 2349
Q 717 2445 630 2480
Q 544 2515 301 2522
L 301 2624
Q 550 2675 857 2729
Q 1165 2784 1338 2822
L 1363 2810
L 934 1414
Q 1408 2170 1753 2496
Q 2099 2822 2413 2822
Q 2611 2822 2720 2716
Q 2829 2611 2829 2432
Q 2829 2272 2765 2048
L 2406 749
Q 2317 429 2317 358
Q 2317 243 2419 243
Q 2541 243 2810 582
Q 2854 634 2944 749
z
" transform="scale(0.015625)"/>
      <path id="STIXGeneral-Italic-3b5" d="M 2304 627
L 2406 563
Q 1907 -70 1133 -70
Q 192 -70 192 640
Q 192 928 403 1158
Q 614 1389 934 1472
Q 774 1498 684 1616
Q 595 1734 595 1882
Q 602 2266 995 2544
Q 1389 2822 2029 2822
Q 2336 2822 2528 2672
Q 2720 2522 2720 2291
Q 2720 2163 2617 2080
Q 2515 1997 2413 1997
Q 2298 1997 2230 2067
Q 2163 2138 2163 2253
Q 2163 2317 2211 2409
Q 2259 2502 2259 2560
Q 2259 2688 2022 2688
Q 1683 2688 1401 2496
Q 1120 2304 1120 1907
Q 1120 1741 1251 1654
Q 1382 1568 1594 1568
Q 1613 1568 1728 1590
Q 1843 1613 1932 1613
Q 2022 1613 2086 1574
Q 2150 1536 2150 1478
Q 2150 1306 1862 1306
Q 1805 1306 1721 1334
Q 1638 1363 1568 1363
Q 1286 1363 1014 1184
Q 742 1005 742 678
Q 742 410 908 285
Q 1075 160 1312 160
Q 1869 160 2304 627
z
" transform="scale(0.015625)"/>
      <path id="STIXGeneral-Regular-3a" d="M 1123 2832
Q 1229 2726 1229 2579
Q 1229 2432 1126 2329
Q 1024 2227 877 2227
Q 730 2227 624 2332
Q 518 2438 518 2579
Q 518 2733 620 2835
Q 723 2938 877 2938
Q 1018 2938 1123 2832
z
M 1229 282
Q 1229 141 1126 35
Q 1024 -70 877 -70
Q 730 -70 624 35
Q 518 141 518 282
Q 518 435 620 537
Q 723 640 877 640
Q 1018 640 1123 534
Q 1229 429 1229 282
z
" transform="scale(0.015625)"/>
      <path id="STIXGeneral-Regular-2208" d="M 4000 -173
L 2138 -173
Q 1382 -173 883 355
Q 384 883 384 1612
Q 384 2342 877 2870
Q 1370 3398 2118 3398
L 4000 3398
L 4000 2976
L 2144 2976
Q 1664 2976 1286 2633
Q 909 2291 826 1824
L 4000 1824
L 4000 1402
L 819 1402
Q 902 934 1280 592
Q 1658 250 2138 250
L 4000 250
L 4000 -173
z
" transform="scale(0.015625)"/>
      <path id="STIXNonUnicode-Italic-e23a" d="M 4294 800
L 4301 800
Q 5293 4070 5408 4378
Q 5472 4538 5523 4614
Q 5830 5088 6253 5088
Q 6490 5088 6650 4931
Q 6810 4774 6810 4550
Q 6810 4378 6720 4272
Q 6630 4166 6470 4166
Q 6368 4166 6297 4224
Q 6227 4282 6198 4349
Q 6170 4416 6118 4473
Q 6067 4531 6003 4531
Q 5939 4531 5881 4508
Q 5824 4486 5785 4457
Q 5747 4429 5705 4371
Q 5664 4314 5638 4275
Q 5613 4237 5584 4163
Q 5555 4090 5545 4058
Q 5536 4026 5510 3952
Q 5485 3878 5485 3866
L 4262 -154
L 4134 -154
Q 3078 1280 2483 2893
L 2470 2893
Q 2406 2579 2358 2361
Q 2310 2144 2214 1792
Q 2118 1440 2028 1190
Q 1939 941 1804 653
Q 1670 365 1529 185
Q 1389 6 1203 -115
Q 1018 -237 813 -237
Q 576 -237 416 -80
Q 256 77 256 301
Q 256 474 345 579
Q 435 685 595 685
Q 698 685 768 627
Q 838 570 867 502
Q 896 435 947 377
Q 998 320 1062 320
Q 1222 320 1369 480
Q 1517 640 1638 928
Q 1760 1216 1862 1542
Q 1965 1869 2057 2288
Q 2150 2707 2214 3033
Q 2278 3360 2348 3741
Q 2419 4122 2458 4294
L 2630 4294
Q 2682 4166 2874 3680
Q 3066 3194 3142 3008
Q 3219 2822 3392 2422
Q 3565 2022 3683 1798
Q 3802 1574 3968 1292
Q 4134 1011 4294 800
z
" transform="scale(0.015625)"/>
      <path id="STIXGeneral-Regular-7d" d="M 1888 3456
L 1888 2323
Q 1888 1990 2000 1843
Q 2112 1696 2432 1600
Q 2112 1498 2000 1350
Q 1888 1203 1888 870
L 1888 -269
Q 1888 -826 1606 -998
Q 1363 -1152 832 -1158
L 832 -1088
Q 1165 -1005 1289 -832
Q 1414 -659 1414 -301
L 1414 774
Q 1414 1171 1536 1337
Q 1658 1504 2016 1600
Q 1658 1690 1536 1853
Q 1414 2016 1414 2419
L 1414 3494
Q 1414 3853 1289 4025
Q 1165 4198 832 4282
L 832 4352
Q 1370 4346 1606 4192
Q 1888 4013 1888 3456
z
" transform="scale(0.015625)"/>
     </defs>
     <use xlink:href="#STIXNonUnicode-Italic-e23b" transform="translate(0 0.5)"/>
     <use xlink:href="#STIXGeneral-Italic-4e" transform="translate(75.243263 -12.728125) scale(0.7)"/>
     <use xlink:href="#STIXGeneral-Regular-28" transform="translate(126.342636 0.5)"/>
     <use xlink:href="#STIXGeneral-Italic-79" transform="translate(159.642624 0.5)"/>
     <use xlink:href="#STIXGeneral-Regular-2c" transform="translate(204.042617 0.5)"/>
     <use xlink:href="#STIXGeneral-Italic-61" transform="translate(243.482599 0.5)"/>
     <use xlink:href="#STIXGeneral-Regular-29" transform="translate(293.582589 0.5)"/>
     <use xlink:href="#STIXGeneral-Regular-3d" transform="translate(341.322574 0.5)"/>
     <use xlink:href="#STIXGeneral-Regular-7b" transform="translate(424.262555 0.5)"/>
     <use xlink:href="#STIXGeneral-Italic-52" transform="translate(472.262539 0.5)"/>
     <use xlink:href="#STIXGeneral-Regular-28" transform="translate(533.36253 0.5)"/>
     <use xlink:href="#STIXGeneral-Italic-79" transform="translate(566.662518 0.5)"/>
     <use xlink:href="#STIXGeneral-Regular-2c" transform="translate(611.062512 0.5)"/>
     <use xlink:href="#STIXGeneral-Italic-61" transform="translate(650.502493 0.5)"/>
     <use xlink:href="#STIXGeneral-Regular-2c" transform="translate(700.602484 0.5)"/>
     <use xlink:href="#STIXGeneral-Italic-6e" transform="translate(740.042465 0.5)"/>
     <use xlink:href="#STIXGeneral-Regular-2c" transform="translate(790.04245 0.5)"/>
     <use xlink:href="#STIXGeneral-Italic-3b5" transform="translate(829.482431 0.5)"/>
     <use xlink:href="#STIXGeneral-Regular-29" transform="translate(873.882425 0.5)"/>
     <use xlink:href="#STIXGeneral-Regular-3a" transform="translate(921.622409 0.5)"/>
     <use xlink:href="#STIXGeneral-Italic-6e" transform="translate(963.862393 0.5)"/>
     <use xlink:href="#STIXGeneral-Regular-2208" transform="translate(1028.302374 0.5)"/>
     <use xlink:href="#STIXNonUnicode-Italic-e23a" transform="translate(1111.242355 0.5)"/>
     <use xlink:href="#STIXGeneral-Regular-7d" transform="translate(1206.942337 0.5)"/>
    </g>
   </g>
  </g>
 </g>
</svg>
