<?xml version="1.0" encoding="utf-8" standalone="no"?>
<!DOCTYPE svg PUBLIC "-//W3C//DTD SVG 1.1//EN"
  "http://www.w3.org/Graphics/SVG/1.1/DTD/svg11.dtd">
<svg xmlns:xlink="http://www.w3.org/1999/xlink" width="803.52pt" height="123.12pt" viewBox="0 0 803.52 123.12" xmlns="http://www.w3.org/2000/svg" version="1.1">
 <metadata>
  <rdf:RDF xmlns:dc="http://purl.org/dc/elements/1.1/" xmlns:cc="http://creativecommons.org/ns#" xmlns:rdf="http://www.w3.org/1999/02/22-rdf-syntax-ns#">
   <cc:Work>
    <dc:type rdf:resource="http://purl.org/dc/dcmitype/StillImage"/>
    <dc:date>2026-05-18T16:36:20.512451</dc:date>
    <dc:format>image/svg+xml</dc:format>
    <dc:creator>
     <cc:Agent>
      <dc:title>Matplotlib v3.7.3, https://matplotlib.org/</dc:title>
     </cc:Agent>
    </dc:creator>
   </cc:Work>
  </rdf:RDF>
 </metadata>
 <defs>
  <style type="text/css">*{stroke-linejoin: round; stroke-linecap: butt}</style>
 </defs>
 <g id="figure_1">
  <g id="patch_1">
   <path d="M 0 123.12
L 803.52 123.12
L 803.52 0
L 0 0
L 0 123.12
z
" style="fill: none; opacity: 0"/>
  </g>
  <g id="axes_1">
   <g id="text_1">
    <!-- $\min_f\frac{1}{n}\sum_{i=1}^{n}\mathbb{E}_{n\sim\mathcal{N}}[\ell(f(R(y_i,a_i,n)),y_i)]$ -->
    <g style="fill: #111111" transform="translate(209.96 66.32) scale(0.28 -0.28)">
     <defs>
      <path id="STIXGeneral-Regular-6d" d="M 4960 0
L 3565 0
L 3565 96
Q 3834 122 3907 208
Q 3981 294 3981 576
L 3981 1894
Q 3981 2278 3869 2444
Q 3757 2611 3488 2611
Q 3264 2611 3107 2521
Q 2950 2432 2803 2221
L 2803 608
Q 2803 301 2896 201
Q 2989 102 3264 96
L 3264 0
L 1830 0
L 1830 96
Q 2112 115 2189 188
Q 2266 262 2266 550
L 2266 1901
Q 2266 2611 1850 2611
Q 1670 2611 1468 2531
Q 1267 2451 1171 2336
Q 1088 2240 1088 2227
L 1088 448
Q 1088 243 1177 176
Q 1267 109 1523 96
L 1523 0
L 102 0
L 102 96
Q 371 102 460 195
Q 550 288 550 563
L 550 2150
Q 550 2387 499 2480
Q 448 2573 326 2573
Q 230 2573 122 2547
L 122 2656
Q 557 2778 1011 2944
L 1062 2925
L 1062 2451
L 1075 2451
Q 1363 2752 1584 2848
Q 1805 2944 2054 2944
Q 2560 2944 2733 2406
Q 3232 2944 3776 2944
Q 4518 2944 4518 1792
L 4518 493
Q 4518 282 4582 202
Q 4646 122 4794 109
L 4960 96
L 4960 0
z
" transform="scale(0.015625)"/>
      <path id="STIXGeneral-Regular-69" d="M 1152 4045
Q 1152 3904 1056 3811
Q 960 3718 819 3718
Q 685 3718 592 3811
Q 499 3904 499 4045
Q 499 4179 595 4275
Q 691 4371 826 4371
Q 966 4371 1059 4275
Q 1152 4179 1152 4045
z
M 1619 0
L 102 0
L 102 96
Q 435 115 521 211
Q 608 307 608 666
L 608 2118
Q 608 2342 563 2432
Q 518 2522 397 2522
Q 243 2522 128 2490
L 128 2592
L 1120 2944
L 1146 2918
L 1146 672
Q 1146 314 1226 218
Q 1306 122 1619 96
L 1619 0
z
" transform="scale(0.015625)"/>
      <path id="STIXGeneral-Regular-6e" d="M 3104 0
L 1773 0
L 1779 96
Q 2016 115 2096 233
Q 2176 352 2176 672
L 2176 1946
Q 2176 2592 1709 2592
Q 1549 2592 1408 2515
Q 1267 2438 1050 2227
L 1050 461
Q 1050 269 1136 192
Q 1222 115 1466 96
L 1466 0
L 115 0
L 115 96
Q 358 115 435 214
Q 512 314 512 602
L 512 2157
Q 512 2394 467 2483
Q 422 2573 288 2573
Q 160 2573 102 2547
L 102 2656
Q 550 2784 979 2944
L 1030 2925
L 1030 2426
L 1037 2426
Q 1491 2944 1958 2944
Q 2323 2944 2518 2688
Q 2714 2432 2714 1958
L 2714 544
Q 2714 288 2790 205
Q 2867 122 3104 96
L 3104 0
z
" transform="scale(0.015625)"/>
      <path id="STIXGeneral-Italic-66" d="M 262 2739
L 858 2739
Q 1107 3546 1318 3846
Q 1664 4339 2163 4339
Q 2400 4339 2557 4227
Q 2714 4115 2714 3942
Q 2714 3834 2634 3750
Q 2554 3667 2445 3667
Q 2355 3667 2281 3737
Q 2208 3808 2208 3917
Q 2208 3981 2240 4038
Q 2272 4096 2272 4115
Q 2272 4198 2131 4198
Q 1862 4198 1676 3849
Q 1491 3501 1350 2739
L 2035 2739
L 1997 2534
L 1306 2534
L 845 486
Q 435 -1325 -435 -1325
Q -653 -1325 -797 -1213
Q -941 -1101 -941 -934
Q -941 -826 -870 -746
Q -800 -666 -698 -666
Q -589 -666 -521 -733
Q -454 -800 -454 -902
Q -454 -947 -483 -1001
Q -512 -1056 -512 -1088
Q -512 -1190 -384 -1190
Q 13 -1190 237 -154
L 800 2534
L 218 2534
L 262 2739
z
" transform="scale(0.015625)"/>
      <path id="STIXGeneral-Regular-31" d="M 2522 0
L 755 0
L 755 96
Q 1107 115 1235 227
Q 1363 339 1363 608
L 1363 3482
Q 1363 3795 1171 3795
Q 1082 3795 883 3718
L 710 3654
L 710 3744
L 1856 4326
L 1914 4307
L 1914 486
Q 1914 275 2042 185
Q 2170 96 2522 96
L 2522 0
z
" transform="scale(0.015625)"/>
      <path id="STIXGeneral-Italic-6e" d="M 2944 749
L 3034 666
Q 2707 218 2534 80
Q 2362 -58 2138 -58
Q 2010 -58 1923 28
Q 1837 115 1837 288
Q 1837 390 1939 768
L 2221 1805
Q 2310 2150 2310 2310
Q 2310 2496 2157 2496
Q 1971 2496 1750 2275
Q 1530 2054 1210 1587
Q 998 1274 899 1024
Q 800 774 570 0
L 90 0
L 704 2240
Q 717 2304 717 2349
Q 717 2445 630 2480
Q 544 2515 301 2522
L 301 2624
Q 550 2675 857 2729
Q 1165 2784 1338 2822
L 1363 2810
L 934 1414
Q 1408 2170 1753 2496
Q 2099 2822 2413 2822
Q 2611 2822 2720 2716
Q 2829 2611 2829 2432
Q 2829 2272 2765 2048
L 2406 749
Q 2317 429 2317 358
Q 2317 243 2419 243
Q 2541 243 2810 582
Q 2854 634 2944 749
z
" transform="scale(0.015625)"/>
      <path id="STIXGeneral-Regular-2211" d="M 5478 256
L 5139 -1658
L 371 -1658
L 2880 1606
L 531 4883
L 5312 4883
L 5312 3277
L 5120 3277
Q 5018 3949 4765 4205
Q 4512 4461 3891 4461
L 1843 4461
L 3699 1958
L 1549 -819
L 4198 -819
Q 4698 -819 4934 -550
Q 5171 -282 5286 256
L 5478 256
z
" transform="scale(0.015625)"/>
      <path id="STIXGeneral-Italic-69" d="M 1690 3834
Q 1690 3699 1597 3603
Q 1504 3507 1376 3507
Q 1235 3507 1152 3600
Q 1069 3693 1069 3846
Q 1069 3994 1155 4090
Q 1242 4186 1370 4186
Q 1498 4186 1594 4080
Q 1690 3974 1690 3834
z
M 1421 730
L 1504 659
Q 1235 243 1049 86
Q 864 -70 627 -70
Q 314 -70 314 282
Q 314 467 454 992
L 762 2125
Q 819 2330 819 2406
Q 819 2502 745 2528
Q 672 2554 410 2560
L 410 2662
Q 704 2688 1434 2822
L 1459 2803
L 858 608
Q 794 390 794 326
Q 794 230 883 230
Q 1043 230 1421 730
z
" transform="scale(0.015625)"/>
      <path id="STIXGeneral-Regular-3d" d="M 4077 2048
L 307 2048
L 307 2470
L 4077 2470
L 4077 2048
z
M 4077 768
L 307 768
L 307 1190
L 4077 1190
L 4077 768
z
" transform="scale(0.015625)"/>
      <path id="STIXNonUnicode-Italic-e156" d="M 4250 4179
L 4192 3942
L 2150 3942
L 1709 2266
L 3514 2266
L 3443 2029
L 1645 2029
L 1165 237
L 3443 237
L 3392 0
L 109 0
L 1229 4179
L 4250 4179
z
M 1914 3942
L 1414 3942
L 416 237
L 928 237
L 1914 3942
z
" transform="scale(0.015625)"/>
      <path id="STIXGeneral-Regular-223c" d="M 3866 2317
L 4077 2317
Q 4045 1843 3769 1427
Q 3494 1011 3066 1011
Q 2803 1011 2460 1216
Q 2118 1421 1804 1625
Q 1491 1830 1306 1830
Q 992 1830 800 1580
Q 608 1331 518 947
L 307 947
Q 333 1466 617 1859
Q 902 2253 1350 2253
Q 1613 2253 1955 2048
Q 2298 1843 2611 1638
Q 2925 1434 3117 1434
Q 3680 1434 3866 2317
z
" transform="scale(0.015625)"/>
      <path id="STIXNonUnicode-Italic-e23a" d="M 4294 800
L 4301 800
Q 5293 4070 5408 4378
Q 5472 4538 5523 4614
Q 5830 5088 6253 5088
Q 6490 5088 6650 4931
Q 6810 4774 6810 4550
Q 6810 4378 6720 4272
Q 6630 4166 6470 4166
Q 6368 4166 6297 4224
Q 6227 4282 6198 4349
Q 6170 4416 6118 4473
Q 6067 4531 6003 4531
Q 5939 4531 5881 4508
Q 5824 4486 5785 4457
Q 5747 4429 5705 4371
Q 5664 4314 5638 4275
Q 5613 4237 5584 4163
Q 5555 4090 5545 4058
Q 5536 4026 5510 3952
Q 5485 3878 5485 3866
L 4262 -154
L 4134 -154
Q 3078 1280 2483 2893
L 2470 2893
Q 2406 2579 2358 2361
Q 2310 2144 2214 1792
Q 2118 1440 2028 1190
Q 1939 941 1804 653
Q 1670 365 1529 185
Q 1389 6 1203 -115
Q 1018 -237 813 -237
Q 576 -237 416 -80
Q 256 77 256 301
Q 256 474 345 579
Q 435 685 595 685
Q 698 685 768 627
Q 838 570 867 502
Q 896 435 947 377
Q 998 320 1062 320
Q 1222 320 1369 480
Q 1517 640 1638 928
Q 1760 1216 1862 1542
Q 1965 1869 2057 2288
Q 2150 2707 2214 3033
Q 2278 3360 2348 3741
Q 2419 4122 2458 4294
L 2630 4294
Q 2682 4166 2874 3680
Q 3066 3194 3142 3008
Q 3219 2822 3392 2422
Q 3565 2022 3683 1798
Q 3802 1574 3968 1292
Q 4134 1011 4294 800
z
" transform="scale(0.015625)"/>
      <path id="STIXGeneral-Regular-5b" d="M 1914 -998
L 563 -998
L 563 4237
L 1914 4237
L 1914 4077
L 1382 4077
Q 1216 4077 1133 4006
Q 1050 3936 1050 3770
L 1050 -493
Q 1050 -838 1382 -838
L 1914 -838
L 1914 -998
z
" transform="scale(0.015625)"/>
      <path id="STIXGeneral-Italic-2113" d="M 493 2490
L 582 2656
Q 813 2496 1184 2496
Q 1728 3296 2301 3846
Q 2874 4397 3245 4397
Q 3654 4397 3654 3968
Q 3654 3450 3036 2938
Q 2419 2426 1594 2304
Q 678 826 678 397
Q 678 122 909 122
Q 1120 122 1398 365
Q 1677 608 2182 1190
L 2317 1082
Q 1773 448 1462 189
Q 1152 -70 864 -70
Q 627 -70 467 74
Q 307 218 307 486
Q 307 1024 800 1882
Q 877 2022 1056 2304
Q 742 2317 493 2490
z
M 1715 2534
L 1722 2528
Q 2470 2694 2966 3113
Q 3462 3533 3462 3994
Q 3462 4192 3238 4192
Q 3002 4192 2714 3891
Q 2342 3514 1715 2534
z
" transform="scale(0.015625)"/>
      <path id="STIXGeneral-Regular-28" d="M 1946 -1030
L 1869 -1133
Q 1126 -710 716 32
Q 307 774 307 1613
Q 307 3386 1888 4326
L 1946 4224
Q 1293 3667 1075 3126
Q 858 2586 858 1632
Q 858 685 1082 96
Q 1306 -493 1946 -1030
z
" transform="scale(0.015625)"/>
      <path id="STIXGeneral-Italic-52" d="M 845 4179
L 2458 4179
Q 3078 4179 3420 3936
Q 3763 3693 3763 3277
Q 3763 2778 3341 2458
Q 3091 2266 2502 2131
L 3072 627
Q 3181 333 3299 217
Q 3418 102 3629 102
L 3629 0
L 2688 0
L 1901 2074
L 1478 2106
L 1126 806
Q 1043 512 1043 403
Q 1043 256 1126 192
Q 1210 128 1472 102
L 1472 0
L -83 0
L -83 102
Q 173 134 278 243
Q 384 352 461 646
L 1222 3405
Q 1299 3699 1299 3808
Q 1299 3923 1210 3987
Q 1133 4038 845 4077
L 845 4179
z
M 1958 3795
L 1555 2342
Q 1754 2310 1882 2310
Q 2451 2310 2771 2566
Q 3091 2822 3091 3270
Q 3091 3603 2892 3795
Q 2694 3987 2323 3987
Q 2010 3987 1958 3795
z
" transform="scale(0.015625)"/>
      <path id="STIXGeneral-Italic-79" d="M 1555 1190
L 1690 486
Q 2118 1190 2294 1558
Q 2470 1926 2470 2131
Q 2470 2234 2304 2336
Q 2138 2445 2138 2586
Q 2138 2688 2211 2755
Q 2285 2822 2394 2822
Q 2534 2822 2630 2720
Q 2726 2618 2726 2470
Q 2726 1914 1888 518
Q 1389 -307 918 -812
Q 448 -1318 173 -1318
Q 26 -1318 -64 -1241
Q -154 -1165 -154 -1043
Q -154 -934 -80 -860
Q -6 -787 96 -787
Q 218 -787 314 -876
Q 410 -966 486 -966
Q 602 -966 794 -755
Q 877 -672 1040 -457
Q 1203 -243 1248 -173
Q 1312 -45 1312 51
Q 1312 243 1113 1046
Q 915 1850 787 2176
Q 698 2413 592 2499
Q 486 2586 294 2586
Q 192 2586 96 2560
L 96 2669
Q 237 2694 301 2707
Q 563 2758 986 2822
L 1011 2822
Q 1082 2822 1277 2227
Q 1472 1632 1555 1190
z
" transform="scale(0.015625)"/>
      <path id="STIXGeneral-Regular-2c" d="M 531 -902
L 467 -781
Q 998 -422 998 -96
Q 998 -13 909 -13
Q 883 -13 822 -25
Q 762 -38 723 -38
Q 352 -38 352 288
Q 352 454 457 553
Q 563 653 736 653
Q 954 653 1101 496
Q 1248 339 1248 96
Q 1248 -198 1053 -473
Q 858 -749 531 -902
z
" transform="scale(0.015625)"/>
      <path id="STIXGeneral-Italic-61" d="M 2963 710
L 3046 640
Q 2688 205 2518 70
Q 2349 -64 2157 -64
Q 1901 -64 1901 198
Q 1901 358 2048 934
Q 1690 397 1389 163
Q 1088 -70 749 -70
Q 467 -70 288 125
Q 109 320 109 672
Q 109 1158 387 1664
Q 666 2170 1094 2496
Q 1523 2822 1939 2822
Q 2368 2822 2451 2451
L 2522 2758
L 2541 2778
L 2931 2822
L 2976 2803
Q 2970 2778 2938 2669
Q 2368 595 2368 346
Q 2368 262 2458 262
Q 2554 262 2790 525
L 2963 710
z
M 2336 2310
Q 2336 2477 2240 2579
Q 2144 2682 1978 2682
Q 1542 2682 1139 2093
Q 928 1779 787 1395
Q 646 1011 646 717
Q 646 243 1030 243
Q 1408 243 1843 870
Q 2336 1581 2336 2310
z
" transform="scale(0.015625)"/>
      <path id="STIXGeneral-Regular-29" d="M 186 4224
L 262 4326
Q 992 3891 1408 3148
Q 1824 2406 1824 1581
Q 1824 -166 243 -1133
L 186 -1030
Q 845 -486 1059 54
Q 1274 595 1274 1562
Q 1274 2534 1059 3120
Q 845 3706 186 4224
z
" transform="scale(0.015625)"/>
      <path id="STIXGeneral-Regular-5d" d="M 1568 -998
L 218 -998
L 218 -838
L 781 -838
Q 947 -838 1014 -768
Q 1082 -698 1082 -544
L 1082 3731
Q 1082 4077 755 4077
L 218 4077
L 218 4237
L 1568 4237
L 1568 -998
z
" transform="scale(0.015625)"/>
     </defs>
     <use xlink:href="#STIXGeneral-Regular-6d" transform="translate(0 0.453125)"/>
     <use xlink:href="#STIXGeneral-Regular-69" transform="translate(77.799988 0.453125)"/>
     <use xlink:href="#STIXGeneral-Regular-6e" transform="translate(105.599976 0.453125)"/>
     <use xlink:href="#STIXGeneral-Italic-66" transform="translate(58 -65.754687) scale(0.7)"/>
     <use xlink:href="#STIXGeneral-Regular-31" transform="translate(155.59996 38.25) scale(0.7)"/>
     <use xlink:href="#STIXGeneral-Italic-6e" transform="translate(155.59996 -23.865625) scale(0.7)"/>
     <use xlink:href="#STIXGeneral-Italic-6e" transform="translate(247.09995 96.134375) scale(0.7)"/>
     <use xlink:href="#STIXGeneral-Regular-2211" transform="translate(224.09995 0.453125)"/>
     <use xlink:href="#STIXGeneral-Italic-69" transform="translate(203.09995 -91.51875) scale(0.7)"/>
     <use xlink:href="#STIXGeneral-Regular-3d" transform="translate(232.667939 -91.51875) scale(0.7)"/>
     <use xlink:href="#STIXGeneral-Regular-31" transform="translate(290.725925 -91.51875) scale(0.7)"/>
     <use xlink:href="#STIXNonUnicode-Italic-e156" transform="translate(325.725915 0.453125)"/>
     <use xlink:href="#STIXGeneral-Italic-6e" transform="translate(391.16919 -12.775) scale(0.7)"/>
     <use xlink:href="#STIXGeneral-Regular-223c" transform="translate(436.277177 -12.775) scale(0.7)"/>
     <use xlink:href="#STIXNonUnicode-Italic-e23a" transform="translate(494.335163 -12.775) scale(0.7)"/>
     <use xlink:href="#STIXGeneral-Regular-5b" transform="translate(577.768096 0.453125)"/>
     <use xlink:href="#STIXGeneral-Italic-2113" transform="translate(611.068084 0.453125)"/>
     <use xlink:href="#STIXGeneral-Regular-28" transform="translate(668.968078 0.453125)"/>
     <use xlink:href="#STIXGeneral-Italic-66" transform="translate(702.268066 0.453125)"/>
     <use xlink:href="#STIXGeneral-Regular-28" transform="translate(730.068054 0.453125)"/>
     <use xlink:href="#STIXGeneral-Italic-52" transform="translate(763.368041 0.453125)"/>
     <use xlink:href="#STIXGeneral-Regular-28" transform="translate(824.468032 0.453125)"/>
     <use xlink:href="#STIXGeneral-Italic-79" transform="translate(857.76802 0.453125)"/>
     <use xlink:href="#STIXGeneral-Italic-69" transform="translate(902.168014 -12.775) scale(0.7)"/>
     <use xlink:href="#STIXGeneral-Regular-2c" transform="translate(926.03738 0.453125)"/>
     <use xlink:href="#STIXGeneral-Italic-61" transform="translate(965.477362 0.453125)"/>
     <use xlink:href="#STIXGeneral-Italic-69" transform="translate(1015.577352 -12.775) scale(0.7)"/>
     <use xlink:href="#STIXGeneral-Regular-2c" transform="translate(1039.446719 0.453125)"/>
     <use xlink:href="#STIXGeneral-Italic-6e" transform="translate(1078.8867 0.453125)"/>
     <use xlink:href="#STIXGeneral-Regular-29" transform="translate(1128.886685 0.453125)"/>
     <use xlink:href="#STIXGeneral-Regular-29" transform="translate(1162.186672 0.453125)"/>
     <use xlink:href="#STIXGeneral-Regular-2c" transform="translate(1195.48666 0.453125)"/>
     <use xlink:href="#STIXGeneral-Italic-79" transform="translate(1234.926641 0.453125)"/>
     <use xlink:href="#STIXGeneral-Italic-69" transform="translate(1279.326635 -12.775) scale(0.7)"/>
     <use xlink:href="#STIXGeneral-Regular-29" transform="translate(1303.196002 0.453125)"/>
     <use xlink:href="#STIXGeneral-Regular-5d" transform="translate(1336.495989 0.453125)"/>
     <path d="M 155.59996 13.25
L 155.59996 19.5
L 190.59995 19.5
L 190.59995 13.25
L 155.59996 13.25
z
"/>
    </g>
   </g>
  </g>
 </g>
</svg>
