<?xml version="1.0" encoding="utf-8" standalone="no"?>
<!DOCTYPE svg PUBLIC "-//W3C//DTD SVG 1.1//EN"
  "http://www.w3.org/Graphics/SVG/1.1/DTD/svg11.dtd">
<svg xmlns:xlink="http://www.w3.org/1999/xlink" width="1091.52pt" height="123.12pt" viewBox="0 0 1091.52 123.12" xmlns="http://www.w3.org/2000/svg" version="1.1">
 <metadata>
  <rdf:RDF xmlns:dc="http://purl.org/dc/elements/1.1/" xmlns:cc="http://creativecommons.org/ns#" xmlns:rdf="http://www.w3.org/1999/02/22-rdf-syntax-ns#">
   <cc:Work>
    <dc:type rdf:resource="http://purl.org/dc/dcmitype/StillImage"/>
    <dc:date>2026-05-18T16:36:19.614347</dc:date>
    <dc:format>image/svg+xml</dc:format>
    <dc:creator>
     <cc:Agent>
      <dc:title>Matplotlib v3.7.3, https://matplotlib.org/</dc:title>
     </cc:Agent>
    </dc:creator>
   </cc:Work>
  </rdf:RDF>
 </metadata>
 <defs>
  <style type="text/css">*{stroke-linejoin: round; stroke-linecap: butt}</style>
 </defs>
 <g id="figure_1">
  <g id="patch_1">
   <path d="M 0 123.12
L 1091.52 123.12
L 1091.52 0
L 0 0
L 0 123.12
z
" style="fill: none; opacity: 0"/>
  </g>
  <g id="axes_1">
   <g id="text_1">
    <!-- $x(p)=R(y,a,p,\varepsilon),\quad p_{\mathrm{lower\!-\!left}}\longrightarrow p_{\mathrm{upper\!-\!right}}$ -->
    <g style="fill: #111111" transform="translate(300.9 67.02) scale(0.28 -0.28)">
     <defs>
      <path id="STIXGeneral-Italic-78" d="M 1555 2272
L 1632 1907
Q 1971 2426 2179 2624
Q 2387 2822 2598 2822
Q 2714 2822 2787 2755
Q 2861 2688 2861 2585
Q 2861 2483 2800 2419
Q 2739 2355 2643 2355
Q 2586 2355 2490 2409
Q 2394 2464 2310 2464
Q 2125 2464 1683 1690
Q 1683 1606 1734 1402
L 1939 544
Q 2003 282 2131 282
Q 2234 282 2432 538
Q 2451 563 2476 598
Q 2502 634 2521 662
Q 2541 691 2566 717
L 2662 659
Q 2387 230 2227 80
Q 2067 -70 1882 -70
Q 1728 -70 1645 26
Q 1562 122 1504 365
L 1318 1126
L 755 365
Q 557 96 432 13
Q 307 -70 147 -70
Q 0 -70 -86 0
Q -173 70 -173 198
Q -173 294 -112 361
Q -51 429 45 429
Q 122 429 250 358
Q 346 301 416 301
Q 525 301 742 614
L 1267 1357
L 1088 2150
Q 1024 2432 969 2509
Q 915 2586 794 2586
Q 717 2586 544 2541
L 429 2509
L 410 2611
L 480 2637
Q 992 2822 1229 2822
Q 1350 2822 1420 2707
Q 1491 2592 1555 2272
z
" transform="scale(0.015625)"/>
      <path id="STIXGeneral-Regular-28" d="M 1946 -1030
L 1869 -1133
Q 1126 -710 716 32
Q 307 774 307 1613
Q 307 3386 1888 4326
L 1946 4224
Q 1293 3667 1075 3126
Q 858 2586 858 1632
Q 858 685 1082 96
Q 1306 -493 1946 -1030
z
" transform="scale(0.015625)"/>
      <path id="STIXGeneral-Italic-70" d="M 1376 2739
L 1190 2099
Q 1670 2822 2285 2822
Q 2637 2822 2829 2611
Q 3021 2400 3021 2022
Q 3021 1235 2422 582
Q 1824 -70 1120 -70
Q 890 -70 678 38
Q 422 -1018 422 -1024
Q 422 -1126 508 -1168
Q 595 -1210 819 -1210
L 819 -1312
L -480 -1312
L -480 -1210
Q -275 -1203 -188 -1120
Q -102 -1037 -45 -806
L 691 1958
Q 794 2330 794 2413
Q 794 2586 512 2586
L 371 2586
L 358 2682
L 1357 2822
Q 1389 2822 1389 2797
Q 1382 2765 1376 2739
z
M 2445 2003
Q 2445 2285 2352 2416
Q 2259 2547 2048 2547
Q 1798 2547 1548 2329
Q 1299 2112 1184 1818
Q 1043 1453 905 953
Q 768 454 768 294
Q 768 186 854 118
Q 941 51 1075 51
Q 1574 51 2003 659
Q 2445 1274 2445 2003
z
" transform="scale(0.015625)"/>
      <path id="STIXGeneral-Regular-29" d="M 186 4224
L 262 4326
Q 992 3891 1408 3148
Q 1824 2406 1824 1581
Q 1824 -166 243 -1133
L 186 -1030
Q 845 -486 1059 54
Q 1274 595 1274 1562
Q 1274 2534 1059 3120
Q 845 3706 186 4224
z
" transform="scale(0.015625)"/>
      <path id="STIXGeneral-Regular-3d" d="M 4077 2048
L 307 2048
L 307 2470
L 4077 2470
L 4077 2048
z
M 4077 768
L 307 768
L 307 1190
L 4077 1190
L 4077 768
z
" transform="scale(0.015625)"/>
      <path id="STIXGeneral-Italic-52" d="M 845 4179
L 2458 4179
Q 3078 4179 3420 3936
Q 3763 3693 3763 3277
Q 3763 2778 3341 2458
Q 3091 2266 2502 2131
L 3072 627
Q 3181 333 3299 217
Q 3418 102 3629 102
L 3629 0
L 2688 0
L 1901 2074
L 1478 2106
L 1126 806
Q 1043 512 1043 403
Q 1043 256 1126 192
Q 1210 128 1472 102
L 1472 0
L -83 0
L -83 102
Q 173 134 278 243
Q 384 352 461 646
L 1222 3405
Q 1299 3699 1299 3808
Q 1299 3923 1210 3987
Q 1133 4038 845 4077
L 845 4179
z
M 1958 3795
L 1555 2342
Q 1754 2310 1882 2310
Q 2451 2310 2771 2566
Q 3091 2822 3091 3270
Q 3091 3603 2892 3795
Q 2694 3987 2323 3987
Q 2010 3987 1958 3795
z
" transform="scale(0.015625)"/>
      <path id="STIXGeneral-Italic-79" d="M 1555 1190
L 1690 486
Q 2118 1190 2294 1558
Q 2470 1926 2470 2131
Q 2470 2234 2304 2336
Q 2138 2445 2138 2586
Q 2138 2688 2211 2755
Q 2285 2822 2394 2822
Q 2534 2822 2630 2720
Q 2726 2618 2726 2470
Q 2726 1914 1888 518
Q 1389 -307 918 -812
Q 448 -1318 173 -1318
Q 26 -1318 -64 -1241
Q -154 -1165 -154 -1043
Q -154 -934 -80 -860
Q -6 -787 96 -787
Q 218 -787 314 -876
Q 410 -966 486 -966
Q 602 -966 794 -755
Q 877 -672 1040 -457
Q 1203 -243 1248 -173
Q 1312 -45 1312 51
Q 1312 243 1113 1046
Q 915 1850 787 2176
Q 698 2413 592 2499
Q 486 2586 294 2586
Q 192 2586 96 2560
L 96 2669
Q 237 2694 301 2707
Q 563 2758 986 2822
L 1011 2822
Q 1082 2822 1277 2227
Q 1472 1632 1555 1190
z
" transform="scale(0.015625)"/>
      <path id="STIXGeneral-Regular-2c" d="M 531 -902
L 467 -781
Q 998 -422 998 -96
Q 998 -13 909 -13
Q 883 -13 822 -25
Q 762 -38 723 -38
Q 352 -38 352 288
Q 352 454 457 553
Q 563 653 736 653
Q 954 653 1101 496
Q 1248 339 1248 96
Q 1248 -198 1053 -473
Q 858 -749 531 -902
z
" transform="scale(0.015625)"/>
      <path id="STIXGeneral-Italic-61" d="M 2963 710
L 3046 640
Q 2688 205 2518 70
Q 2349 -64 2157 -64
Q 1901 -64 1901 198
Q 1901 358 2048 934
Q 1690 397 1389 163
Q 1088 -70 749 -70
Q 467 -70 288 125
Q 109 320 109 672
Q 109 1158 387 1664
Q 666 2170 1094 2496
Q 1523 2822 1939 2822
Q 2368 2822 2451 2451
L 2522 2758
L 2541 2778
L 2931 2822
L 2976 2803
Q 2970 2778 2938 2669
Q 2368 595 2368 346
Q 2368 262 2458 262
Q 2554 262 2790 525
L 2963 710
z
M 2336 2310
Q 2336 2477 2240 2579
Q 2144 2682 1978 2682
Q 1542 2682 1139 2093
Q 928 1779 787 1395
Q 646 1011 646 717
Q 646 243 1030 243
Q 1408 243 1843 870
Q 2336 1581 2336 2310
z
" transform="scale(0.015625)"/>
      <path id="STIXGeneral-Italic-3b5" d="M 2304 627
L 2406 563
Q 1907 -70 1133 -70
Q 192 -70 192 640
Q 192 928 403 1158
Q 614 1389 934 1472
Q 774 1498 684 1616
Q 595 1734 595 1882
Q 602 2266 995 2544
Q 1389 2822 2029 2822
Q 2336 2822 2528 2672
Q 2720 2522 2720 2291
Q 2720 2163 2617 2080
Q 2515 1997 2413 1997
Q 2298 1997 2230 2067
Q 2163 2138 2163 2253
Q 2163 2317 2211 2409
Q 2259 2502 2259 2560
Q 2259 2688 2022 2688
Q 1683 2688 1401 2496
Q 1120 2304 1120 1907
Q 1120 1741 1251 1654
Q 1382 1568 1594 1568
Q 1613 1568 1728 1590
Q 1843 1613 1932 1613
Q 2022 1613 2086 1574
Q 2150 1536 2150 1478
Q 2150 1306 1862 1306
Q 1805 1306 1721 1334
Q 1638 1363 1568 1363
Q 1286 1363 1014 1184
Q 742 1005 742 678
Q 742 410 908 285
Q 1075 160 1312 160
Q 1869 160 2304 627
z
" transform="scale(0.015625)"/>
      <path id="STIXGeneral-Regular-6c" d="M 1645 0
L 134 0
L 134 96
Q 435 122 531 221
Q 627 320 627 589
L 627 3590
Q 627 3821 569 3910
Q 512 4000 358 4000
Q 224 4000 122 3987
L 122 4090
Q 730 4237 1133 4371
L 1165 4346
L 1165 557
Q 1165 288 1254 201
Q 1344 115 1645 96
L 1645 0
z
" transform="scale(0.015625)"/>
      <path id="STIXGeneral-Regular-6f" d="M 3008 1478
Q 3008 806 2608 371
Q 2208 -64 1568 -64
Q 979 -64 582 368
Q 186 800 186 1459
Q 186 2125 582 2534
Q 979 2944 1626 2944
Q 2221 2944 2614 2537
Q 3008 2131 3008 1478
z
M 2432 1306
Q 2432 2035 2112 2445
Q 1856 2765 1504 2765
Q 1171 2765 966 2493
Q 762 2221 762 1747
Q 762 928 1101 435
Q 1318 115 1677 115
Q 2029 115 2230 432
Q 2432 749 2432 1306
z
" transform="scale(0.015625)"/>
      <path id="STIXGeneral-Regular-77" d="M 4442 2880
L 4442 2784
Q 4346 2752 4301 2691
Q 4256 2630 4179 2438
L 3296 224
Q 3168 -90 3117 -90
Q 3085 -90 3062 -48
Q 3040 -6 2963 186
L 2381 1696
L 1664 160
Q 1549 -90 1504 -90
Q 1446 -90 1338 192
L 474 2381
Q 378 2630 314 2700
Q 250 2771 134 2784
L 134 2880
L 1286 2880
L 1286 2784
Q 1120 2765 1056 2720
Q 992 2675 992 2573
Q 992 2477 1030 2381
L 1664 710
L 2246 1984
L 2118 2342
Q 2029 2598 1942 2681
Q 1856 2765 1677 2784
L 1677 2880
L 2976 2880
L 2976 2784
Q 2752 2752 2678 2707
Q 2605 2662 2605 2560
Q 2605 2458 2714 2176
L 3251 742
L 3827 2163
Q 3936 2432 3936 2592
Q 3936 2669 3875 2710
Q 3814 2752 3654 2784
L 3654 2880
L 4442 2880
z
" transform="scale(0.015625)"/>
      <path id="STIXGeneral-Regular-65" d="M 2611 1050
L 2714 1005
Q 2330 -64 1376 -64
Q 813 -64 486 329
Q 160 723 160 1389
Q 160 2074 525 2509
Q 890 2944 1485 2944
Q 2061 2944 2374 2502
Q 2560 2246 2592 1773
L 621 1773
Q 646 1370 700 1158
Q 755 947 915 730
Q 1184 378 1626 378
Q 1939 378 2153 531
Q 2368 685 2611 1050
z
M 634 1978
L 1939 1978
Q 1882 2381 1750 2547
Q 1619 2714 1312 2714
Q 1043 2714 864 2525
Q 685 2336 634 1978
z
" transform="scale(0.015625)"/>
      <path id="STIXGeneral-Regular-72" d="M 1024 2931
L 1024 2342
Q 1267 2688 1430 2816
Q 1594 2944 1792 2944
Q 1958 2944 2051 2854
Q 2144 2765 2144 2605
Q 2144 2470 2077 2393
Q 2010 2317 1894 2317
Q 1773 2317 1638 2445
Q 1536 2541 1472 2541
Q 1338 2541 1181 2355
Q 1024 2170 1024 2016
L 1024 576
Q 1024 301 1133 205
Q 1242 109 1568 96
L 1568 0
L 32 0
L 32 96
Q 339 154 412 224
Q 486 294 486 538
L 486 2138
Q 486 2349 438 2435
Q 390 2522 269 2522
Q 166 2522 45 2496
L 45 2598
Q 448 2726 992 2944
L 1024 2931
z
" transform="scale(0.015625)"/>
      <path id="STIXGeneral-Regular-2212" d="M 3974 1408
L 410 1408
L 410 1830
L 3974 1830
L 3974 1408
z
" transform="scale(0.015625)"/>
      <path id="STIXGeneral-Regular-66" d="M 134 2880
L 659 2880
Q 666 3264 710 3478
Q 755 3693 883 3910
Q 1152 4371 1786 4371
Q 2074 4371 2262 4259
Q 2451 4147 2451 3974
Q 2451 3866 2374 3789
Q 2298 3712 2182 3712
Q 2029 3712 1894 3942
Q 1741 4192 1555 4192
Q 1197 4192 1197 3622
L 1197 2880
L 1978 2880
L 1978 2675
L 1197 2675
L 1197 666
Q 1197 307 1299 208
Q 1402 109 1792 96
L 1792 0
L 128 0
L 128 96
Q 474 115 566 214
Q 659 314 659 666
L 659 2675
L 134 2675
L 134 2880
z
" transform="scale(0.015625)"/>
      <path id="STIXGeneral-Regular-74" d="M 1702 493
L 1786 422
Q 1478 -64 1011 -64
Q 448 -64 448 749
L 448 2675
L 109 2675
Q 83 2694 83 2720
Q 83 2771 192 2842
Q 435 2982 813 3526
Q 826 3546 874 3606
Q 922 3667 941 3706
Q 986 3706 986 3622
L 986 2880
L 1632 2880
L 1632 2675
L 986 2675
L 986 845
Q 986 538 1062 403
Q 1139 269 1318 269
Q 1510 269 1702 493
z
" transform="scale(0.015625)"/>
      <path id="STIXGeneral-Regular-27f6" d="M 9722 1651
L 9722 1587
Q 8986 1274 8198 365
L 8070 486
Q 8250 742 8595 1101
Q 8685 1190 8685 1280
Q 8685 1408 8518 1408
L 352 1408
L 352 1830
L 8525 1830
Q 8576 1830 8633 1878
Q 8691 1926 8691 1971
Q 8691 2042 8602 2131
Q 8288 2432 8077 2752
L 8205 2874
Q 9005 1952 9722 1651
z
" transform="scale(0.015625)"/>
      <path id="STIXGeneral-Regular-75" d="M 3072 320
L 3072 230
Q 2573 96 2195 -58
L 2163 -38
L 2163 486
L 2150 486
Q 1747 -64 1235 -64
Q 870 -64 662 160
Q 454 384 454 755
L 454 2362
Q 454 2598 371 2688
Q 288 2778 58 2790
L 58 2880
L 992 2880
L 992 813
Q 992 595 1123 451
Q 1254 307 1446 307
Q 1760 307 1984 506
Q 2067 582 2099 649
Q 2131 717 2131 877
L 2131 2355
Q 2131 2605 2041 2678
Q 1952 2752 1658 2771
L 1658 2880
L 2669 2880
L 2669 685
Q 2669 461 2742 390
Q 2816 320 3034 320
L 3072 320
z
" transform="scale(0.015625)"/>
      <path id="STIXGeneral-Regular-70" d="M 1018 2931
L 1018 2438
Q 1421 2944 1939 2944
Q 2406 2944 2707 2560
Q 3008 2176 3008 1581
Q 3008 883 2621 409
Q 2234 -64 1664 -64
Q 1466 -64 1328 -6
Q 1190 51 1018 211
L 1018 -794
Q 1018 -1094 1120 -1180
Q 1222 -1267 1581 -1274
L 1581 -1389
L 32 -1389
L 32 -1280
Q 314 -1254 397 -1171
Q 480 -1088 480 -838
L 480 2157
Q 480 2381 429 2451
Q 378 2522 218 2522
Q 115 2522 58 2515
L 58 2618
Q 506 2752 979 2944
L 1018 2931
z
M 1018 2138
L 1018 563
Q 1018 422 1238 281
Q 1459 141 1683 141
Q 2029 141 2243 467
Q 2458 794 2458 1325
Q 2458 1888 2243 2224
Q 2029 2560 1670 2560
Q 1446 2560 1232 2419
Q 1018 2278 1018 2138
z
" transform="scale(0.015625)"/>
      <path id="STIXGeneral-Regular-69" d="M 1152 4045
Q 1152 3904 1056 3811
Q 960 3718 819 3718
Q 685 3718 592 3811
Q 499 3904 499 4045
Q 499 4179 595 4275
Q 691 4371 826 4371
Q 966 4371 1059 4275
Q 1152 4179 1152 4045
z
M 1619 0
L 102 0
L 102 96
Q 435 115 521 211
Q 608 307 608 666
L 608 2118
Q 608 2342 563 2432
Q 518 2522 397 2522
Q 243 2522 128 2490
L 128 2592
L 1120 2944
L 1146 2918
L 1146 672
Q 1146 314 1226 218
Q 1306 122 1619 96
L 1619 0
z
" transform="scale(0.015625)"/>
      <path id="STIXGeneral-Regular-67" d="M 3008 2483
L 2477 2483
Q 2598 2208 2598 1946
Q 2598 1453 2265 1203
Q 1933 954 1600 954
Q 1530 954 1357 973
L 1235 986
Q 1107 947 979 812
Q 851 678 851 582
Q 851 435 1350 410
L 2176 371
Q 2528 358 2739 172
Q 2950 -13 2950 -314
Q 2950 -685 2566 -986
Q 2035 -1395 1286 -1395
Q 826 -1395 502 -1212
Q 179 -1030 179 -774
Q 179 -595 320 -419
Q 461 -243 806 6
Q 602 102 534 172
Q 467 243 467 346
Q 467 531 762 787
Q 909 915 1037 1043
Q 717 1203 579 1401
Q 442 1600 442 1901
Q 442 2336 752 2640
Q 1062 2944 1510 2944
Q 1766 2944 2022 2848
L 2163 2797
Q 2349 2733 2515 2733
L 3008 2733
L 3008 2483
z
M 973 2163
L 973 2144
Q 973 1683 1155 1398
Q 1338 1114 1632 1114
Q 1850 1114 1978 1270
Q 2106 1427 2106 1690
Q 2106 2112 1914 2464
Q 1754 2765 1446 2765
Q 1222 2765 1097 2605
Q 973 2445 973 2163
z
M 2771 -410
Q 2771 -230 2595 -163
Q 2419 -96 1978 -96
Q 1344 -96 941 -13
Q 749 -243 688 -348
Q 627 -454 627 -563
Q 627 -774 880 -902
Q 1133 -1030 1555 -1030
Q 2099 -1030 2435 -860
Q 2771 -691 2771 -410
z
" transform="scale(0.015625)"/>
      <path id="STIXGeneral-Regular-68" d="M 3117 0
L 1760 0
L 1760 96
Q 2042 128 2118 224
Q 2195 320 2195 653
L 2195 1920
Q 2195 2598 1722 2598
Q 1530 2598 1370 2508
Q 1210 2419 1005 2195
L 1005 653
Q 1005 320 1081 224
Q 1158 128 1440 96
L 1440 0
L 58 0
L 58 96
Q 333 134 400 224
Q 467 314 467 653
L 467 3667
Q 467 3872 406 3933
Q 346 3994 141 3994
Q 83 3994 64 3987
L 64 4090
L 237 4141
Q 730 4288 973 4371
L 1005 4352
L 1005 2406
Q 1229 2694 1446 2819
Q 1664 2944 1946 2944
Q 2733 2944 2733 1926
L 2733 653
Q 2733 320 2793 233
Q 2854 147 3117 96
L 3117 0
z
" transform="scale(0.015625)"/>
     </defs>
     <use xlink:href="#STIXGeneral-Italic-78" transform="translate(0 0.40625)"/>
     <use xlink:href="#STIXGeneral-Regular-28" transform="translate(44.399994 0.40625)"/>
     <use xlink:href="#STIXGeneral-Italic-70" transform="translate(77.699982 0.40625)"/>
     <use xlink:href="#STIXGeneral-Regular-29" transform="translate(128.099976 0.40625)"/>
     <use xlink:href="#STIXGeneral-Regular-3d" transform="translate(175.83996 0.40625)"/>
     <use xlink:href="#STIXGeneral-Italic-52" transform="translate(258.779941 0.40625)"/>
     <use xlink:href="#STIXGeneral-Regular-28" transform="translate(319.879932 0.40625)"/>
     <use xlink:href="#STIXGeneral-Italic-79" transform="translate(353.179919 0.40625)"/>
     <use xlink:href="#STIXGeneral-Regular-2c" transform="translate(397.579913 0.40625)"/>
     <use xlink:href="#STIXGeneral-Italic-61" transform="translate(437.019894 0.40625)"/>
     <use xlink:href="#STIXGeneral-Regular-2c" transform="translate(487.119885 0.40625)"/>
     <use xlink:href="#STIXGeneral-Italic-70" transform="translate(526.559866 0.40625)"/>
     <use xlink:href="#STIXGeneral-Regular-2c" transform="translate(576.95986 0.40625)"/>
     <use xlink:href="#STIXGeneral-Italic-3b5" transform="translate(616.399841 0.40625)"/>
     <use xlink:href="#STIXGeneral-Regular-29" transform="translate(660.799835 0.40625)"/>
     <use xlink:href="#STIXGeneral-Regular-2c" transform="translate(694.099823 0.40625)"/>
     <use xlink:href="#STIXGeneral-Italic-70" transform="translate(805.739786 0.40625)"/>
     <use xlink:href="#STIXGeneral-Regular-6c" transform="translate(856.13978 -12.821875) scale(0.7)"/>
     <use xlink:href="#STIXGeneral-Regular-6f" transform="translate(875.599771 -12.821875) scale(0.7)"/>
     <use xlink:href="#STIXGeneral-Regular-77" transform="translate(910.59976 -12.821875) scale(0.7)"/>
     <use xlink:href="#STIXGeneral-Regular-65" transform="translate(961.139748 -12.821875) scale(0.7)"/>
     <use xlink:href="#STIXGeneral-Regular-72" transform="translate(992.219743 -12.821875) scale(0.7)"/>
     <use xlink:href="#STIXGeneral-Regular-2212" transform="translate(1017.214233 -12.821875) scale(0.7)"/>
     <use xlink:href="#STIXGeneral-Regular-6c" transform="translate(1066.84872 -12.821875) scale(0.7)"/>
     <use xlink:href="#STIXGeneral-Regular-65" transform="translate(1086.308711 -12.821875) scale(0.7)"/>
     <use xlink:href="#STIXGeneral-Regular-66" transform="translate(1117.388707 -12.821875) scale(0.7)"/>
     <use xlink:href="#STIXGeneral-Regular-74" transform="translate(1140.698698 -12.821875) scale(0.7)"/>
     <use xlink:href="#STIXGeneral-Regular-27f6" transform="translate(1179.008061 0.40625)"/>
     <use xlink:href="#STIXGeneral-Italic-70" transform="translate(1350.848036 0.40625)"/>
     <use xlink:href="#STIXGeneral-Regular-75" transform="translate(1401.24803 -12.821875) scale(0.7)"/>
     <use xlink:href="#STIXGeneral-Regular-70" transform="translate(1436.248019 -12.821875) scale(0.7)"/>
     <use xlink:href="#STIXGeneral-Regular-70" transform="translate(1471.248009 -12.821875) scale(0.7)"/>
     <use xlink:href="#STIXGeneral-Regular-65" transform="translate(1506.247998 -12.821875) scale(0.7)"/>
     <use xlink:href="#STIXGeneral-Regular-72" transform="translate(1537.327994 -12.821875) scale(0.7)"/>
     <use xlink:href="#STIXGeneral-Regular-2212" transform="translate(1562.322483 -12.821875) scale(0.7)"/>
     <use xlink:href="#STIXGeneral-Regular-72" transform="translate(1611.95697 -12.821875) scale(0.7)"/>
     <use xlink:href="#STIXGeneral-Regular-69" transform="translate(1635.266961 -12.821875) scale(0.7)"/>
     <use xlink:href="#STIXGeneral-Regular-67" transform="translate(1654.726953 -12.821875) scale(0.7)"/>
     <use xlink:href="#STIXGeneral-Regular-68" transform="translate(1689.726942 -12.821875) scale(0.7)"/>
     <use xlink:href="#STIXGeneral-Regular-74" transform="translate(1724.726932 -12.821875) scale(0.7)"/>
    </g>
   </g>
  </g>
 </g>
</svg>
