<?xml version="1.0" encoding="utf-8" standalone="no"?>
<!DOCTYPE svg PUBLIC "-//W3C//DTD SVG 1.1//EN"
  "http://www.w3.org/Graphics/SVG/1.1/DTD/svg11.dtd">
<svg xmlns:xlink="http://www.w3.org/1999/xlink" width="803.52pt" height="123.12pt" viewBox="0 0 803.52 123.12" xmlns="http://www.w3.org/2000/svg" version="1.1">
 <metadata>
  <rdf:RDF xmlns:dc="http://purl.org/dc/elements/1.1/" xmlns:cc="http://creativecommons.org/ns#" xmlns:rdf="http://www.w3.org/1999/02/22-rdf-syntax-ns#">
   <cc:Work>
    <dc:type rdf:resource="http://purl.org/dc/dcmitype/StillImage"/>
    <dc:date>2026-05-18T16:36:19.983098</dc:date>
    <dc:format>image/svg+xml</dc:format>
    <dc:creator>
     <cc:Agent>
      <dc:title>Matplotlib v3.7.3, https://matplotlib.org/</dc:title>
     </cc:Agent>
    </dc:creator>
   </cc:Work>
  </rdf:RDF>
 </metadata>
 <defs>
  <style type="text/css">*{stroke-linejoin: round; stroke-linecap: butt}</style>
 </defs>
 <g id="figure_1">
  <g id="patch_1">
   <path d="M 0 123.12
L 803.52 123.12
L 803.52 0
L 0 0
L 0 123.12
z
" style="fill: none; opacity: 0"/>
  </g>
  <g id="axes_1">
   <g id="text_1">
    <!-- $\mathrm{PSI}(F_\theta)=\max_{c_x,c_y}F_\theta(c_x,c_y)-\min_{c_x,c_y}F_\theta(c_x,c_y)$ -->
    <g style="fill: #111111" transform="translate(182.94 61.42) scale(0.28 -0.28)">
     <defs>
      <path id="STIXGeneral-Regular-50" d="M 102 4237
L 1760 4237
Q 2669 4237 3149 3834
Q 3469 3565 3469 3072
Q 3469 2560 3104 2234
Q 2835 1990 2553 1916
Q 2272 1843 1734 1843
Q 1549 1843 1293 1862
L 1293 717
Q 1293 352 1398 246
Q 1504 141 1894 122
L 1894 0
L 102 0
L 102 122
Q 474 147 557 256
Q 640 365 640 781
L 640 3526
Q 640 3885 547 3987
Q 454 4090 102 4115
L 102 4237
z
M 1293 3770
L 1293 2118
Q 1510 2099 1683 2099
Q 2202 2099 2486 2352
Q 2771 2605 2771 3040
Q 2771 3558 2476 3779
Q 2182 4000 1517 4000
Q 1382 4000 1337 3952
Q 1293 3904 1293 3770
z
" transform="scale(0.015625)"/>
      <path id="STIXGeneral-Regular-53" d="M 3002 2963
L 2842 2963
Q 2733 3360 2579 3565
Q 2189 4064 1651 4064
Q 1357 4064 1181 3894
Q 1005 3725 1005 3456
Q 1005 3328 1069 3206
Q 1133 3085 1206 2998
Q 1280 2912 1465 2784
Q 1651 2656 1766 2589
Q 1882 2522 2150 2362
Q 2669 2061 2905 1763
Q 3142 1466 3142 1107
Q 3142 576 2771 243
Q 2400 -90 1837 -90
Q 1421 -90 1082 58
Q 915 128 781 128
Q 704 128 653 70
Q 602 13 602 -83
L 461 -83
L 275 1274
L 416 1274
Q 845 141 1734 141
Q 2074 141 2285 342
Q 2496 544 2496 858
Q 2496 1158 2310 1363
Q 2003 1696 1235 2106
Q 454 2522 454 3206
Q 454 3718 768 4022
Q 1082 4326 1568 4326
Q 1907 4326 2240 4186
Q 2413 4109 2522 4109
Q 2688 4109 2726 4326
L 2861 4326
L 3002 2963
z
" transform="scale(0.015625)"/>
      <path id="STIXGeneral-Regular-49" d="M 2016 0
L 115 0
L 115 122
Q 518 134 627 240
Q 736 346 736 717
L 736 3526
Q 736 3898 633 3994
Q 531 4090 115 4115
L 115 4237
L 2016 4237
L 2016 4115
Q 1613 4096 1501 3993
Q 1389 3891 1389 3526
L 1389 717
Q 1389 358 1504 246
Q 1619 134 2016 122
L 2016 0
z
" transform="scale(0.015625)"/>
      <path id="STIXGeneral-Regular-28" d="M 1946 -1030
L 1869 -1133
Q 1126 -710 716 32
Q 307 774 307 1613
Q 307 3386 1888 4326
L 1946 4224
Q 1293 3667 1075 3126
Q 858 2586 858 1632
Q 858 685 1082 96
Q 1306 -493 1946 -1030
z
" transform="scale(0.015625)"/>
      <path id="STIXGeneral-Italic-46" d="M 4128 4179
L 3923 3194
L 3789 3206
Q 3808 3347 3808 3418
Q 3808 3667 3718 3772
Q 3629 3878 3373 3923
Q 3117 3968 2534 3968
Q 2310 3968 2220 3926
Q 2131 3885 2099 3763
L 1690 2310
Q 2003 2317 2147 2317
Q 2291 2317 2457 2345
Q 2624 2374 2678 2396
Q 2733 2419 2822 2505
Q 2912 2592 2950 2665
Q 2989 2739 3072 2912
L 3187 2880
L 2701 1376
L 2592 1408
Q 2643 1670 2643 1798
Q 2643 1978 2531 2029
Q 2419 2080 2163 2080
Q 1984 2080 1632 2099
L 1254 736
Q 1165 416 1165 352
Q 1165 237 1273 179
Q 1382 122 1658 102
L 1658 0
L 51 0
L 51 102
Q 314 122 410 224
Q 506 326 582 602
L 1370 3430
Q 1434 3661 1434 3821
Q 1434 3955 1347 4003
Q 1261 4051 947 4077
L 947 4179
L 4128 4179
z
" transform="scale(0.015625)"/>
      <path id="STIXGeneral-Italic-3b8" d="M 3162 3270
Q 3162 2534 2925 1862
Q 2688 1190 2304 678
Q 1741 -70 992 -70
Q 608 -70 390 224
Q 173 518 173 1030
Q 173 1997 592 2813
Q 1011 3629 1594 4070
Q 1952 4339 2374 4339
Q 2733 4339 2947 4076
Q 3162 3814 3162 3270
z
M 941 2221
L 2432 2221
Q 2624 2874 2624 3533
Q 2624 4205 2285 4205
Q 2029 4205 1728 3814
Q 1427 3424 1232 2992
Q 1037 2560 941 2221
z
M 2387 2016
L 896 2016
Q 710 1530 710 960
Q 710 64 1069 64
Q 1286 64 1510 275
Q 1734 486 1904 806
Q 2074 1126 2198 1440
Q 2323 1754 2387 2016
z
" transform="scale(0.015625)"/>
      <path id="STIXGeneral-Regular-29" d="M 186 4224
L 262 4326
Q 992 3891 1408 3148
Q 1824 2406 1824 1581
Q 1824 -166 243 -1133
L 186 -1030
Q 845 -486 1059 54
Q 1274 595 1274 1562
Q 1274 2534 1059 3120
Q 845 3706 186 4224
z
" transform="scale(0.015625)"/>
      <path id="STIXGeneral-Regular-3d" d="M 4077 2048
L 307 2048
L 307 2470
L 4077 2470
L 4077 2048
z
M 4077 768
L 307 768
L 307 1190
L 4077 1190
L 4077 768
z
" transform="scale(0.015625)"/>
      <path id="STIXGeneral-Regular-6d" d="M 4960 0
L 3565 0
L 3565 96
Q 3834 122 3907 208
Q 3981 294 3981 576
L 3981 1894
Q 3981 2278 3869 2444
Q 3757 2611 3488 2611
Q 3264 2611 3107 2521
Q 2950 2432 2803 2221
L 2803 608
Q 2803 301 2896 201
Q 2989 102 3264 96
L 3264 0
L 1830 0
L 1830 96
Q 2112 115 2189 188
Q 2266 262 2266 550
L 2266 1901
Q 2266 2611 1850 2611
Q 1670 2611 1468 2531
Q 1267 2451 1171 2336
Q 1088 2240 1088 2227
L 1088 448
Q 1088 243 1177 176
Q 1267 109 1523 96
L 1523 0
L 102 0
L 102 96
Q 371 102 460 195
Q 550 288 550 563
L 550 2150
Q 550 2387 499 2480
Q 448 2573 326 2573
Q 230 2573 122 2547
L 122 2656
Q 557 2778 1011 2944
L 1062 2925
L 1062 2451
L 1075 2451
Q 1363 2752 1584 2848
Q 1805 2944 2054 2944
Q 2560 2944 2733 2406
Q 3232 2944 3776 2944
Q 4518 2944 4518 1792
L 4518 493
Q 4518 282 4582 202
Q 4646 122 4794 109
L 4960 96
L 4960 0
z
" transform="scale(0.015625)"/>
      <path id="STIXGeneral-Regular-61" d="M 2829 422
L 2829 243
Q 2586 -64 2253 -64
Q 1888 -64 1843 403
L 1837 403
Q 1427 -64 909 -64
Q 608 -64 422 112
Q 237 288 237 602
Q 237 1050 685 1350
Q 992 1555 1837 1869
L 1837 2214
Q 1837 2502 1699 2646
Q 1562 2790 1338 2790
Q 1146 2790 1018 2697
Q 890 2605 890 2477
Q 890 2419 909 2348
Q 928 2278 928 2208
Q 928 2112 841 2029
Q 755 1946 634 1946
Q 525 1946 441 2029
Q 358 2112 358 2240
Q 358 2547 685 2752
Q 986 2944 1421 2944
Q 1939 2944 2176 2656
Q 2291 2522 2323 2384
Q 2355 2246 2355 1946
L 2355 723
Q 2355 301 2554 301
Q 2682 301 2829 422
z
M 1837 813
L 1837 1715
Q 1248 1510 1018 1293
Q 800 1094 800 800
Q 800 557 921 432
Q 1043 307 1242 307
Q 1453 307 1613 410
Q 1747 506 1792 589
Q 1837 672 1837 813
z
" transform="scale(0.015625)"/>
      <path id="STIXGeneral-Regular-78" d="M 3066 0
L 1779 0
L 1779 96
Q 1939 109 1987 137
Q 2035 166 2035 250
Q 2035 307 1997 365
L 1414 1261
L 909 474
Q 781 275 781 211
Q 781 96 1037 96
L 1037 0
L 109 0
L 109 96
Q 269 109 355 169
Q 442 230 576 422
L 1306 1478
L 704 2400
Q 557 2624 454 2704
Q 352 2784 211 2784
L 154 2784
L 154 2880
L 1478 2880
L 1478 2784
Q 1203 2778 1203 2643
Q 1203 2509 1498 2074
Q 1581 1958 1587 1946
Q 1619 1990 1779 2227
Q 1811 2285 1856 2349
Q 1901 2413 1923 2451
Q 1946 2490 1971 2528
Q 1997 2566 2006 2595
Q 2016 2624 2016 2643
Q 2016 2765 1760 2784
L 1760 2880
L 2771 2880
L 2771 2784
Q 2445 2771 2253 2502
L 1722 1734
L 2541 480
Q 2790 96 3066 96
L 3066 0
z
" transform="scale(0.015625)"/>
      <path id="STIXGeneral-Italic-63" d="M 2240 685
L 2342 621
Q 2048 250 1769 90
Q 1491 -70 1133 -70
Q 678 -70 435 179
Q 192 429 192 915
Q 192 1344 409 1744
Q 627 2144 979 2432
Q 1472 2822 2048 2822
Q 2342 2822 2531 2675
Q 2720 2528 2720 2304
Q 2720 2176 2630 2086
Q 2541 1997 2413 1997
Q 2285 1997 2224 2070
Q 2163 2144 2163 2253
Q 2163 2310 2211 2403
Q 2259 2496 2259 2560
Q 2259 2688 2022 2688
Q 1619 2688 1325 2381
Q 742 1766 742 890
Q 742 544 889 352
Q 1037 160 1312 160
Q 1562 160 1766 281
Q 1971 403 2240 685
z
" transform="scale(0.015625)"/>
      <path id="STIXGeneral-Italic-78" d="M 1555 2272
L 1632 1907
Q 1971 2426 2179 2624
Q 2387 2822 2598 2822
Q 2714 2822 2787 2755
Q 2861 2688 2861 2585
Q 2861 2483 2800 2419
Q 2739 2355 2643 2355
Q 2586 2355 2490 2409
Q 2394 2464 2310 2464
Q 2125 2464 1683 1690
Q 1683 1606 1734 1402
L 1939 544
Q 2003 282 2131 282
Q 2234 282 2432 538
Q 2451 563 2476 598
Q 2502 634 2521 662
Q 2541 691 2566 717
L 2662 659
Q 2387 230 2227 80
Q 2067 -70 1882 -70
Q 1728 -70 1645 26
Q 1562 122 1504 365
L 1318 1126
L 755 365
Q 557 96 432 13
Q 307 -70 147 -70
Q 0 -70 -86 0
Q -173 70 -173 198
Q -173 294 -112 361
Q -51 429 45 429
Q 122 429 250 358
Q 346 301 416 301
Q 525 301 742 614
L 1267 1357
L 1088 2150
Q 1024 2432 969 2509
Q 915 2586 794 2586
Q 717 2586 544 2541
L 429 2509
L 410 2611
L 480 2637
Q 992 2822 1229 2822
Q 1350 2822 1420 2707
Q 1491 2592 1555 2272
z
" transform="scale(0.015625)"/>
      <path id="STIXGeneral-Regular-2c" d="M 531 -902
L 467 -781
Q 998 -422 998 -96
Q 998 -13 909 -13
Q 883 -13 822 -25
Q 762 -38 723 -38
Q 352 -38 352 288
Q 352 454 457 553
Q 563 653 736 653
Q 954 653 1101 496
Q 1248 339 1248 96
Q 1248 -198 1053 -473
Q 858 -749 531 -902
z
" transform="scale(0.015625)"/>
      <path id="STIXGeneral-Italic-79" d="M 1555 1190
L 1690 486
Q 2118 1190 2294 1558
Q 2470 1926 2470 2131
Q 2470 2234 2304 2336
Q 2138 2445 2138 2586
Q 2138 2688 2211 2755
Q 2285 2822 2394 2822
Q 2534 2822 2630 2720
Q 2726 2618 2726 2470
Q 2726 1914 1888 518
Q 1389 -307 918 -812
Q 448 -1318 173 -1318
Q 26 -1318 -64 -1241
Q -154 -1165 -154 -1043
Q -154 -934 -80 -860
Q -6 -787 96 -787
Q 218 -787 314 -876
Q 410 -966 486 -966
Q 602 -966 794 -755
Q 877 -672 1040 -457
Q 1203 -243 1248 -173
Q 1312 -45 1312 51
Q 1312 243 1113 1046
Q 915 1850 787 2176
Q 698 2413 592 2499
Q 486 2586 294 2586
Q 192 2586 96 2560
L 96 2669
Q 237 2694 301 2707
Q 563 2758 986 2822
L 1011 2822
Q 1082 2822 1277 2227
Q 1472 1632 1555 1190
z
" transform="scale(0.015625)"/>
      <path id="STIXGeneral-Regular-2212" d="M 3974 1408
L 410 1408
L 410 1830
L 3974 1830
L 3974 1408
z
" transform="scale(0.015625)"/>
      <path id="STIXGeneral-Regular-69" d="M 1152 4045
Q 1152 3904 1056 3811
Q 960 3718 819 3718
Q 685 3718 592 3811
Q 499 3904 499 4045
Q 499 4179 595 4275
Q 691 4371 826 4371
Q 966 4371 1059 4275
Q 1152 4179 1152 4045
z
M 1619 0
L 102 0
L 102 96
Q 435 115 521 211
Q 608 307 608 666
L 608 2118
Q 608 2342 563 2432
Q 518 2522 397 2522
Q 243 2522 128 2490
L 128 2592
L 1120 2944
L 1146 2918
L 1146 672
Q 1146 314 1226 218
Q 1306 122 1619 96
L 1619 0
z
" transform="scale(0.015625)"/>
      <path id="STIXGeneral-Regular-6e" d="M 3104 0
L 1773 0
L 1779 96
Q 2016 115 2096 233
Q 2176 352 2176 672
L 2176 1946
Q 2176 2592 1709 2592
Q 1549 2592 1408 2515
Q 1267 2438 1050 2227
L 1050 461
Q 1050 269 1136 192
Q 1222 115 1466 96
L 1466 0
L 115 0
L 115 96
Q 358 115 435 214
Q 512 314 512 602
L 512 2157
Q 512 2394 467 2483
Q 422 2573 288 2573
Q 160 2573 102 2547
L 102 2656
Q 550 2784 979 2944
L 1030 2925
L 1030 2426
L 1037 2426
Q 1491 2944 1958 2944
Q 2323 2944 2518 2688
Q 2714 2432 2714 1958
L 2714 544
Q 2714 288 2790 205
Q 2867 122 3104 96
L 3104 0
z
" transform="scale(0.015625)"/>
     </defs>
     <use xlink:href="#STIXGeneral-Regular-50" transform="translate(0 0.703125)"/>
     <use xlink:href="#STIXGeneral-Regular-53" transform="translate(55.699997 0.703125)"/>
     <use xlink:href="#STIXGeneral-Regular-49" transform="translate(111.299988 0.703125)"/>
     <use xlink:href="#STIXGeneral-Regular-28" transform="translate(144.599976 0.703125)"/>
     <use xlink:href="#STIXGeneral-Italic-46" transform="translate(177.899963 0.703125)"/>
     <use xlink:href="#STIXGeneral-Italic-3b8" transform="translate(238.999954 -12.525) scale(0.7)"/>
     <use xlink:href="#STIXGeneral-Regular-29" transform="translate(277.009319 0.703125)"/>
     <use xlink:href="#STIXGeneral-Regular-3d" transform="translate(324.749303 0.703125)"/>
     <use xlink:href="#STIXGeneral-Regular-6d" transform="translate(407.689284 0.703125)"/>
     <use xlink:href="#STIXGeneral-Regular-61" transform="translate(485.489272 0.703125)"/>
     <use xlink:href="#STIXGeneral-Regular-78" transform="translate(529.889265 0.703125)"/>
     <use xlink:href="#STIXGeneral-Italic-63" transform="translate(419.689284 -49.9125) scale(0.7)"/>
     <use xlink:href="#STIXGeneral-Italic-78" transform="translate(450.769279 -59.172188) scale(0.49)"/>
     <use xlink:href="#STIXGeneral-Regular-2c" transform="translate(484.035339 -49.9125) scale(0.7)"/>
     <use xlink:href="#STIXGeneral-Italic-63" transform="translate(511.643325 -49.9125) scale(0.7)"/>
     <use xlink:href="#STIXGeneral-Italic-79" transform="translate(542.723321 -59.172188) scale(0.49)"/>
     <use xlink:href="#STIXGeneral-Italic-46" transform="translate(579.88925 0.703125)"/>
     <use xlink:href="#STIXGeneral-Italic-3b8" transform="translate(640.989241 -12.525) scale(0.7)"/>
     <use xlink:href="#STIXGeneral-Regular-28" transform="translate(678.998605 0.703125)"/>
     <use xlink:href="#STIXGeneral-Italic-63" transform="translate(712.298593 0.703125)"/>
     <use xlink:href="#STIXGeneral-Italic-78" transform="translate(756.698587 -12.525) scale(0.7)"/>
     <use xlink:href="#STIXGeneral-Regular-2c" transform="translate(792.187958 0.703125)"/>
     <use xlink:href="#STIXGeneral-Italic-63" transform="translate(831.627939 0.703125)"/>
     <use xlink:href="#STIXGeneral-Italic-79" transform="translate(876.027933 -12.525) scale(0.7)"/>
     <use xlink:href="#STIXGeneral-Regular-29" transform="translate(911.517303 0.703125)"/>
     <use xlink:href="#STIXGeneral-Regular-2212" transform="translate(959.257288 0.703125)"/>
     <use xlink:href="#STIXGeneral-Regular-6d" transform="translate(1042.197269 0.703125)"/>
     <use xlink:href="#STIXGeneral-Regular-69" transform="translate(1119.997256 0.703125)"/>
     <use xlink:href="#STIXGeneral-Regular-6e" transform="translate(1147.797244 0.703125)"/>
     <use xlink:href="#STIXGeneral-Italic-63" transform="translate(1046.197269 -48.9125) scale(0.7)"/>
     <use xlink:href="#STIXGeneral-Italic-78" transform="translate(1077.277264 -58.172187) scale(0.49)"/>
     <use xlink:href="#STIXGeneral-Regular-2c" transform="translate(1110.543324 -48.9125) scale(0.7)"/>
     <use xlink:href="#STIXGeneral-Italic-63" transform="translate(1138.15131 -48.9125) scale(0.7)"/>
     <use xlink:href="#STIXGeneral-Italic-79" transform="translate(1169.231306 -58.172187) scale(0.49)"/>
     <use xlink:href="#STIXGeneral-Italic-46" transform="translate(1197.797229 0.703125)"/>
     <use xlink:href="#STIXGeneral-Italic-3b8" transform="translate(1258.89722 -12.525) scale(0.7)"/>
     <use xlink:href="#STIXGeneral-Regular-28" transform="translate(1296.906584 0.703125)"/>
     <use xlink:href="#STIXGeneral-Italic-63" transform="translate(1330.206572 0.703125)"/>
     <use xlink:href="#STIXGeneral-Italic-78" transform="translate(1374.606566 -12.525) scale(0.7)"/>
     <use xlink:href="#STIXGeneral-Regular-2c" transform="translate(1410.095937 0.703125)"/>
     <use xlink:href="#STIXGeneral-Italic-63" transform="translate(1449.535918 0.703125)"/>
     <use xlink:href="#STIXGeneral-Italic-79" transform="translate(1493.935912 -12.525) scale(0.7)"/>
     <use xlink:href="#STIXGeneral-Regular-29" transform="translate(1529.425282 0.703125)"/>
    </g>
   </g>
  </g>
 </g>
</svg>
