<?xml version="1.0" encoding="utf-8" standalone="no"?>
<!DOCTYPE svg PUBLIC "-//W3C//DTD SVG 1.1//EN"
  "http://www.w3.org/Graphics/SVG/1.1/DTD/svg11.dtd">
<svg xmlns:xlink="http://www.w3.org/1999/xlink" width="1091.52pt" height="123.12pt" viewBox="0 0 1091.52 123.12" xmlns="http://www.w3.org/2000/svg" version="1.1">
 <metadata>
  <rdf:RDF xmlns:dc="http://purl.org/dc/elements/1.1/" xmlns:cc="http://creativecommons.org/ns#" xmlns:rdf="http://www.w3.org/1999/02/22-rdf-syntax-ns#">
   <cc:Work>
    <dc:type rdf:resource="http://purl.org/dc/dcmitype/StillImage"/>
    <dc:date>2026-05-18T16:36:20.221857</dc:date>
    <dc:format>image/svg+xml</dc:format>
    <dc:creator>
     <cc:Agent>
      <dc:title>Matplotlib v3.7.3, https://matplotlib.org/</dc:title>
     </cc:Agent>
    </dc:creator>
   </cc:Work>
  </rdf:RDF>
 </metadata>
 <defs>
  <style type="text/css">*{stroke-linejoin: round; stroke-linecap: butt}</style>
 </defs>
 <g id="figure_1">
  <g id="patch_1">
   <path d="M 0 123.12
L 1091.52 123.12
L 1091.52 0
L 0 0
L 0 123.12
z
" style="fill: none; opacity: 0"/>
  </g>
  <g id="axes_1">
   <g id="text_1">
    <!-- $G_\theta(x)=\frac{1}{K}\sum_{k=1}^{K}\left|\nabla_x s_\theta(x+\eta_k)\right|,\quad \eta_k\sim\mathcal{N}(0,\sigma^2 I)$ -->
    <g style="fill: #111111" transform="translate(305.8 68.14) scale(0.28 -0.28)">
     <defs>
      <path id="STIXGeneral-Italic-47" d="M 4621 2042
L 4621 1939
Q 4307 1920 4188 1833
Q 4070 1747 4000 1478
L 3686 282
Q 2976 -115 2170 -115
Q 1293 -115 806 371
Q 582 595 457 934
Q 333 1274 333 1606
Q 333 2266 653 2848
Q 973 3430 1504 3802
Q 2170 4262 2912 4262
Q 3373 4262 3770 4109
Q 3936 4045 4051 4045
Q 4282 4045 4435 4262
L 4531 4230
L 4218 2970
L 4102 2989
Q 4083 3398 3866 3667
Q 3558 4045 2963 4045
Q 2214 4045 1715 3411
Q 1395 3008 1216 2496
Q 1037 1984 1037 1459
Q 1037 826 1376 474
Q 1715 122 2330 122
Q 2784 122 3002 339
Q 3059 397 3104 509
Q 3149 621 3251 986
Q 3418 1542 3418 1709
Q 3418 1894 3117 1920
L 2912 1939
L 2912 2042
L 4621 2042
z
" transform="scale(0.015625)"/>
      <path id="STIXGeneral-Italic-3b8" d="M 3162 3270
Q 3162 2534 2925 1862
Q 2688 1190 2304 678
Q 1741 -70 992 -70
Q 608 -70 390 224
Q 173 518 173 1030
Q 173 1997 592 2813
Q 1011 3629 1594 4070
Q 1952 4339 2374 4339
Q 2733 4339 2947 4076
Q 3162 3814 3162 3270
z
M 941 2221
L 2432 2221
Q 2624 2874 2624 3533
Q 2624 4205 2285 4205
Q 2029 4205 1728 3814
Q 1427 3424 1232 2992
Q 1037 2560 941 2221
z
M 2387 2016
L 896 2016
Q 710 1530 710 960
Q 710 64 1069 64
Q 1286 64 1510 275
Q 1734 486 1904 806
Q 2074 1126 2198 1440
Q 2323 1754 2387 2016
z
" transform="scale(0.015625)"/>
      <path id="STIXGeneral-Regular-28" d="M 1946 -1030
L 1869 -1133
Q 1126 -710 716 32
Q 307 774 307 1613
Q 307 3386 1888 4326
L 1946 4224
Q 1293 3667 1075 3126
Q 858 2586 858 1632
Q 858 685 1082 96
Q 1306 -493 1946 -1030
z
" transform="scale(0.015625)"/>
      <path id="STIXGeneral-Italic-78" d="M 1555 2272
L 1632 1907
Q 1971 2426 2179 2624
Q 2387 2822 2598 2822
Q 2714 2822 2787 2755
Q 2861 2688 2861 2585
Q 2861 2483 2800 2419
Q 2739 2355 2643 2355
Q 2586 2355 2490 2409
Q 2394 2464 2310 2464
Q 2125 2464 1683 1690
Q 1683 1606 1734 1402
L 1939 544
Q 2003 282 2131 282
Q 2234 282 2432 538
Q 2451 563 2476 598
Q 2502 634 2521 662
Q 2541 691 2566 717
L 2662 659
Q 2387 230 2227 80
Q 2067 -70 1882 -70
Q 1728 -70 1645 26
Q 1562 122 1504 365
L 1318 1126
L 755 365
Q 557 96 432 13
Q 307 -70 147 -70
Q 0 -70 -86 0
Q -173 70 -173 198
Q -173 294 -112 361
Q -51 429 45 429
Q 122 429 250 358
Q 346 301 416 301
Q 525 301 742 614
L 1267 1357
L 1088 2150
Q 1024 2432 969 2509
Q 915 2586 794 2586
Q 717 2586 544 2541
L 429 2509
L 410 2611
L 480 2637
Q 992 2822 1229 2822
Q 1350 2822 1420 2707
Q 1491 2592 1555 2272
z
" transform="scale(0.015625)"/>
      <path id="STIXGeneral-Regular-29" d="M 186 4224
L 262 4326
Q 992 3891 1408 3148
Q 1824 2406 1824 1581
Q 1824 -166 243 -1133
L 186 -1030
Q 845 -486 1059 54
Q 1274 595 1274 1562
Q 1274 2534 1059 3120
Q 845 3706 186 4224
z
" transform="scale(0.015625)"/>
      <path id="STIXGeneral-Regular-3d" d="M 4077 2048
L 307 2048
L 307 2470
L 4077 2470
L 4077 2048
z
M 4077 768
L 307 768
L 307 1190
L 4077 1190
L 4077 768
z
" transform="scale(0.015625)"/>
      <path id="STIXGeneral-Regular-31" d="M 2522 0
L 755 0
L 755 96
Q 1107 115 1235 227
Q 1363 339 1363 608
L 1363 3482
Q 1363 3795 1171 3795
Q 1082 3795 883 3718
L 710 3654
L 710 3744
L 1856 4326
L 1914 4307
L 1914 486
Q 1914 275 2042 185
Q 2170 96 2522 96
L 2522 0
z
" transform="scale(0.015625)"/>
      <path id="STIXGeneral-Italic-4b" d="M 4621 4179
L 4621 4077
Q 4442 4077 4128 3840
L 2221 2400
L 3296 525
Q 3443 269 3552 201
Q 3661 134 3962 102
L 3962 0
L 2202 0
L 2202 102
L 2387 122
Q 2682 147 2682 326
Q 2682 365 2672 409
Q 2662 454 2630 515
Q 2598 576 2579 611
Q 2560 646 2509 736
Q 2458 826 2445 851
L 1658 2227
L 1242 710
Q 1171 467 1171 384
Q 1171 237 1264 182
Q 1357 128 1626 102
L 1626 0
L 45 0
L 45 102
Q 320 134 403 211
Q 486 288 563 557
L 1357 3405
Q 1446 3725 1446 3802
Q 1446 3936 1337 4000
Q 1229 4064 941 4077
L 941 4179
L 2669 4179
L 2669 4077
Q 2400 4058 2253 3958
Q 2106 3859 2035 3603
L 1696 2362
L 2675 3059
Q 3590 3706 3590 3936
Q 3590 4032 3360 4058
L 3206 4077
L 3206 4179
L 4621 4179
z
" transform="scale(0.015625)"/>
      <path id="STIXGeneral-Regular-2211" d="M 5478 256
L 5139 -1658
L 371 -1658
L 2880 1606
L 531 4883
L 5312 4883
L 5312 3277
L 5120 3277
Q 5018 3949 4765 4205
Q 4512 4461 3891 4461
L 1843 4461
L 3699 1958
L 1549 -819
L 4198 -819
Q 4698 -819 4934 -550
Q 5171 -282 5286 256
L 5478 256
z
" transform="scale(0.015625)"/>
      <path id="STIXGeneral-Italic-6b" d="M 2950 2739
L 2950 2637
Q 2720 2624 2464 2448
Q 2208 2272 1510 1651
L 1747 1088
Q 2099 262 2266 262
Q 2400 262 2554 531
Q 2586 582 2650 698
L 2746 627
Q 2522 224 2374 77
Q 2227 -70 2035 -70
Q 1894 -70 1782 42
Q 1670 154 1517 454
Q 1325 826 1133 1357
L 877 1152
L 570 0
L 90 0
L 992 3379
Q 1082 3699 1107 3942
Q 1088 4096 781 4096
L 666 4096
L 666 4198
Q 1146 4256 1670 4371
L 1709 4333
L 941 1414
L 1216 1626
Q 2131 2330 2131 2522
Q 2131 2637 1894 2637
L 1805 2637
L 1805 2739
L 2950 2739
z
" transform="scale(0.015625)"/>
      <path id="STIXGeneral-Regular-7c" d="M 851 -90
L 429 -90
L 429 4326
L 851 4326
L 851 -90
z
" transform="scale(0.015625)"/>
      <path id="STIXGeneral-Regular-2207" d="M 4269 4237
L 2426 -77
L 2298 -77
L 403 4237
L 4269 4237
z
M 3866 3974
L 1190 3974
L 2522 813
L 3866 3974
z
" transform="scale(0.015625)"/>
      <path id="STIXGeneral-Italic-73" d="M 2342 2829
L 2214 1933
L 2112 1933
Q 2022 2675 1542 2675
Q 1370 2675 1267 2579
Q 1165 2483 1165 2310
Q 1165 2067 1510 1658
Q 1946 1152 1946 787
Q 1946 397 1686 163
Q 1427 -70 1024 -70
Q 838 -70 672 -6
Q 538 51 390 51
Q 262 51 205 -83
L 102 -83
L 230 934
L 333 934
Q 461 64 973 64
Q 1203 64 1331 192
Q 1459 320 1459 557
Q 1459 845 1101 1293
Q 698 1798 698 2131
Q 698 2451 909 2636
Q 1120 2822 1472 2822
Q 1600 2822 1830 2758
Q 1971 2714 2061 2714
Q 2189 2714 2253 2829
L 2342 2829
z
" transform="scale(0.015625)"/>
      <path id="STIXGeneral-Regular-2b" d="M 4070 1408
L 2400 1408
L 2400 -262
L 1978 -262
L 1978 1408
L 307 1408
L 307 1830
L 1978 1830
L 1978 3501
L 2400 3501
L 2400 1830
L 4070 1830
L 4070 1408
z
" transform="scale(0.015625)"/>
      <path id="STIXGeneral-Italic-3b7" d="M 947 1459
L 960 1453
Q 1811 2822 2374 2822
Q 2573 2822 2701 2729
Q 2829 2637 2829 2458
Q 2829 2304 2765 2054
L 2208 0
Q 2016 -698 2016 -1094
Q 2016 -1190 2067 -1312
L 1600 -1312
Q 1530 -1229 1530 -1030
Q 1530 -710 1741 58
L 2221 1811
Q 2310 2112 2310 2272
Q 2310 2496 2150 2496
Q 1894 2496 1427 1897
Q 960 1299 774 678
L 570 0
L 90 0
L 614 1952
Q 704 2272 704 2349
Q 704 2458 614 2458
Q 589 2458 560 2445
Q 531 2432 499 2403
Q 467 2374 438 2348
Q 410 2323 374 2281
Q 339 2240 316 2211
Q 294 2182 259 2140
Q 224 2099 211 2086
L 134 2150
Q 218 2291 320 2413
Q 634 2803 941 2803
Q 1197 2803 1197 2515
Q 1197 2253 947 1459
z
" transform="scale(0.015625)"/>
      <path id="STIXGeneral-Regular-2c" d="M 531 -902
L 467 -781
Q 998 -422 998 -96
Q 998 -13 909 -13
Q 883 -13 822 -25
Q 762 -38 723 -38
Q 352 -38 352 288
Q 352 454 457 553
Q 563 653 736 653
Q 954 653 1101 496
Q 1248 339 1248 96
Q 1248 -198 1053 -473
Q 858 -749 531 -902
z
" transform="scale(0.015625)"/>
      <path id="STIXGeneral-Regular-223c" d="M 3866 2317
L 4077 2317
Q 4045 1843 3769 1427
Q 3494 1011 3066 1011
Q 2803 1011 2460 1216
Q 2118 1421 1804 1625
Q 1491 1830 1306 1830
Q 992 1830 800 1580
Q 608 1331 518 947
L 307 947
Q 333 1466 617 1859
Q 902 2253 1350 2253
Q 1613 2253 1955 2048
Q 2298 1843 2611 1638
Q 2925 1434 3117 1434
Q 3680 1434 3866 2317
z
" transform="scale(0.015625)"/>
      <path id="STIXNonUnicode-Italic-e23a" d="M 4294 800
L 4301 800
Q 5293 4070 5408 4378
Q 5472 4538 5523 4614
Q 5830 5088 6253 5088
Q 6490 5088 6650 4931
Q 6810 4774 6810 4550
Q 6810 4378 6720 4272
Q 6630 4166 6470 4166
Q 6368 4166 6297 4224
Q 6227 4282 6198 4349
Q 6170 4416 6118 4473
Q 6067 4531 6003 4531
Q 5939 4531 5881 4508
Q 5824 4486 5785 4457
Q 5747 4429 5705 4371
Q 5664 4314 5638 4275
Q 5613 4237 5584 4163
Q 5555 4090 5545 4058
Q 5536 4026 5510 3952
Q 5485 3878 5485 3866
L 4262 -154
L 4134 -154
Q 3078 1280 2483 2893
L 2470 2893
Q 2406 2579 2358 2361
Q 2310 2144 2214 1792
Q 2118 1440 2028 1190
Q 1939 941 1804 653
Q 1670 365 1529 185
Q 1389 6 1203 -115
Q 1018 -237 813 -237
Q 576 -237 416 -80
Q 256 77 256 301
Q 256 474 345 579
Q 435 685 595 685
Q 698 685 768 627
Q 838 570 867 502
Q 896 435 947 377
Q 998 320 1062 320
Q 1222 320 1369 480
Q 1517 640 1638 928
Q 1760 1216 1862 1542
Q 1965 1869 2057 2288
Q 2150 2707 2214 3033
Q 2278 3360 2348 3741
Q 2419 4122 2458 4294
L 2630 4294
Q 2682 4166 2874 3680
Q 3066 3194 3142 3008
Q 3219 2822 3392 2422
Q 3565 2022 3683 1798
Q 3802 1574 3968 1292
Q 4134 1011 4294 800
z
" transform="scale(0.015625)"/>
      <path id="STIXGeneral-Regular-30" d="M 3046 2112
Q 3046 1683 2963 1302
Q 2880 922 2717 602
Q 2554 282 2266 96
Q 1978 -90 1600 -90
Q 1210 -90 915 108
Q 621 307 461 640
Q 301 973 227 1350
Q 154 1728 154 2150
Q 154 2746 301 3222
Q 448 3699 790 4012
Q 1133 4326 1626 4326
Q 2253 4326 2649 3712
Q 3046 3098 3046 2112
z
M 2432 2080
Q 2432 3091 2217 3625
Q 2003 4160 1587 4160
Q 1190 4160 979 3622
Q 768 3085 768 2106
Q 768 1120 979 598
Q 1190 77 1600 77
Q 2003 77 2217 598
Q 2432 1120 2432 2080
z
" transform="scale(0.015625)"/>
      <path id="STIXGeneral-Italic-3c3" d="M 3398 2739
L 3283 2266
L 2195 2266
Q 2291 2112 2457 1981
Q 2624 1850 2717 1725
Q 2810 1600 2810 1389
Q 2810 851 2288 390
Q 1766 -70 1107 -70
Q 659 -70 416 170
Q 173 410 173 832
Q 173 1274 409 1706
Q 646 2138 1113 2438
Q 1581 2739 2157 2739
L 3398 2739
z
M 2272 1414
Q 2272 1709 2166 1939
Q 2061 2170 1901 2266
Q 1530 2266 1120 1770
Q 710 1274 710 640
Q 710 358 844 211
Q 979 64 1210 64
Q 1638 64 1955 525
Q 2272 986 2272 1414
z
" transform="scale(0.015625)"/>
      <path id="STIXGeneral-Regular-32" d="M 3034 877
L 2688 0
L 186 0
L 186 77
L 1325 1286
Q 1773 1754 1965 2144
Q 2157 2534 2157 2950
Q 2157 3379 1920 3616
Q 1683 3853 1267 3853
Q 922 3853 720 3673
Q 518 3494 326 3021
L 192 3053
Q 301 3648 630 3987
Q 960 4326 1523 4326
Q 2054 4326 2380 4006
Q 2707 3686 2707 3200
Q 2707 2477 1888 1613
L 832 486
L 2330 486
Q 2541 486 2665 569
Q 2790 653 2944 915
L 3034 877
z
" transform="scale(0.015625)"/>
      <path id="STIXGeneral-Italic-49" d="M 2458 4179
L 2458 4077
Q 2189 4045 2102 3961
Q 2016 3878 1933 3584
L 1165 838
Q 1069 499 1069 352
Q 1069 224 1149 179
Q 1229 134 1510 102
L 1510 0
L -51 0
L -51 102
Q 218 154 317 237
Q 416 320 486 582
L 1254 3405
Q 1338 3699 1338 3802
Q 1338 3930 1235 3997
Q 1133 4064 877 4077
L 877 4179
L 2458 4179
z
" transform="scale(0.015625)"/>
     </defs>
     <use xlink:href="#STIXGeneral-Italic-47" transform="translate(0 0.245313)"/>
     <use xlink:href="#STIXGeneral-Italic-3b8" transform="translate(72.199982 -12.982812) scale(0.7)"/>
     <use xlink:href="#STIXGeneral-Regular-28" transform="translate(110.209346 0.245313)"/>
     <use xlink:href="#STIXGeneral-Italic-78" transform="translate(143.509334 0.245313)"/>
     <use xlink:href="#STIXGeneral-Regular-29" transform="translate(187.909328 0.245313)"/>
     <use xlink:href="#STIXGeneral-Regular-3d" transform="translate(235.649312 0.245313)"/>
     <use xlink:href="#STIXGeneral-Regular-31" transform="translate(324.589293 38.042188) scale(0.7)"/>
     <use xlink:href="#STIXGeneral-Italic-4b" transform="translate(318.589293 -38.915625) scale(0.7)"/>
     <use xlink:href="#STIXGeneral-Italic-4b" transform="translate(421.779291 95.292188) scale(0.7)"/>
     <use xlink:href="#STIXGeneral-Regular-2211" transform="translate(404.779291 0.245313)"/>
     <use xlink:href="#STIXGeneral-Italic-6b" transform="translate(377.779291 -92.21875) scale(0.7)"/>
     <use xlink:href="#STIXGeneral-Regular-3d" transform="translate(418.967284 -92.21875) scale(0.7)"/>
     <use xlink:href="#STIXGeneral-Regular-31" transform="translate(477.025271 -92.21875) scale(0.7)"/>
     <use xlink:href="#STIXGeneral-Regular-7c" transform="translate(512.02526 -18.457812) scale(1.276721)"/>
     <use xlink:href="#STIXGeneral-Regular-2207" transform="translate(537.550254 0.245313)"/>
     <use xlink:href="#STIXGeneral-Italic-78" transform="translate(612.193526 -12.982812) scale(0.7)"/>
     <use xlink:href="#STIXGeneral-Italic-73" transform="translate(647.682897 0.245313)"/>
     <use xlink:href="#STIXGeneral-Italic-3b8" transform="translate(686.582891 -12.982812) scale(0.7)"/>
     <use xlink:href="#STIXGeneral-Regular-28" transform="translate(724.592255 0.245313)"/>
     <use xlink:href="#STIXGeneral-Italic-78" transform="translate(757.892243 0.245313)"/>
     <use xlink:href="#STIXGeneral-Regular-2b" transform="translate(816.732233 0.245313)"/>
     <use xlink:href="#STIXGeneral-Italic-3b7" transform="translate(899.672214 0.245313)"/>
     <use xlink:href="#STIXGeneral-Italic-6b" transform="translate(947.072208 -12.982812) scale(0.7)"/>
     <use xlink:href="#STIXGeneral-Regular-29" transform="translate(982.561579 0.245313)"/>
     <use xlink:href="#STIXGeneral-Regular-7c" transform="translate(1015.861566 -18.457812) scale(1.276721)"/>
     <use xlink:href="#STIXGeneral-Regular-2c" transform="translate(1041.38656 0.245313)"/>
     <use xlink:href="#STIXGeneral-Italic-3b7" transform="translate(1153.026523 0.245313)"/>
     <use xlink:href="#STIXGeneral-Italic-6b" transform="translate(1200.426517 -12.982812) scale(0.7)"/>
     <use xlink:href="#STIXGeneral-Regular-223c" transform="translate(1250.355884 0.245313)"/>
     <use xlink:href="#STIXNonUnicode-Italic-e23a" transform="translate(1333.295865 0.245313)"/>
     <use xlink:href="#STIXGeneral-Regular-28" transform="translate(1428.995847 0.245313)"/>
     <use xlink:href="#STIXGeneral-Regular-30" transform="translate(1462.295835 0.245313)"/>
     <use xlink:href="#STIXGeneral-Regular-2c" transform="translate(1512.295819 0.245313)"/>
     <use xlink:href="#STIXGeneral-Italic-3c3" transform="translate(1551.7358 0.245313)"/>
     <use xlink:href="#STIXGeneral-Regular-32" transform="translate(1607.43657 35.520313) scale(0.7)"/>
     <use xlink:href="#STIXGeneral-Italic-49" transform="translate(1646.845934 0.245313)"/>
     <use xlink:href="#STIXGeneral-Regular-29" transform="translate(1680.145922 0.245313)"/>
     <path d="M 318.589293 13.042188
L 318.589293 19.292188
L 365.279291 19.292188
L 365.279291 13.042188
L 318.589293 13.042188
z
"/>
    </g>
   </g>
  </g>
 </g>
</svg>
