<?xml version="1.0" encoding="utf-8" standalone="no"?>
<!DOCTYPE svg PUBLIC "-//W3C//DTD SVG 1.1//EN"
  "http://www.w3.org/Graphics/SVG/1.1/DTD/svg11.dtd">
<svg xmlns:xlink="http://www.w3.org/1999/xlink" width="803.52pt" height="123.12pt" viewBox="0 0 803.52 123.12" xmlns="http://www.w3.org/2000/svg" version="1.1">
 <metadata>
  <rdf:RDF xmlns:dc="http://purl.org/dc/elements/1.1/" xmlns:cc="http://creativecommons.org/ns#" xmlns:rdf="http://www.w3.org/1999/02/22-rdf-syntax-ns#">
   <cc:Work>
    <dc:type rdf:resource="http://purl.org/dc/dcmitype/StillImage"/>
    <dc:date>2026-05-18T16:36:19.532452</dc:date>
    <dc:format>image/svg+xml</dc:format>
    <dc:creator>
     <cc:Agent>
      <dc:title>Matplotlib v3.7.3, https://matplotlib.org/</dc:title>
     </cc:Agent>
    </dc:creator>
   </cc:Work>
  </rdf:RDF>
 </metadata>
 <defs>
  <style type="text/css">*{stroke-linejoin: round; stroke-linecap: butt}</style>
 </defs>
 <g id="figure_1">
  <g id="patch_1">
   <path d="M 0 123.12
L 803.52 123.12
L 803.52 0
L 0 0
L 0 123.12
z
" style="fill: none; opacity: 0"/>
  </g>
  <g id="axes_1">
   <g id="text_1">
    <!-- $s_\theta(x)=P_\theta(Y=\mathrm{star}\mid x)$ -->
    <g style="fill: #111111" transform="translate(282.9 68.083125) scale(0.28 -0.28)">
     <defs>
      <path id="STIXGeneral-Italic-73" d="M 2342 2829
L 2214 1933
L 2112 1933
Q 2022 2675 1542 2675
Q 1370 2675 1267 2579
Q 1165 2483 1165 2310
Q 1165 2067 1510 1658
Q 1946 1152 1946 787
Q 1946 397 1686 163
Q 1427 -70 1024 -70
Q 838 -70 672 -6
Q 538 51 390 51
Q 262 51 205 -83
L 102 -83
L 230 934
L 333 934
Q 461 64 973 64
Q 1203 64 1331 192
Q 1459 320 1459 557
Q 1459 845 1101 1293
Q 698 1798 698 2131
Q 698 2451 909 2636
Q 1120 2822 1472 2822
Q 1600 2822 1830 2758
Q 1971 2714 2061 2714
Q 2189 2714 2253 2829
L 2342 2829
z
" transform="scale(0.015625)"/>
      <path id="STIXGeneral-Italic-3b8" d="M 3162 3270
Q 3162 2534 2925 1862
Q 2688 1190 2304 678
Q 1741 -70 992 -70
Q 608 -70 390 224
Q 173 518 173 1030
Q 173 1997 592 2813
Q 1011 3629 1594 4070
Q 1952 4339 2374 4339
Q 2733 4339 2947 4076
Q 3162 3814 3162 3270
z
M 941 2221
L 2432 2221
Q 2624 2874 2624 3533
Q 2624 4205 2285 4205
Q 2029 4205 1728 3814
Q 1427 3424 1232 2992
Q 1037 2560 941 2221
z
M 2387 2016
L 896 2016
Q 710 1530 710 960
Q 710 64 1069 64
Q 1286 64 1510 275
Q 1734 486 1904 806
Q 2074 1126 2198 1440
Q 2323 1754 2387 2016
z
" transform="scale(0.015625)"/>
      <path id="STIXGeneral-Regular-28" d="M 1946 -1030
L 1869 -1133
Q 1126 -710 716 32
Q 307 774 307 1613
Q 307 3386 1888 4326
L 1946 4224
Q 1293 3667 1075 3126
Q 858 2586 858 1632
Q 858 685 1082 96
Q 1306 -493 1946 -1030
z
" transform="scale(0.015625)"/>
      <path id="STIXGeneral-Italic-78" d="M 1555 2272
L 1632 1907
Q 1971 2426 2179 2624
Q 2387 2822 2598 2822
Q 2714 2822 2787 2755
Q 2861 2688 2861 2585
Q 2861 2483 2800 2419
Q 2739 2355 2643 2355
Q 2586 2355 2490 2409
Q 2394 2464 2310 2464
Q 2125 2464 1683 1690
Q 1683 1606 1734 1402
L 1939 544
Q 2003 282 2131 282
Q 2234 282 2432 538
Q 2451 563 2476 598
Q 2502 634 2521 662
Q 2541 691 2566 717
L 2662 659
Q 2387 230 2227 80
Q 2067 -70 1882 -70
Q 1728 -70 1645 26
Q 1562 122 1504 365
L 1318 1126
L 755 365
Q 557 96 432 13
Q 307 -70 147 -70
Q 0 -70 -86 0
Q -173 70 -173 198
Q -173 294 -112 361
Q -51 429 45 429
Q 122 429 250 358
Q 346 301 416 301
Q 525 301 742 614
L 1267 1357
L 1088 2150
Q 1024 2432 969 2509
Q 915 2586 794 2586
Q 717 2586 544 2541
L 429 2509
L 410 2611
L 480 2637
Q 992 2822 1229 2822
Q 1350 2822 1420 2707
Q 1491 2592 1555 2272
z
" transform="scale(0.015625)"/>
      <path id="STIXGeneral-Regular-29" d="M 186 4224
L 262 4326
Q 992 3891 1408 3148
Q 1824 2406 1824 1581
Q 1824 -166 243 -1133
L 186 -1030
Q 845 -486 1059 54
Q 1274 595 1274 1562
Q 1274 2534 1059 3120
Q 845 3706 186 4224
z
" transform="scale(0.015625)"/>
      <path id="STIXGeneral-Regular-3d" d="M 4077 2048
L 307 2048
L 307 2470
L 4077 2470
L 4077 2048
z
M 4077 768
L 307 768
L 307 1190
L 4077 1190
L 4077 768
z
" transform="scale(0.015625)"/>
      <path id="STIXGeneral-Italic-50" d="M 934 4179
L 2477 4179
Q 3872 4179 3872 3232
Q 3872 2976 3753 2729
Q 3635 2483 3437 2317
Q 2995 1952 2125 1952
Q 1773 1952 1549 2003
L 1210 768
Q 1120 422 1120 365
Q 1120 250 1216 189
Q 1312 128 1562 102
L 1562 0
L 0 0
L 0 102
Q 275 141 361 227
Q 448 314 538 627
L 1280 3277
Q 1389 3667 1389 3808
Q 1389 3936 1299 3990
Q 1210 4045 934 4077
L 934 4179
z
M 2048 3789
L 1606 2221
Q 1792 2189 1939 2189
Q 2496 2189 2758 2342
Q 3213 2598 3213 3200
Q 3213 3987 2381 3987
Q 2099 3987 2048 3789
z
" transform="scale(0.015625)"/>
      <path id="STIXGeneral-Italic-59" d="M 4051 4179
L 4051 4077
Q 3917 4032 3846 3965
Q 3776 3898 3603 3686
L 2202 1958
L 1971 1171
Q 1779 512 1779 358
Q 1779 237 1852 185
Q 1926 134 2118 122
L 2349 102
L 2349 0
L 499 0
L 499 102
Q 826 122 963 221
Q 1101 320 1184 621
L 1562 1933
L 1075 3642
Q 1005 3898 925 3968
Q 845 4038 582 4077
L 582 4179
L 2112 4179
L 2112 4077
Q 1830 4051 1740 4003
Q 1651 3955 1651 3846
Q 1651 3738 1882 2925
L 2080 2221
L 2330 2515
Q 3283 3642 3283 3878
Q 3283 4032 3027 4058
L 2842 4077
L 2842 4179
L 4051 4179
z
" transform="scale(0.015625)"/>
      <path id="STIXGeneral-Regular-73" d="M 998 1926
L 1664 1523
Q 1984 1331 2105 1164
Q 2227 998 2227 736
Q 2227 416 1961 176
Q 1696 -64 1331 -64
Q 1030 -64 864 -6
Q 691 51 570 51
Q 461 51 416 -26
L 333 -26
L 333 979
L 435 979
Q 538 512 730 294
Q 922 77 1248 77
Q 1485 77 1632 211
Q 1779 346 1779 550
Q 1779 845 1440 1030
L 1094 1222
Q 326 1651 326 2150
Q 326 2522 566 2730
Q 806 2938 1210 2938
Q 1491 2938 1638 2867
Q 1754 2816 1818 2816
Q 1862 2816 1920 2880
L 1990 2880
L 2022 2010
L 1926 2010
Q 1818 2445 1654 2621
Q 1491 2797 1203 2797
Q 986 2797 854 2688
Q 723 2579 723 2362
Q 723 2253 796 2128
Q 870 2003 998 1926
z
" transform="scale(0.015625)"/>
      <path id="STIXGeneral-Regular-74" d="M 1702 493
L 1786 422
Q 1478 -64 1011 -64
Q 448 -64 448 749
L 448 2675
L 109 2675
Q 83 2694 83 2720
Q 83 2771 192 2842
Q 435 2982 813 3526
Q 826 3546 874 3606
Q 922 3667 941 3706
Q 986 3706 986 3622
L 986 2880
L 1632 2880
L 1632 2675
L 986 2675
L 986 845
Q 986 538 1062 403
Q 1139 269 1318 269
Q 1510 269 1702 493
z
" transform="scale(0.015625)"/>
      <path id="STIXGeneral-Regular-61" d="M 2829 422
L 2829 243
Q 2586 -64 2253 -64
Q 1888 -64 1843 403
L 1837 403
Q 1427 -64 909 -64
Q 608 -64 422 112
Q 237 288 237 602
Q 237 1050 685 1350
Q 992 1555 1837 1869
L 1837 2214
Q 1837 2502 1699 2646
Q 1562 2790 1338 2790
Q 1146 2790 1018 2697
Q 890 2605 890 2477
Q 890 2419 909 2348
Q 928 2278 928 2208
Q 928 2112 841 2029
Q 755 1946 634 1946
Q 525 1946 441 2029
Q 358 2112 358 2240
Q 358 2547 685 2752
Q 986 2944 1421 2944
Q 1939 2944 2176 2656
Q 2291 2522 2323 2384
Q 2355 2246 2355 1946
L 2355 723
Q 2355 301 2554 301
Q 2682 301 2829 422
z
M 1837 813
L 1837 1715
Q 1248 1510 1018 1293
Q 800 1094 800 800
Q 800 557 921 432
Q 1043 307 1242 307
Q 1453 307 1613 410
Q 1747 506 1792 589
Q 1837 672 1837 813
z
" transform="scale(0.015625)"/>
      <path id="STIXGeneral-Regular-72" d="M 1024 2931
L 1024 2342
Q 1267 2688 1430 2816
Q 1594 2944 1792 2944
Q 1958 2944 2051 2854
Q 2144 2765 2144 2605
Q 2144 2470 2077 2393
Q 2010 2317 1894 2317
Q 1773 2317 1638 2445
Q 1536 2541 1472 2541
Q 1338 2541 1181 2355
Q 1024 2170 1024 2016
L 1024 576
Q 1024 301 1133 205
Q 1242 109 1568 96
L 1568 0
L 32 0
L 32 96
Q 339 154 412 224
Q 486 294 486 538
L 486 2138
Q 486 2349 438 2435
Q 390 2522 269 2522
Q 166 2522 45 2496
L 45 2598
Q 448 2726 992 2944
L 1024 2931
z
" transform="scale(0.015625)"/>
      <path id="STIXGeneral-Regular-2223" d="M 1062 -1210
L 640 -1210
L 640 4416
L 1062 4416
L 1062 -1210
z
" transform="scale(0.015625)"/>
     </defs>
     <use xlink:href="#STIXGeneral-Italic-73"/>
     <use xlink:href="#STIXGeneral-Italic-3b8" transform="translate(38.899994 -13.228125) scale(0.7)"/>
     <use xlink:href="#STIXGeneral-Regular-28" transform="translate(76.909358 0)"/>
     <use xlink:href="#STIXGeneral-Italic-78" transform="translate(110.209346 0)"/>
     <use xlink:href="#STIXGeneral-Regular-29" transform="translate(154.60934 0)"/>
     <use xlink:href="#STIXGeneral-Regular-3d" transform="translate(202.349324 0)"/>
     <use xlink:href="#STIXGeneral-Italic-50" transform="translate(285.289305 0)"/>
     <use xlink:href="#STIXGeneral-Italic-3b8" transform="translate(346.389296 -13.228125) scale(0.7)"/>
     <use xlink:href="#STIXGeneral-Regular-28" transform="translate(384.39866 0)"/>
     <use xlink:href="#STIXGeneral-Italic-59" transform="translate(417.698648 0)"/>
     <use xlink:href="#STIXGeneral-Regular-3d" transform="translate(487.738635 0)"/>
     <use xlink:href="#STIXGeneral-Regular-73" transform="translate(570.678616 0)"/>
     <use xlink:href="#STIXGeneral-Regular-74" transform="translate(609.57861 0)"/>
     <use xlink:href="#STIXGeneral-Regular-61" transform="translate(637.378598 0)"/>
     <use xlink:href="#STIXGeneral-Regular-72" transform="translate(681.778592 0)"/>
     <use xlink:href="#STIXGeneral-Regular-2223" transform="translate(729.518576 0)"/>
     <use xlink:href="#STIXGeneral-Italic-78" transform="translate(770.558563 0)"/>
     <use xlink:href="#STIXGeneral-Regular-29" transform="translate(814.958557 0)"/>
    </g>
   </g>
  </g>
 </g>
</svg>
