<?xml version="1.0" encoding="utf-8" standalone="no"?>
<!DOCTYPE svg PUBLIC "-//W3C//DTD SVG 1.1//EN"
  "http://www.w3.org/Graphics/SVG/1.1/DTD/svg11.dtd">
<svg xmlns:xlink="http://www.w3.org/1999/xlink" width="803.52pt" height="123.12pt" viewBox="0 0 803.52 123.12" xmlns="http://www.w3.org/2000/svg" version="1.1">
 <metadata>
  <rdf:RDF xmlns:dc="http://purl.org/dc/elements/1.1/" xmlns:cc="http://creativecommons.org/ns#" xmlns:rdf="http://www.w3.org/1999/02/22-rdf-syntax-ns#">
   <cc:Work>
    <dc:type rdf:resource="http://purl.org/dc/dcmitype/StillImage"/>
    <dc:date>2026-05-18T16:36:19.232744</dc:date>
    <dc:format>image/svg+xml</dc:format>
    <dc:creator>
     <cc:Agent>
      <dc:title>Matplotlib v3.7.3, https://matplotlib.org/</dc:title>
     </cc:Agent>
    </dc:creator>
   </cc:Work>
  </rdf:RDF>
 </metadata>
 <defs>
  <style type="text/css">*{stroke-linejoin: round; stroke-linecap: butt}</style>
 </defs>
 <g id="figure_1">
  <g id="patch_1">
   <path d="M 0 123.12
L 803.52 123.12
L 803.52 0
L 0 0
L 0 123.12
z
" style="fill: none; opacity: 0"/>
  </g>
  <g id="axes_1">
   <g id="text_1">
    <!-- $\widehat{f}\in\arg\min_{f\in\mathcal{F}}\widehat{R}_n(f)$ -->
    <g style="fill: #111111" transform="translate(313.7 63.66) scale(0.28 -0.28)">
     <defs>
      <path id="STIXGeneral-Regular-302" d="M -480 3245
L -698 3245
L -1478 3904
L -2253 3245
L -2470 3245
L -1677 4314
L -1280 4314
L -480 3245
z
" transform="scale(0.015625)"/>
      <path id="STIXGeneral-Italic-66" d="M 262 2739
L 858 2739
Q 1107 3546 1318 3846
Q 1664 4339 2163 4339
Q 2400 4339 2557 4227
Q 2714 4115 2714 3942
Q 2714 3834 2634 3750
Q 2554 3667 2445 3667
Q 2355 3667 2281 3737
Q 2208 3808 2208 3917
Q 2208 3981 2240 4038
Q 2272 4096 2272 4115
Q 2272 4198 2131 4198
Q 1862 4198 1676 3849
Q 1491 3501 1350 2739
L 2035 2739
L 1997 2534
L 1306 2534
L 845 486
Q 435 -1325 -435 -1325
Q -653 -1325 -797 -1213
Q -941 -1101 -941 -934
Q -941 -826 -870 -746
Q -800 -666 -698 -666
Q -589 -666 -521 -733
Q -454 -800 -454 -902
Q -454 -947 -483 -1001
Q -512 -1056 -512 -1088
Q -512 -1190 -384 -1190
Q 13 -1190 237 -154
L 800 2534
L 218 2534
L 262 2739
z
" transform="scale(0.015625)"/>
      <path id="STIXGeneral-Regular-2208" d="M 4000 -173
L 2138 -173
Q 1382 -173 883 355
Q 384 883 384 1612
Q 384 2342 877 2870
Q 1370 3398 2118 3398
L 4000 3398
L 4000 2976
L 2144 2976
Q 1664 2976 1286 2633
Q 909 2291 826 1824
L 4000 1824
L 4000 1402
L 819 1402
Q 902 934 1280 592
Q 1658 250 2138 250
L 4000 250
L 4000 -173
z
" transform="scale(0.015625)"/>
      <path id="STIXGeneral-Regular-61" d="M 2829 422
L 2829 243
Q 2586 -64 2253 -64
Q 1888 -64 1843 403
L 1837 403
Q 1427 -64 909 -64
Q 608 -64 422 112
Q 237 288 237 602
Q 237 1050 685 1350
Q 992 1555 1837 1869
L 1837 2214
Q 1837 2502 1699 2646
Q 1562 2790 1338 2790
Q 1146 2790 1018 2697
Q 890 2605 890 2477
Q 890 2419 909 2348
Q 928 2278 928 2208
Q 928 2112 841 2029
Q 755 1946 634 1946
Q 525 1946 441 2029
Q 358 2112 358 2240
Q 358 2547 685 2752
Q 986 2944 1421 2944
Q 1939 2944 2176 2656
Q 2291 2522 2323 2384
Q 2355 2246 2355 1946
L 2355 723
Q 2355 301 2554 301
Q 2682 301 2829 422
z
M 1837 813
L 1837 1715
Q 1248 1510 1018 1293
Q 800 1094 800 800
Q 800 557 921 432
Q 1043 307 1242 307
Q 1453 307 1613 410
Q 1747 506 1792 589
Q 1837 672 1837 813
z
" transform="scale(0.015625)"/>
      <path id="STIXGeneral-Regular-72" d="M 1024 2931
L 1024 2342
Q 1267 2688 1430 2816
Q 1594 2944 1792 2944
Q 1958 2944 2051 2854
Q 2144 2765 2144 2605
Q 2144 2470 2077 2393
Q 2010 2317 1894 2317
Q 1773 2317 1638 2445
Q 1536 2541 1472 2541
Q 1338 2541 1181 2355
Q 1024 2170 1024 2016
L 1024 576
Q 1024 301 1133 205
Q 1242 109 1568 96
L 1568 0
L 32 0
L 32 96
Q 339 154 412 224
Q 486 294 486 538
L 486 2138
Q 486 2349 438 2435
Q 390 2522 269 2522
Q 166 2522 45 2496
L 45 2598
Q 448 2726 992 2944
L 1024 2931
z
" transform="scale(0.015625)"/>
      <path id="STIXGeneral-Regular-67" d="M 3008 2483
L 2477 2483
Q 2598 2208 2598 1946
Q 2598 1453 2265 1203
Q 1933 954 1600 954
Q 1530 954 1357 973
L 1235 986
Q 1107 947 979 812
Q 851 678 851 582
Q 851 435 1350 410
L 2176 371
Q 2528 358 2739 172
Q 2950 -13 2950 -314
Q 2950 -685 2566 -986
Q 2035 -1395 1286 -1395
Q 826 -1395 502 -1212
Q 179 -1030 179 -774
Q 179 -595 320 -419
Q 461 -243 806 6
Q 602 102 534 172
Q 467 243 467 346
Q 467 531 762 787
Q 909 915 1037 1043
Q 717 1203 579 1401
Q 442 1600 442 1901
Q 442 2336 752 2640
Q 1062 2944 1510 2944
Q 1766 2944 2022 2848
L 2163 2797
Q 2349 2733 2515 2733
L 3008 2733
L 3008 2483
z
M 973 2163
L 973 2144
Q 973 1683 1155 1398
Q 1338 1114 1632 1114
Q 1850 1114 1978 1270
Q 2106 1427 2106 1690
Q 2106 2112 1914 2464
Q 1754 2765 1446 2765
Q 1222 2765 1097 2605
Q 973 2445 973 2163
z
M 2771 -410
Q 2771 -230 2595 -163
Q 2419 -96 1978 -96
Q 1344 -96 941 -13
Q 749 -243 688 -348
Q 627 -454 627 -563
Q 627 -774 880 -902
Q 1133 -1030 1555 -1030
Q 2099 -1030 2435 -860
Q 2771 -691 2771 -410
z
" transform="scale(0.015625)"/>
      <path id="STIXGeneral-Regular-6d" d="M 4960 0
L 3565 0
L 3565 96
Q 3834 122 3907 208
Q 3981 294 3981 576
L 3981 1894
Q 3981 2278 3869 2444
Q 3757 2611 3488 2611
Q 3264 2611 3107 2521
Q 2950 2432 2803 2221
L 2803 608
Q 2803 301 2896 201
Q 2989 102 3264 96
L 3264 0
L 1830 0
L 1830 96
Q 2112 115 2189 188
Q 2266 262 2266 550
L 2266 1901
Q 2266 2611 1850 2611
Q 1670 2611 1468 2531
Q 1267 2451 1171 2336
Q 1088 2240 1088 2227
L 1088 448
Q 1088 243 1177 176
Q 1267 109 1523 96
L 1523 0
L 102 0
L 102 96
Q 371 102 460 195
Q 550 288 550 563
L 550 2150
Q 550 2387 499 2480
Q 448 2573 326 2573
Q 230 2573 122 2547
L 122 2656
Q 557 2778 1011 2944
L 1062 2925
L 1062 2451
L 1075 2451
Q 1363 2752 1584 2848
Q 1805 2944 2054 2944
Q 2560 2944 2733 2406
Q 3232 2944 3776 2944
Q 4518 2944 4518 1792
L 4518 493
Q 4518 282 4582 202
Q 4646 122 4794 109
L 4960 96
L 4960 0
z
" transform="scale(0.015625)"/>
      <path id="STIXGeneral-Regular-69" d="M 1152 4045
Q 1152 3904 1056 3811
Q 960 3718 819 3718
Q 685 3718 592 3811
Q 499 3904 499 4045
Q 499 4179 595 4275
Q 691 4371 826 4371
Q 966 4371 1059 4275
Q 1152 4179 1152 4045
z
M 1619 0
L 102 0
L 102 96
Q 435 115 521 211
Q 608 307 608 666
L 608 2118
Q 608 2342 563 2432
Q 518 2522 397 2522
Q 243 2522 128 2490
L 128 2592
L 1120 2944
L 1146 2918
L 1146 672
Q 1146 314 1226 218
Q 1306 122 1619 96
L 1619 0
z
" transform="scale(0.015625)"/>
      <path id="STIXGeneral-Regular-6e" d="M 3104 0
L 1773 0
L 1779 96
Q 2016 115 2096 233
Q 2176 352 2176 672
L 2176 1946
Q 2176 2592 1709 2592
Q 1549 2592 1408 2515
Q 1267 2438 1050 2227
L 1050 461
Q 1050 269 1136 192
Q 1222 115 1466 96
L 1466 0
L 115 0
L 115 96
Q 358 115 435 214
Q 512 314 512 602
L 512 2157
Q 512 2394 467 2483
Q 422 2573 288 2573
Q 160 2573 102 2547
L 102 2656
Q 550 2784 979 2944
L 1030 2925
L 1030 2426
L 1037 2426
Q 1491 2944 1958 2944
Q 2323 2944 2518 2688
Q 2714 2432 2714 1958
L 2714 544
Q 2714 288 2790 205
Q 2867 122 3104 96
L 3104 0
z
" transform="scale(0.015625)"/>
      <path id="STIXNonUnicode-Italic-e232" d="M 378 3418
L 275 3533
Q 730 3955 1174 4096
Q 1619 4237 2163 4237
Q 2714 4237 3110 4208
Q 3507 4179 3849 4099
Q 4192 4019 4368 3868
Q 4544 3718 4544 3488
Q 4544 3270 4429 3123
Q 4314 2976 4109 2976
Q 3962 2976 3853 3062
Q 3744 3149 3744 3277
Q 3744 3398 3792 3465
Q 3840 3533 3897 3549
Q 3955 3565 4000 3593
Q 4045 3622 4045 3680
Q 4045 3808 3696 3894
Q 3347 3981 2893 3981
Q 2694 3981 2608 3920
Q 2522 3859 2464 3667
L 2099 2413
L 3494 2413
L 3411 2157
L 2029 2157
L 1747 1203
Q 1626 787 1491 537
Q 1357 288 1174 173
Q 992 58 829 29
Q 666 0 384 0
L 435 154
Q 608 154 726 288
Q 845 422 934 742
L 1690 3334
Q 1754 3558 1754 3667
Q 1754 3776 1690 3827
Q 1626 3878 1459 3878
Q 858 3878 378 3418
z
" transform="scale(0.015625)"/>
      <path id="STIXSizeTwoSym-Regular-302" d="M -1094 3610
L -1728 3610
L -4224 4538
L -6726 3610
L -7360 3610
L -4378 4973
L -4070 4973
L -1094 3610
z
" transform="scale(0.015625)"/>
      <path id="STIXGeneral-Italic-52" d="M 845 4179
L 2458 4179
Q 3078 4179 3420 3936
Q 3763 3693 3763 3277
Q 3763 2778 3341 2458
Q 3091 2266 2502 2131
L 3072 627
Q 3181 333 3299 217
Q 3418 102 3629 102
L 3629 0
L 2688 0
L 1901 2074
L 1478 2106
L 1126 806
Q 1043 512 1043 403
Q 1043 256 1126 192
Q 1210 128 1472 102
L 1472 0
L -83 0
L -83 102
Q 173 134 278 243
Q 384 352 461 646
L 1222 3405
Q 1299 3699 1299 3808
Q 1299 3923 1210 3987
Q 1133 4038 845 4077
L 845 4179
z
M 1958 3795
L 1555 2342
Q 1754 2310 1882 2310
Q 2451 2310 2771 2566
Q 3091 2822 3091 3270
Q 3091 3603 2892 3795
Q 2694 3987 2323 3987
Q 2010 3987 1958 3795
z
" transform="scale(0.015625)"/>
      <path id="STIXGeneral-Italic-6e" d="M 2944 749
L 3034 666
Q 2707 218 2534 80
Q 2362 -58 2138 -58
Q 2010 -58 1923 28
Q 1837 115 1837 288
Q 1837 390 1939 768
L 2221 1805
Q 2310 2150 2310 2310
Q 2310 2496 2157 2496
Q 1971 2496 1750 2275
Q 1530 2054 1210 1587
Q 998 1274 899 1024
Q 800 774 570 0
L 90 0
L 704 2240
Q 717 2304 717 2349
Q 717 2445 630 2480
Q 544 2515 301 2522
L 301 2624
Q 550 2675 857 2729
Q 1165 2784 1338 2822
L 1363 2810
L 934 1414
Q 1408 2170 1753 2496
Q 2099 2822 2413 2822
Q 2611 2822 2720 2716
Q 2829 2611 2829 2432
Q 2829 2272 2765 2048
L 2406 749
Q 2317 429 2317 358
Q 2317 243 2419 243
Q 2541 243 2810 582
Q 2854 634 2944 749
z
" transform="scale(0.015625)"/>
      <path id="STIXGeneral-Regular-28" d="M 1946 -1030
L 1869 -1133
Q 1126 -710 716 32
Q 307 774 307 1613
Q 307 3386 1888 4326
L 1946 4224
Q 1293 3667 1075 3126
Q 858 2586 858 1632
Q 858 685 1082 96
Q 1306 -493 1946 -1030
z
" transform="scale(0.015625)"/>
      <path id="STIXGeneral-Regular-29" d="M 186 4224
L 262 4326
Q 992 3891 1408 3148
Q 1824 2406 1824 1581
Q 1824 -166 243 -1133
L 186 -1030
Q 845 -486 1059 54
Q 1274 595 1274 1562
Q 1274 2534 1059 3120
Q 845 3706 186 4224
z
" transform="scale(0.015625)"/>
     </defs>
     <use xlink:href="#STIXGeneral-Regular-302" transform="translate(38.449997 36.015625) scale(0.89407)"/>
     <use xlink:href="#STIXGeneral-Italic-66" transform="translate(0 0.84375)"/>
     <use xlink:href="#STIXGeneral-Regular-2208" transform="translate(42.239984 0.84375)"/>
     <use xlink:href="#STIXGeneral-Regular-61" transform="translate(125.179965 0.84375)"/>
     <use xlink:href="#STIXGeneral-Regular-72" transform="translate(169.579959 0.84375)"/>
     <use xlink:href="#STIXGeneral-Regular-67" transform="translate(202.879947 0.84375)"/>
     <use xlink:href="#STIXGeneral-Regular-6d" transform="translate(264.913503 0.84375)"/>
     <use xlink:href="#STIXGeneral-Regular-69" transform="translate(342.71349 0.84375)"/>
     <use xlink:href="#STIXGeneral-Regular-6e" transform="translate(370.513478 0.84375)"/>
     <use xlink:href="#STIXGeneral-Italic-66" transform="translate(275.913503 -65.364062) scale(0.7)"/>
     <use xlink:href="#STIXGeneral-Regular-2208" transform="translate(305.481491 -65.364062) scale(0.7)"/>
     <use xlink:href="#STIXNonUnicode-Italic-e232" transform="translate(363.539478 -65.364062) scale(0.7)"/>
     <use xlink:href="#STIXSizeTwoSym-Regular-302" transform="translate(499.522836 43.671875) scale(0.624066)"/>
     <use xlink:href="#STIXGeneral-Italic-52" transform="translate(420.513463 0.84375)"/>
     <use xlink:href="#STIXGeneral-Italic-6e" transform="translate(483.156735 -12.384375) scale(0.7)"/>
     <use xlink:href="#STIXGeneral-Regular-28" transform="translate(534.59967 0.84375)"/>
     <use xlink:href="#STIXGeneral-Italic-66" transform="translate(567.899658 0.84375)"/>
     <use xlink:href="#STIXGeneral-Regular-29" transform="translate(595.699646 0.84375)"/>
    </g>
   </g>
  </g>
 </g>
</svg>
